<svg width="140" height="36" viewBox="0 0 140 36" fill="none" xmlns="http://www.w3.org/2000/svg">
<path d="M59.712 10.528C54.864 10.528 51.888 13.936 51.888 19.456C51.888 25 54.84 28.384 59.64 28.384C63.816 28.384 66.528 26.056 66.864 22H63.24C62.976 24.088 61.656 25.264 59.64 25.264C57.096 25.264 55.536 23.08 55.536 19.456C55.536 15.856 57.12 13.648 59.712 13.648C61.704 13.648 63.024 14.848 63.24 16.84H66.792C66.624 13.12 63.936 10.528 59.712 10.528ZM73.7081 15.424C69.8921 15.424 67.4681 17.944 67.4681 21.904C67.4681 25.864 69.8921 28.384 73.7081 28.384C77.5241 28.384 79.9481 25.864 79.9481 21.904C79.9481 17.944 77.5241 15.424 73.7081 15.424ZM73.7081 18.016C75.3641 18.016 76.4201 19.528 76.4201 21.904C76.4201 24.28 75.3641 25.792 73.7081 25.792C72.0521 25.792 70.9961 24.28 70.9961 21.904C70.9961 19.528 72.0521 18.016 73.7081 18.016ZM86.8084 10.528C83.0644 10.528 80.4964 12.592 80.4964 15.592C80.4964 19.336 83.4244 20.104 86.6404 20.92C89.0644 21.544 90.1684 21.832 90.1684 23.344C90.1684 24.688 89.0164 25.528 87.2164 25.528C85.0324 25.528 83.9044 24.448 83.9044 22.384H80.2564C80.2564 26.272 82.9204 28.384 87.1684 28.384C91.1524 28.384 93.8404 26.224 93.8404 22.984C93.8404 19.264 91.0564 18.424 87.8404 17.632C85.1524 16.96 84.1204 16.528 84.1204 15.208C84.1204 14.104 85.1764 13.336 86.7364 13.336C88.6804 13.336 89.7124 14.368 89.7124 16.144H93.2884C93.2884 12.472 91.0804 10.528 86.8084 10.528ZM100.606 25.48C99.4536 25.48 99.0216 24.952 99.0216 23.608V18.304H101.35V15.808H99.0216V12.64H95.6616V15.808H93.6936V18.304H95.6616V24.208C95.6616 27.04 96.8856 28.168 99.6936 28.168C100.27 28.168 101.014 28.072 101.47 27.928V25.36C101.254 25.432 100.918 25.48 100.606 25.48ZM106.88 28.288C108.44 28.288 109.664 27.544 110.456 26.464H110.504V28H113.648V15.808H110.288V22.336C110.288 24.544 109.28 25.648 107.888 25.648C106.568 25.648 105.752 24.808 105.752 22.96V15.808H102.392V23.296C102.392 26.608 104.144 28.288 106.88 28.288ZM126.79 28V10.912H123.43V17.272H123.382C122.638 16.12 121.318 15.496 119.926 15.496C116.878 15.496 114.91 18.016 114.91 21.904C114.91 25.792 116.902 28.312 119.974 28.312C121.39 28.312 122.734 27.64 123.478 26.392H123.526V28H126.79ZM121.054 18.064C122.566 18.064 123.598 19.48 123.598 21.904C123.598 24.328 122.566 25.744 121.054 25.744C119.446 25.744 118.414 24.232 118.414 21.904C118.414 19.576 119.446 18.064 121.054 18.064ZM139.478 15.808H136.022L134.702 19.888C134.15 21.568 133.694 23.296 133.286 25H133.238C132.854 23.296 132.398 21.568 131.894 19.888L130.646 15.808H127.046L130.502 25.72C130.982 27.088 131.078 27.472 131.078 27.928C131.078 29.128 130.19 29.896 128.846 29.896C128.342 29.896 127.886 29.824 127.55 29.704V32.392C128.054 32.512 128.702 32.584 129.302 32.584C132.35 32.584 133.886 31.504 135.11 28.072L139.478 15.808Z" fill="#111111"/>
<path fill-rule="evenodd" clip-rule="evenodd" d="M24.8454 16.2958H24.9005H24.9069H24.962H24.9684H25.0235H25.0299L25.085 16.2974H25.0914L25.1465 16.2991H25.1529L25.208 16.3007H25.2144L25.2695 16.3023H25.2759L25.3311 16.304H25.3374L25.3904 16.3073H25.3968L25.4519 16.3106H25.4583L25.5134 16.3139H25.5198L25.5749 16.3172H25.5813L25.6343 16.3221H25.6407L25.6958 16.3271H25.7022L25.7552 16.332H25.7616L25.8167 16.337H25.8231L25.8761 16.3419H25.8825L25.9376 16.3485H25.944L25.997 16.3551H26.0034L26.0564 16.3617H26.0627L26.1158 16.3683L26.1221 16.3699L26.1773 16.3765L26.1836 16.3782L26.2366 16.3864L26.243 16.3881L26.296 16.3963L26.3024 16.398L26.3554 16.4062L26.3618 16.4079L26.4148 16.4161L26.4212 16.4177L26.4742 16.426L26.4805 16.4276L26.5336 16.4375L26.5399 16.4392L26.5929 16.4491L26.5993 16.4507L26.6523 16.4606L26.6587 16.4623L26.7117 16.4721L26.7181 16.4738L26.7711 16.4837L26.7775 16.4853L26.8305 16.4952L26.8368 16.4969L26.8899 16.5084L26.8962 16.5101L26.9492 16.5216L26.9556 16.5233L27.0086 16.5348L27.015 16.5364L27.068 16.548L27.0744 16.5496L27.1274 16.5612L27.1337 16.5628L27.1868 16.576L27.191 16.5777L27.244 16.5908L27.2504 16.5925L27.3034 16.6057L27.3098 16.6073L27.3628 16.6205L27.3692 16.6222L27.4222 16.6354L27.4285 16.637L27.4794 16.6518L27.4858 16.6535L27.5388 16.6683L27.5452 16.67L27.5961 16.6848L27.6024 16.6865L27.6555 16.7013L27.6597 16.7029L27.7127 16.7178L27.7191 16.7194L27.77 16.7359L27.7764 16.7376L27.8273 16.754L27.8336 16.7557L27.8845 16.7722L27.8909 16.7738L27.9418 16.7903L27.9481 16.792L27.999 16.8084L28.0033 16.8101L28.0542 16.8282L28.0605 16.8299L28.1114 16.848L28.1178 16.8497L28.1666 16.8678L28.1729 16.8694L28.2238 16.8876L28.2302 16.8892L28.279 16.9074L28.2854 16.909L28.3341 16.9271L28.3405 16.9288L28.3893 16.9486L28.3956 16.9502L28.4444 16.97L28.4508 16.9717L28.4996 16.9914L28.5059 16.9931L28.5547 17.0129L28.5611 17.0162L28.6098 17.0359L28.6141 17.0392L28.6629 17.0607L28.6692 17.064L28.718 17.0854L28.7222 17.0887L28.771 17.1101L28.7774 17.1118L28.8262 17.1332L28.8325 17.1365L28.8813 17.1579L28.8877 17.1612L28.9364 17.1827L28.9428 17.186L28.9916 17.209L28.9979 17.2123L29.0467 17.2354L29.051 17.2387L29.0998 17.2618L29.104 17.2651L29.1528 17.2882L29.1591 17.2915L29.2058 17.3145L29.2121 17.3178L29.2609 17.3426L29.2652 17.3459L29.3139 17.3706L29.3182 17.3739L29.367 17.3986L29.3712 17.4019L29.42 17.4266L29.4242 17.4299L29.4709 17.4547L29.4773 17.458L29.5239 17.4827L29.5282 17.486L29.5769 17.5124L29.5812 17.5157L29.6278 17.542L29.6321 17.5453L29.6787 17.5717L29.6851 17.575L29.7317 17.6014L29.736 17.6047L29.7827 17.6311L29.789 17.6344L29.8357 17.6624L29.8399 17.6657L29.8866 17.6937L29.8908 17.697L29.9375 17.725L29.9438 17.7283L29.9905 17.7564L29.9947 17.7597L30.0414 17.7877L30.0456 17.791L30.0923 17.819L30.0965 17.8223L30.1432 17.852L30.1474 17.8553L30.1941 17.8849L30.1983 17.8882L30.2429 17.9179L30.2492 17.9212L30.2938 17.9509L30.298 17.9542L30.3425 17.9838L30.3468 17.9871L30.3934 18.0168L30.3977 18.0201L30.4422 18.0514L30.4465 18.0547L30.491 18.0861L30.4952 18.0894L30.5377 18.1207L30.5419 18.124L30.5864 18.1553L30.5907 18.1586L30.6331 18.1899L30.6373 18.1932L30.6819 18.2245L30.6861 18.2278L30.7285 18.2608L30.7328 18.2641L30.7752 18.2971L30.7794 18.3004L30.8219 18.3333L30.8261 18.3366L30.8685 18.3696L30.8728 18.3729L30.9152 18.4059L30.9194 18.4092L30.9618 18.4421L30.9661 18.4454L31.0085 18.4801L31.0127 18.4834L31.0551 18.518L31.0594 18.5229L31.1018 18.5575L31.106 18.5625L31.1485 18.5971L31.1527 18.602L31.1951 18.6367L31.1994 18.6416L31.2397 18.6762L31.2439 18.6812L31.2842 18.7174L31.2884 18.7224L31.3287 18.7587L31.333 18.7636L31.3733 18.7999L31.3775 18.8048L31.4178 18.8411L31.422 18.846L31.4623 18.8823L31.4666 18.8872L31.5069 18.9235L31.5111 18.9285L31.5514 18.9664L31.5557 18.9713L31.596 19.0092L31.6002 19.0142L31.6405 19.0521L31.6447 19.057L31.685 19.095L31.6893 19.0999L31.7296 19.1378L31.7338 19.1428L31.7741 19.1807L31.7783 19.1856L31.8165 19.2252L31.8208 19.2301L31.8611 19.2697L31.8653 19.2747L31.9035 19.3142L31.9077 19.3192L31.9438 19.3587L31.948 19.3637L31.9841 19.4032L31.9883 19.4082L32.0244 19.4477L32.0286 19.4527L32.0646 19.4923L32.0689 19.4972L32.1049 19.5368L32.1092 19.5417L32.1452 19.5829L32.1495 19.5879L32.1855 19.6291L32.1898 19.634L32.2258 19.6752L32.2301 19.6802L32.2661 19.7214L32.2704 19.7263L32.3043 19.7676L32.3085 19.7725L32.3425 19.8137L32.3467 19.8187L32.3828 19.8599L32.387 19.8648L32.4209 19.906L32.4252 19.911L32.4591 19.9538L32.4634 19.9588L32.4973 20.0017L32.5015 20.0066L32.5355 20.0495L32.5397 20.0544L32.5736 20.0973L32.5779 20.1022L32.6118 20.1451L32.6161 20.15L32.65 20.1929L32.6542 20.1978L32.6882 20.2407L32.6924 20.2456L32.7242 20.2885L32.7285 20.2934L32.7624 20.3363L32.7666 20.3413L32.7963 20.3858L32.8006 20.3907L32.8324 20.4352L32.8366 20.4402L32.8663 20.4847L32.8706 20.4896L32.9024 20.5341L32.9066 20.5391L32.9363 20.5836L32.9405 20.5885L32.9702 20.633L32.9745 20.638L33.0042 20.6825L33.0084 20.6874L33.0381 20.732L33.0423 20.7369L33.072 20.7814L33.0763 20.7864L33.106 20.8309L33.1081 20.8358L33.1378 20.882L33.142 20.8869L33.1696 20.9331L33.1738 20.938L33.2014 20.9842L33.2056 20.9891L33.2332 21.0353L33.2375 21.0402L33.265 21.0864L33.2693 21.0913L33.2968 21.1375L33.3011 21.1424L33.3287 21.1886L33.3329 21.1935L33.3605 21.2397L33.3647 21.2446L33.3902 21.2908L33.3944 21.2958L33.422 21.3419L33.4241 21.3469L33.4495 21.393L33.4538 21.398L33.4792 21.4458L33.4814 21.4507L33.5089 21.4985L33.5111 21.5035L33.5365 21.5513L33.5386 21.5562L33.5641 21.604L33.5662 21.609L33.5895 21.6568L33.5916 21.6617L33.6171 21.7095L33.6192 21.7145L33.6425 21.7623L33.6447 21.7672L33.668 21.815L33.6722 21.82L33.6956 21.8678L33.6977 21.8727L33.721 21.9205L33.7253 21.9255L33.7465 21.9749L33.7507 21.9799L33.7719 22.0293L33.774 22.0359L33.7974 22.0854L33.7995 22.092L33.8207 22.1414L33.8228 22.148L33.844 22.1975L33.8461 22.2041L33.8673 22.2535L33.8695 22.2601L33.8907 22.3096L33.8928 22.3162L33.914 22.3656L33.9161 22.3722L33.9373 22.4217L33.9395 22.4283L33.9607 22.4777L33.9628 22.4843L33.9819 22.5338L33.984 22.5404L34.0052 22.5898L34.0073 22.5964L34.0264 22.6459L34.0285 22.6525L34.0476 22.7019L34.0497 22.7085L34.0667 22.7596L34.0688 22.7662L34.0858 22.8173L34.0879 22.8239L34.1049 22.875L34.107 22.8816L34.124 22.9327L34.1261 22.9393L34.1431 22.9904L34.1452 22.997L34.1621 23.0481L34.1643 23.0547L34.1812 23.1058L34.1833 23.1124L34.2003 23.1635L34.2024 23.1701L34.2173 23.2212L34.2194 23.2278L34.2342 23.2789L34.2364 23.2855L34.2512 23.3366L34.2533 23.3432L34.2682 23.3943L34.2703 23.4009L34.2852 23.452L34.2873 23.4586L34.3021 23.5097L34.3042 23.5163L34.3191 23.5674L34.3212 23.574L34.336 23.6268L34.3382 23.6334L34.353 23.6861L34.3551 23.6927L34.3679 23.7455L34.37 23.7521L34.3827 23.8048L34.3848 23.8114L34.3975 23.8642L34.3997 23.8708L34.4124 23.9235L34.4145 23.9301L34.4251 23.9829L34.4272 23.9895L34.4378 24.0422L34.44 24.0488L34.4506 24.1015L34.4527 24.1081L34.4633 24.1609L34.4654 24.1675L34.476 24.2202L34.4781 24.2268L34.4887 24.2796L34.4909 24.2862L34.5015 24.3389L34.5036 24.3455L34.5142 24.3983V24.4049L34.5248 24.4576L34.5269 24.4642L34.5354 24.517L34.5375 24.5236L34.546 24.5763V24.5829L34.5545 24.6357L34.5566 24.6423L34.5651 24.695L34.5672 24.7016L34.5757 24.7544L34.5778 24.761L34.5863 24.8154V24.822L34.5948 24.8764L34.5969 24.883L34.6033 24.9374L34.6054 24.9439L34.6118 24.9984V25.0049L34.6181 25.0593L34.6202 25.0659L34.6245 25.1203L34.6266 25.1269L34.6308 25.1813L34.633 25.1879L34.6372 25.2423V25.2489L34.6414 25.3033L34.6436 25.3099L34.6478 25.3643L34.6499 25.3709L34.6542 25.4253V25.4319L34.6584 25.4863L34.6605 25.4929L34.6627 25.5473L34.6648 25.5539L34.6669 25.6083V25.6149L34.6711 25.6693V25.6759L34.6733 25.7303V25.7369L34.6754 25.7913V25.7979L34.6775 25.8523V25.8589L34.6796 25.9133V25.9199L34.6817 25.9743V25.9809L34.6839 26.0353V26.0419V26.0963V26.1029V26.1573V26.1606V28.9515L34.6711 29.1147L34.633 29.2746L34.5715 29.4263L34.4845 29.5664L34.3785 29.6917L34.2533 29.7989L34.1134 29.8846L33.9607 29.9472L33.8016 29.9852L33.6383 29.9983H19.7554C19.5836 29.9983 19.4119 29.9637 19.2528 29.8978C18.9347 29.7659 18.6823 29.512 18.5487 29.1939L18.5402 29.1757C18.5084 29.1015 18.4935 29.0208 18.4957 28.94C18.4978 28.8658 18.5126 28.7933 18.5402 28.724L18.5487 28.7059C18.6802 28.3877 18.9347 28.1339 19.2528 28.002C19.4119 27.936 19.5836 27.9014 19.7554 27.9014H32.5949V26.1606L32.5927 26.1111V26.0633V26.0155L32.5906 25.9677L32.5885 25.9199L32.5864 25.8721L32.5842 25.8243L32.5821 25.7765L32.58 25.7287L32.5779 25.6808L32.5736 25.633L32.5715 25.5852L32.5673 25.5374L32.563 25.4896L32.5588 25.4418L32.5546 25.394L32.5503 25.3462L32.5461 25.2984L32.5418 25.2506L32.5355 25.2028L32.5291 25.155L32.5227 25.1072L32.5164 25.0593L32.51 25.0115L32.5015 24.9654L32.4931 24.9176L32.4846 24.8714L32.4761 24.8253L32.4676 24.7791L32.4591 24.7329L32.4506 24.6868L32.44 24.6406L32.4316 24.5945L32.4209 24.5483L32.4125 24.5021L32.4019 24.456L32.3913 24.4098L32.3807 24.3637L32.3701 24.3175L32.3594 24.2713L32.3488 24.2252L32.3361 24.179L32.3255 24.1329L32.3128 24.0867L32.3001 24.0406L32.2852 23.9944L32.2725 23.9482L32.2576 23.9037L32.2428 23.8592L32.228 23.8147L32.2131 23.7702L32.1983 23.7257L32.1834 23.6812L32.1686 23.6367L32.1537 23.5922L32.1389 23.5476L32.1219 23.5031L32.1049 23.4586L32.088 23.4141L32.071 23.3696L32.054 23.3251L32.0371 23.2806L32.0201 23.2361L32.0031 23.1916L31.9862 23.1487L31.9671 23.1058L31.948 23.063L31.9289 23.0201L31.9098 22.9773L31.8907 22.9344L31.8695 22.8915L31.8483 22.8487L31.8271 22.8058L31.8059 22.7629L31.7847 22.7201L31.7635 22.6772L31.7423 22.6344L31.719 22.5931L31.6977 22.5519L31.6765 22.5107L31.6532 22.4695L31.6299 22.4283L31.6066 22.3871L31.5832 22.3459L31.5599 22.3047L31.5366 22.2634L31.5132 22.2222L31.4899 22.181L31.4666 22.1398L31.4433 22.0986L31.4178 22.059L31.3923 22.0195L31.3669 21.9799L31.3415 21.9403L31.316 21.9008L31.2884 21.8612L31.2609 21.8216L31.2333 21.7821L31.2057 21.7425L31.1782 21.7029L31.1506 21.6634L31.123 21.6255L31.0954 21.5875L31.0679 21.5496L31.0403 21.5117L31.0106 21.4738L30.9809 21.4359L30.9533 21.398L30.9237 21.36L30.894 21.3221L30.8643 21.2842L30.8346 21.2479L30.8049 21.2117L30.7752 21.1754L30.7455 21.1391L30.7137 21.1029L30.684 21.0666L30.6522 21.0303L30.6204 20.9941L30.5886 20.9578L30.5546 20.9232L30.5228 20.8886L30.4889 20.8539L30.455 20.8193L30.421 20.7847L30.3871 20.7501L30.3531 20.7155L30.3192 20.6808L30.2853 20.6462L30.2513 20.6133L30.2174 20.5803L30.1835 20.5473L30.1496 20.5143L30.1135 20.4814L30.0774 20.4484L30.0414 20.4154L30.0053 20.3841L29.9693 20.3528L29.9332 20.3215L29.8972 20.2901L29.8611 20.2588L29.8251 20.2275L29.789 20.1962L29.753 20.1665L29.7169 20.1368L29.6809 20.1072L29.6448 20.0775L29.6066 20.0478L29.5706 20.0181L29.5324 19.9885L29.4942 19.9604L29.456 19.9324L29.4179 19.9044L29.3797 19.8764L29.3394 19.8483L29.3012 19.8203L29.2609 19.7923L29.2206 19.7659L29.1803 19.7395L29.14 19.7132L29.0998 19.6868L29.0594 19.6604L29.0192 19.634L28.9789 19.6093L28.9386 19.5846L28.8983 19.5598L28.858 19.5351L28.8177 19.5104L28.7774 19.4857L28.7371 19.4609L28.6968 19.4379L28.6565 19.4148L28.6141 19.3917L28.5738 19.3686L28.5314 19.3455L28.489 19.3225L28.4465 19.301L28.4041 19.2796L28.3617 19.2582L28.3193 19.2367L28.2769 19.2153L28.2345 19.1939L28.192 19.1741L28.1496 19.1543L28.1072 19.1345L28.0648 19.1147L28.0224 19.095L27.98 19.0752L27.9375 19.0554L27.8951 19.0373L27.8527 19.0191L27.8103 19.001L27.7658 18.9829L27.7233 18.9647L27.6788 18.9466L27.6364 18.9301L27.5918 18.9136L27.5473 18.8971L27.5049 18.8807L27.4582 18.8642L27.4158 18.8477L27.3692 18.8328L27.3246 18.818L27.2801 18.8032L27.2355 18.7883L27.1889 18.7735L27.1443 18.7587L27.0977 18.7455L27.0532 18.7323L27.0065 18.7191L26.9598 18.7059L26.9132 18.6927L26.8665 18.6795L26.8199 18.668L26.7732 18.6565L26.7266 18.6449L26.6799 18.6334L26.6332 18.6218L26.5866 18.6103L26.5399 18.6004L26.4933 18.5905L26.4466 18.5806L26.3999 18.5707L26.3533 18.5608L26.3066 18.5509L26.26 18.5427L26.2133 18.5345L26.1667 18.5262L26.12 18.518L26.0733 18.5097L26.0267 18.5031L25.98 18.4965L25.9334 18.4899L25.8867 18.4834L25.84 18.4768L25.7934 18.4702L25.7467 18.4652L25.698 18.4603L25.6513 18.4553L25.6046 18.4504L25.5559 18.4454L25.5092 18.4405L25.4604 18.4372L25.4138 18.4339L25.365 18.4306L25.3183 18.4273L25.2695 18.424L25.2229 18.4207L25.1741 18.4191L25.1253 18.4174L25.0787 18.4158L25.0299 18.4141L24.9811 18.4125H24.9323H24.8836H24.8369H24.7627H24.6906L24.6185 18.4141L24.5463 18.4158L24.4742 18.4174L24.4021 18.4207L24.33 18.424L24.2579 18.4273L24.1858 18.4322L24.1137 18.4372L24.0416 18.4421L23.9695 18.4487L23.8974 18.4553L23.8253 18.4619L23.7532 18.4702L23.6811 18.4784L23.6089 18.4867L23.5368 18.4965L23.4647 18.5064L23.3947 18.5163L23.3226 18.5262L23.2526 18.5378L23.1805 18.5493L23.1106 18.5608L23.0406 18.574L22.9706 18.5872L22.9006 18.6004L22.8306 18.6152L22.7606 18.6301L22.6928 18.6449L22.6228 18.6597L22.5549 18.6762L22.4849 18.6927L22.417 18.7092L22.3492 18.7273L22.2813 18.7455L22.2134 18.7636L22.1456 18.7817L22.0777 18.8015L22.0099 18.8213L21.942 18.8411L21.8741 18.8625L21.8063 18.8839L21.7384 18.9054L21.6705 18.9285L21.6027 18.9515L21.5369 18.9746L21.469 18.9977L21.4033 19.0224L21.3376 19.0472L21.2718 19.0719L21.2061 19.0983L21.1403 19.1246L21.0746 19.151L21.0088 19.1774L20.9431 19.2054L20.8773 19.2334L20.8116 19.2615L20.748 19.2895L20.6822 19.3192L20.6186 19.3488L20.555 19.3785L20.4913 19.4098L20.4277 19.4412L20.3641 19.4725L20.3005 19.5038L20.239 19.5368L20.1775 19.5697L20.116 19.6027L20.0545 19.6357L19.993 19.6703L19.9315 19.7049L19.8699 19.7395L19.8084 19.7758L19.7469 19.8121L19.6854 19.8483L19.6261 19.8846L19.5667 19.9225L19.5073 19.9604L19.4479 19.9984L19.3885 20.0363L19.3291 20.0758L19.2698 20.1154L19.2104 20.155L19.1531 20.1945L19.0937 20.2357L19.0365 20.277L18.9792 20.3182L18.9219 20.3594L18.8647 20.4022L18.8074 20.4451L18.7523 20.488L18.6971 20.5308L18.642 20.5753L18.5868 20.6199L18.5317 20.6644L18.4766 20.7089L18.4214 20.755L18.3684 20.8012L18.3154 20.8473L18.2602 20.8935L18.2072 20.9413L18.1542 20.9891L18.1012 21.0369L18.0482 21.0847L17.9951 21.1342L17.9421 21.1836L17.8912 21.2331L17.8403 21.2826L17.7894 21.3337L17.7385 21.3848L17.6897 21.4359L17.641 21.487L17.5922 21.5397L17.5434 21.5925L17.4946 21.6452L17.4459 21.698L17.3992 21.7524L17.3504 21.8068L17.3038 21.8612L17.2571 21.9156L17.2104 21.97L17.1638 22.026L17.1171 22.0821L17.0705 22.1381L17.0259 22.1942L16.9793 22.2519L16.9347 22.3112L16.8605 22.4085L16.8584 22.4102L16.8181 22.4629L16.816 22.4662L16.7735 22.519L16.7714 22.5223L16.729 22.575L16.7269 22.5783L16.6866 22.6311L16.6845 22.6344L16.6442 22.6871L16.6421 22.6904L16.5996 22.7432L16.5975 22.7465L16.5572 22.7976L16.5551 22.8009L16.5127 22.852L16.5106 22.8553L16.4682 22.9064L16.466 22.9097L16.4236 22.9608L16.4215 22.9641L16.3791 23.0152L16.377 23.0185L16.3345 23.0696L16.3324 23.0729L16.3218 23.0861L16.29 23.124L16.2879 23.1273L16.2455 23.1784L16.2433 23.1817L16.2009 23.2328L16.1988 23.2361L16.1564 23.2872L16.1543 23.2905L16.1119 23.3399L16.1097 23.3432L16.0673 23.3927L16.0652 23.396L16.0228 23.4454L16.0207 23.4487L15.9761 23.4982L15.974 23.5015L15.9316 23.5509L15.9295 23.5542L15.8849 23.6037L15.8828 23.607L15.8383 23.6564L15.8361 23.6597L15.7916 23.7092L15.7895 23.7125L15.745 23.762L15.7428 23.7652L15.6983 23.8131L15.6962 23.8164L15.6495 23.8642L15.6474 23.8675L15.6029 23.9153L15.6007 23.9186L15.5541 23.9664L15.552 23.9697L15.5053 24.0175L15.5032 24.0208L15.4565 24.0686L15.4544 24.0719L15.4077 24.1197L15.4056 24.123L15.359 24.1708L15.3568 24.1741L15.3102 24.2219L15.3081 24.2252L15.2614 24.2713L15.2593 24.2746L15.2126 24.3208L15.2105 24.3241L15.1638 24.3703L15.1617 24.3736L15.1151 24.4197L15.113 24.423L15.0663 24.4692L15.0642 24.4725L15.0175 24.5186L15.0154 24.5219L14.9687 24.5681L14.9666 24.5714L14.92 24.6175L14.9157 24.6208L14.8691 24.667L14.8669 24.6703L14.8182 24.7148L14.816 24.7181L14.7694 24.7626L14.7673 24.7659L14.7185 24.8104L14.7164 24.8137L14.6676 24.8582L14.6655 24.8615L14.6167 24.906L14.6146 24.9093L14.5658 24.9538L14.5615 24.9571L14.5128 25.0016L14.5106 25.0049L14.4619 25.0495L14.4597 25.0528L14.411 25.0973L14.4088 25.1006L14.3601 25.1434L14.3579 25.1467L14.3092 25.1896L14.307 25.1912L14.2583 25.2341L14.2561 25.2357L14.2074 25.2786L14.2031 25.2802L14.1543 25.3231L14.1501 25.3248L14.1013 25.3676L14.0992 25.3709L14.0504 25.4138L14.0462 25.4154L13.9974 25.4583L13.9953 25.4599L13.9465 25.5028L13.9423 25.5044L13.8935 25.5457L13.8892 25.5473L13.8405 25.5885L13.8383 25.5902L13.7874 25.6314L13.7853 25.633L13.7344 25.6742L13.7302 25.6759L13.6814 25.7171L13.6772 25.7188L13.6263 25.76L13.6241 25.7616L13.5732 25.8028L13.569 25.8045L13.5181 25.8457L13.516 25.8473L13.4651 25.8886L13.4608 25.8902L13.4099 25.9298L13.4057 25.9314L13.3548 25.971L13.3506 25.9726L13.2997 26.0122L13.2954 26.0138L13.2445 26.0534L13.2403 26.0551L13.1872 26.0946L13.1851 26.0963L13.1321 26.1358L13.13 26.1375L13.077 26.1771L13.0727 26.1787L13.0197 26.2183L13.0176 26.2199L12.9646 26.2595L12.9624 26.2611L12.9094 26.299L12.9052 26.3007L12.8522 26.3386L12.8479 26.3403L12.7949 26.3782L12.7907 26.3798L12.7376 26.4177L12.7355 26.4194L12.6825 26.4573L12.6804 26.4589L12.6274 26.4969L12.6252 26.4985L12.5722 26.5364L12.568 26.5381L12.5149 26.576L12.5128 26.5776L12.4577 26.6139L12.4556 26.6156L12.4025 26.6518L12.3983 26.6535L12.3453 26.6897L12.341 26.6914L12.288 26.7277L12.2859 26.7293L12.2308 26.7656L12.2265 26.7672L12.1735 26.8035L12.1693 26.8051L12.1141 26.8414L12.112 26.8431L12.0569 26.8793L12.0547 26.881L11.9996 26.9156L11.9953 26.9172L11.9402 26.9519L11.9381 26.9535L11.8829 26.9881L11.8808 26.9898L11.8257 27.0244L11.8214 27.026L11.7663 27.0607L11.7621 27.0623L11.7069 27.0969L11.7027 27.0986L11.6475 27.1332L11.6433 27.1348L11.5882 27.1695L11.5839 27.1711L11.5288 27.2057L11.5266 27.2074L11.4715 27.2404L11.4694 27.242L11.4142 27.275L11.41 27.2766L11.3549 27.3096L11.3527 27.3112L11.2976 27.3442L11.2934 27.3459L11.2382 27.3788L11.234 27.3805L11.1788 27.4135L11.1767 27.4151L11.1195 27.4481L11.1173 27.4497L11.0601 27.4827L11.0579 27.4843L11.0007 27.5157L10.9964 27.5173L10.9413 27.5486L10.9371 27.5503L10.8819 27.5816L10.8777 27.5832L10.8204 27.6146L10.8183 27.6162L10.761 27.6475L10.7568 27.6492L10.6995 27.6805L10.6974 27.6822L10.6401 27.7135L10.6359 27.7151L10.5786 27.7465L10.5744 27.7481L10.5171 27.7778L10.5129 27.7794L10.4556 27.8091L10.4514 27.8107L10.3941 27.8404L10.3899 27.8421L10.3326 27.8717L10.3284 27.8734L10.2711 27.9031L10.2669 27.9047L10.2096 27.9344L10.2054 27.936L10.146 27.9657L10.1439 27.9674L10.0845 27.997L10.0802 27.9987L10.0209 28.0267L10.0187 28.0284L9.95936 28.0564L9.95512 28.058L9.89574 28.0861L9.89362 28.0877L9.83423 28.1157L9.83211 28.1174L9.77273 28.1454L9.76849 28.147L9.70911 28.1751L9.70486 28.1767L9.64548 28.2047L9.64124 28.2064L9.58186 28.2344L9.57973 28.2361L9.52035 28.2624L9.51823 28.2641L9.45885 28.2905L9.45461 28.2921L9.39522 28.3185L9.39098 28.3201L9.3316 28.3465L9.32948 28.3482L9.2701 28.3745L9.26586 28.3762L9.20647 28.4026L9.20435 28.4042L9.14497 28.4306L9.14073 28.4322L9.08134 28.4586L9.0771 28.4603L9.01772 28.485L9.01348 28.4866L8.95409 28.5114L8.94985 28.513L8.89047 28.5377L8.88623 28.5394L8.82684 28.5641L8.8226 28.5658L8.76322 28.5905L8.75898 28.5922L8.6996 28.6169L8.69535 28.6185L8.63597 28.6433L8.63173 28.6449L8.57023 28.668L8.56811 28.6696L8.5066 28.6927L8.50236 28.6944L8.44086 28.7174L8.43874 28.7191L8.37723 28.7422L8.37299 28.7438L8.31149 28.7669L8.30724 28.7685L8.24786 28.7916L8.24362 28.7933L8.18212 28.8164L8.17787 28.818L8.11637 28.8411L8.11213 28.8427L8.05063 28.8642L8.04638 28.8658L7.98488 28.8872L7.98064 28.8889L7.91914 28.9103L7.91489 28.912L7.85339 28.9334L7.84915 28.935L7.78764 28.9565L7.7834 28.9581L7.7219 28.9796L7.71766 28.9812L7.65615 29.0026L7.65191 29.0043L7.59041 29.0257L7.58617 29.0274L7.52466 29.0471L7.52254 29.0488L7.46104 29.0686L7.4568 29.0702L7.39529 29.09L7.39105 29.0917L7.32955 29.1114L7.32531 29.1131L7.2638 29.1329L7.25956 29.1345L7.19806 29.1543L7.19381 29.1559L7.13231 29.1757L7.12807 29.1774L7.06657 29.1955L7.06232 29.1972L7.00082 29.2153L6.99658 29.2169L6.93508 29.2351L6.93083 29.2367L6.86933 29.2549L6.86509 29.2565L6.80359 29.2746L6.79934 29.2763L6.73784 29.2944L6.7336 29.2961L6.67209 29.3142L6.66785 29.3159L6.60423 29.3323L6.59999 29.334L6.53848 29.3505L6.53424 29.3521L6.47062 29.3686L6.46638 29.3703L6.40487 29.3867L6.40063 29.3884L6.33701 29.4049L6.33276 29.4065L6.26914 29.423L6.26702 29.4247L6.20339 29.4411L6.19915 29.4428L6.13553 29.4593L6.13128 29.4609L6.06766 29.4758L6.06342 29.4774L5.9998 29.4922L5.99767 29.4939L5.93405 29.5087L5.92981 29.5104L5.86618 29.5252L5.86194 29.5269L5.7962 29.5417H5.79407L5.72833 29.5565H5.72409L5.66046 29.5714H5.65622L5.5926 29.5846H5.58836L5.52473 29.5978H5.52049L5.45687 29.6109H5.45262L5.38688 29.6241H5.38264L5.31901 29.6373H5.31477L5.24902 29.6505H5.24478L5.18116 29.6637H5.17692L5.11117 29.6769H5.10693L5.04331 29.6884H5.03906L4.97332 29.7H4.96908L4.90333 29.7115H4.90121L4.83547 29.723H4.83122L4.76548 29.7346H4.76124L4.69549 29.7461H4.69125L4.6255 29.7577H4.62126L4.55552 29.7676H4.55128L4.48553 29.7774H4.48129L4.41554 29.7873H4.4113L4.34556 29.7972H4.34131L4.27557 29.8071H4.27133L4.20558 29.817H4.20134L4.1356 29.8269H4.13135L4.06561 29.8351H4.06349L3.99774 29.8434H3.9935L3.92775 29.8516H3.92351L3.85777 29.8599H3.85565L3.7899 29.8681H3.78566L3.71992 29.8764H3.71567L3.64993 29.8846H3.64569L3.57994 29.8912H3.5757L3.50995 29.8978H3.50571L3.43997 29.9044H3.43573L3.36998 29.911H3.36574L3.29999 29.9176H3.29575L3.23001 29.9242H3.22576L3.16002 29.9308H3.15578L3.09003 29.9357H3.08579L3.02005 29.9406H3.0158L2.95006 29.9456H2.94582L2.88007 29.9505H2.87583L2.81008 29.9555H2.80584L2.7401 29.9604H2.73798L2.67223 29.9654H2.66799L2.60224 29.9687H2.598L2.53014 29.972H2.52589L2.46015 29.9753H2.45591L2.39016 29.9786H2.38592L2.32018 29.9819H2.31593L2.25019 29.9852H2.24595L2.1802 29.9885H2.17596L2.10809 29.9901H2.10385L2.03811 29.9918H2.03387L1.96812 29.9934H1.96388L1.89813 29.9951H1.89389L1.82602 29.9967H1.82178L1.75604 29.9983H1.7518L1.68605 30H1.68181H1.61394H1.6097H1.54396H1.53971H1.47185H1.46973H1.04768L0.88438 29.9868L0.725319 29.9489L0.572621 29.8862L0.432647 29.8005L0.307519 29.6934L0.201478 29.5681L0.114525 29.428L0.0530205 29.2763L0.0148447 29.1164L0 28.9532V28.9499L0.0021203 28.8988V28.8922V28.8411V28.8345L0.0042406 28.7834V28.7768L0.00636349 28.7257V28.7191L0.00848379 28.668V28.6614L0.0106041 28.6103L0.0127244 28.6037L0.0148447 28.5526V28.546L0.0169676 28.4949L0.0190879 28.4883L0.0212082 28.4372V28.4306L0.0233285 28.3795L0.0254488 28.3729L0.0275717 28.3218L0.029692 28.3152L0.0339326 28.2641V28.2575L0.0381758 28.2064V28.1998L0.0424164 28.1487V28.1421L0.046657 28.091V28.0844L0.0509002 28.0333L0.0530205 28.0267L0.0572611 27.9756V27.969L0.0636245 27.9179V27.9113L0.069988 27.8602V27.8536L0.0763489 27.8025L0.0784692 27.7959L0.0848327 27.7448V27.7382L0.0933165 27.6871V27.6805L0.1018 27.6311L0.103921 27.6245L0.110282 27.575L0.112404 27.5684L0.120886 27.519L0.123008 27.5124L0.13149 27.4629L0.133613 27.4563L0.142094 27.4069L0.144217 27.4003L0.152698 27.3508L0.154821 27.3442L0.163302 27.2948L0.165425 27.2882L0.173906 27.2387L0.176029 27.2321L0.18451 27.1827L0.186633 27.1761L0.197237 27.1266L0.199357 27.12L0.209962 27.0706L0.212082 27.064L0.222686 27.0145L0.224806 27.0079L0.23541 26.9585L0.237531 26.9519L0.248135 26.9024L0.250258 26.8958L0.260862 26.8464L0.262982 26.8398L0.273586 26.7903L0.275706 26.7837L0.288431 26.7343L0.290551 26.7277L0.303278 26.6782L0.305398 26.6716L0.318123 26.6222L0.320243 26.6156L0.332967 26.5661L0.33509 26.5595L0.347815 26.5101L0.349935 26.5035L0.362659 26.4557L0.36478 26.4491L0.377507 26.4013L0.379627 26.3947L0.394472 26.3469L0.396592 26.3403L0.411439 26.2924L0.41356 26.2859L0.428404 26.238L0.430527 26.2315L0.445372 26.1836L0.447492 26.1771L0.462339 26.1292L0.46446 26.1226L0.479304 26.0748L0.481425 26.0682L0.496272 26.0204L0.498392 26.0138L0.513237 25.966L0.51536 25.9594L0.532325 25.9116L0.534445 25.905L0.551413 25.8572L0.553533 25.8506L0.570501 25.8028L0.572621 25.7962L0.589588 25.7484L0.591709 25.7418L0.608674 25.694L0.610797 25.6874L0.627762 25.6396L0.629882 25.633L0.64685 25.5869L0.64897 25.5803L0.665937 25.5341L0.668058 25.5275L0.687146 25.4814L0.689266 25.4748L0.708354 25.4286L0.710474 25.422L0.727442 25.3759L0.729562 25.3693L0.75077 25.3231L0.75289 25.3165L0.771978 25.2704L0.774099 25.2638L0.795307 25.2176L0.797427 25.211L0.818635 25.1649L0.820756 25.1583L0.841964 25.1121L0.844087 25.1055L0.865295 25.0593L0.869535 25.0528L0.890744 25.0066L0.892864 25.0016L0.914072 24.9555L0.916192 24.9505L0.937401 24.9044L0.939524 24.8978L0.962852 24.8533L0.964972 24.8483L0.98618 24.8038L0.990421 24.7989L1.01163 24.7544L1.01375 24.7494L1.03708 24.7049L1.04132 24.7L1.06465 24.6555L1.06677 24.6505L1.0901 24.606L1.09434 24.6011L1.11767 24.5565L1.12191 24.5516L1.14524 24.5071L1.14948 24.5021L1.17281 24.4576L1.17493 24.4527L1.19826 24.4082L1.2025 24.4032L1.22583 24.3587L1.23007 24.3538L1.2534 24.3093L1.25765 24.3043L1.2831 24.2615L1.28522 24.2565L1.31067 24.2137L1.31491 24.2087L1.34036 24.1658L1.3446 24.1609L1.37005 24.118L1.37429 24.1131L1.40186 24.0702L1.40398 24.0653L1.43155 24.0224L1.43579 24.0175L1.46336 23.9746L1.46761 23.9697L1.49518 23.9268L1.49942 23.9219L1.52699 23.879L1.53123 23.8741L1.5588 23.8312L1.56092 23.8262L1.58849 23.7834L1.59273 23.7784L1.62031 23.7372L1.62455 23.7323L1.65212 23.6911L1.65636 23.6861L1.68605 23.6449L1.69029 23.64L1.71998 23.5987L1.72423 23.5938L1.75392 23.5526L1.75816 23.5476L1.78785 23.5064L1.79209 23.5015L1.82178 23.4603L1.82602 23.4553L1.85572 23.4141L1.85996 23.4092L1.88965 23.368L1.89389 23.363L1.92358 23.3218L1.92782 23.3168L1.95752 23.2773L1.96176 23.2723L1.99145 23.2328L1.99569 23.2278L2.02538 23.1883L2.02962 23.1833L2.06143 23.1438L2.06568 23.1388L2.09749 23.0992L2.10173 23.0943L2.13354 23.0547L2.13779 23.0498L2.17172 23.0102L2.17596 23.0053L2.20777 22.9657L2.21201 22.9608L2.24595 22.9212L2.25019 22.9163L2.28412 22.8783L2.28836 22.8734L2.3223 22.8355L2.32654 22.8305L2.36047 22.7926L2.36471 22.7877L2.39864 22.7498L2.40289 22.7448L2.43682 22.7069L2.44106 22.7019L2.47499 22.664L2.47924 22.6591L2.51529 22.6212L2.51953 22.6162L2.55559 22.5783L2.55983 22.5734L2.59588 22.5371L2.60012 22.5321L2.63618 22.4959L2.64042 22.4909L2.67647 22.4547L2.68071 22.4497L2.71677 22.4135L2.72101 22.4085L2.75706 22.3722L2.7613 22.3673L2.79736 22.331L2.8016 22.3261L2.83766 22.2898L2.8419 22.2849L2.87795 22.2486L2.88219 22.2437L2.91825 22.209L2.92249 22.2041L2.95854 22.1695L2.96278 22.1645L3.00096 22.1299L3.0052 22.125L3.04337 22.0903L3.04761 22.0854L3.08367 22.0508L3.08791 22.0458L3.12609 22.0112L3.13033 22.0063L3.1685 21.9716L3.17274 21.9667L3.21304 21.9337L3.21728 21.9288L3.25546 21.8958L3.2597 21.8909L3.29787 21.8579L3.30211 21.853L3.34241 21.82L3.34665 21.815L3.38695 21.7821L3.39119 21.7771L3.43148 21.7441L3.43573 21.7392L3.47602 21.7079L3.48026 21.7046L3.52056 21.6733L3.5248 21.67L3.56509 21.6386L3.56934 21.6353L3.60963 21.604L3.61387 21.6007L3.65417 21.5694L3.65841 21.5661L3.69871 21.5348L3.70295 21.5315L3.74324 21.5018L3.74748 21.4985L3.78778 21.4688L3.79202 21.4655L3.83232 21.4359L3.83656 21.4326L3.87686 21.4029L3.8811 21.3996L3.92351 21.3699L3.92775 21.3666L3.96805 21.337L3.97441 21.3337L4.01471 21.304L4.01895 21.3007L4.06137 21.2727L4.06561 21.2694L4.10802 21.2413L4.11227 21.2381L4.15468 21.21L4.16104 21.2067L4.20346 21.1787L4.2077 21.1754L4.25012 21.1474L4.25436 21.1441L4.29678 21.1161L4.30102 21.1128L4.34344 21.0864L4.34768 21.0831L4.39009 21.0567L4.39433 21.0534L4.43675 21.027L4.44311 21.0237L4.48553 20.9974L4.48977 20.9941L4.53219 20.9677L4.53643 20.9644L4.57885 20.938L4.58521 20.9347L4.62762 20.91L4.63187 20.9067L4.6764 20.882L4.68064 20.8787L4.72306 20.8539L4.72942 20.8506L4.77184 20.8259L4.7782 20.8226L4.82274 20.7979L4.82698 20.7946L4.87152 20.7699L4.87576 20.7666L4.9203 20.7435L4.92454 20.7402L4.96908 20.7171L4.97544 20.7138L5.01998 20.6907L5.02422 20.6874L5.07088 20.6644L5.07512 20.6611L5.11966 20.638L5.12602 20.6347L5.17056 20.6116L5.17692 20.6083L5.22145 20.5869L5.22782 20.5836L5.27447 20.5622L5.27872 20.5589L5.32537 20.5374L5.32962 20.5341L5.37627 20.5127L5.38264 20.5094L5.42929 20.488L5.43354 20.4847L5.48019 20.4632L5.48656 20.4599L5.53322 20.4402L5.53958 20.4369L5.58624 20.4171L5.59048 20.4138L5.63714 20.394L5.64138 20.3907L5.68803 20.3709L5.69228 20.3693L5.73893 20.3495L5.7453 20.3462L5.79195 20.3264L5.79832 20.3248L5.84497 20.3066L5.84922 20.305L5.89587 20.2868L5.90224 20.2852L5.94889 20.2671L5.95526 20.2654L6.00192 20.2473L6.00828 20.2456L6.05494 20.2275L6.0613 20.2259L6.10796 20.2077L6.1122 20.2061L6.16098 20.1896L6.16522 20.1879L6.214 20.1715L6.21824 20.1698L6.26702 20.1533L6.27338 20.1517L6.32004 20.1352L6.3264 20.1335L6.37306 20.1171L6.37942 20.1154L6.4282 20.1006L6.43456 20.0989L6.48122 20.0841L6.48758 20.0824L6.53636 20.0676L6.54272 20.0659L6.58938 20.0511L6.59574 20.0495L6.64452 20.0346L6.65089 20.033L6.69967 20.0181L6.70603 20.0165L6.75481 20.0033L6.76117 20.0017L6.80995 19.9885L6.81631 19.9868L6.86509 19.9736L6.87145 19.972L6.92023 19.9588L6.92659 19.9571L6.97537 19.944L6.98173 19.9423L7.03051 19.9291L7.03688 19.9275L7.08565 19.9159L7.09202 19.9143L7.14079 19.9027L7.14504 19.9011L7.19381 19.8896L7.20018 19.8879L7.24896 19.8764L7.25532 19.8747L7.3041 19.8632L7.31046 19.8615L7.35924 19.8516L7.3656 19.85L7.41438 19.8401L7.42074 19.8384L7.46952 19.8286L7.47588 19.8269L7.52466 19.817L7.53103 19.8154L7.5798 19.8055L7.58617 19.8038L7.63495 19.7939L7.64131 19.7923L7.69009 19.784L7.69645 19.7824L7.74523 19.7742L7.75159 19.7725L7.80037 19.7643L7.80673 19.7626L7.85763 19.7544L7.86399 19.7527L7.91277 19.7445L7.91914 19.7428L7.96791 19.7362L7.97428 19.7346L8.02518 19.728L8.03154 19.7263L8.08244 19.7198H8.0888L8.13758 19.7132H8.14394L8.19484 19.7066H8.2012L8.24998 19.7016H8.25635L8.30724 19.6967H8.31361L8.36451 19.6917H8.37087L8.42177 19.6868H8.42813L8.47903 19.6818H8.48539L8.53629 19.6769H8.54266L8.59355 19.6736H8.59992L8.65082 19.6703H8.65718L8.70808 19.667H8.71444L8.76534 19.6637H8.7717L8.8226 19.6604H8.82897L8.87986 19.6588H8.88623L8.93713 19.6571H8.94561L8.99651 19.6555H9.00287L9.05377 19.6538H9.06013L9.11103 19.6522H9.1174H9.17042H9.17678H9.22768H9.23404H9.28494H9.28918L16.4469 19.6654H16.4491L16.4533 19.6604L16.5106 19.606L16.5148 19.6011L16.5721 19.5467L16.5784 19.5417L16.6357 19.4873L16.6399 19.4824L16.6993 19.4296L16.7057 19.4247L16.7651 19.3719L16.7693 19.367L16.8287 19.3142L16.8351 19.3093L16.8944 19.2582L16.9008 19.2532L16.9602 19.2021L16.9665 19.1972L17.0259 19.1461L17.0323 19.1411L17.0917 19.09L17.0959 19.0851L17.1574 19.0356L17.1638 19.0307L17.2232 18.9812L17.2295 18.9763L17.291 18.9268L17.2974 18.9219L17.3589 18.8724L17.3653 18.8675L17.4268 18.8197L17.431 18.8147L17.4925 18.7669L17.4989 18.762L17.5604 18.7142L17.5667 18.7092L17.6282 18.663L17.6346 18.6581L17.6961 18.6119L17.7025 18.607L17.7661 18.5608L17.7725 18.5559L17.8361 18.5097L17.8424 18.5048L17.9061 18.4603L17.9124 18.4553L17.9782 18.4108L17.9824 18.4059L18.0482 18.3614L18.0545 18.3564L18.1203 18.3136L18.1266 18.3086L18.1924 18.2657L18.1966 18.2625L18.2624 18.2196L18.2687 18.2163L18.3345 18.1734L18.3408 18.1701L18.4066 18.1289L18.4129 18.1256L18.4787 18.0844L18.4851 18.0811L18.5508 18.0399L18.5572 18.0366L18.625 17.997L18.6314 17.9937L18.6993 17.9542L18.7056 17.9509L18.7735 17.9113L18.7798 17.908L18.8477 17.8685L18.8562 17.8652L18.9241 17.8272L18.9304 17.8239L18.9983 17.786L19.0047 17.7827L19.0725 17.7448L19.0789 17.7415L19.1467 17.7052L19.1531 17.702L19.2231 17.6657L19.2295 17.6624L19.2994 17.6261L19.3058 17.6228L19.3737 17.5882L19.3822 17.5849L19.4521 17.5503L19.4585 17.547L19.5285 17.5124L19.5349 17.5091L19.607 17.4745L19.6133 17.4712L19.6833 17.4382L19.6918 17.4349L19.7618 17.4019L19.7703 17.3986L19.8424 17.3657L19.8487 17.3624L19.9208 17.331L19.9272 17.3277L19.9993 17.2964L20.0078 17.2931L20.0799 17.2618L20.0884 17.2585L20.1605 17.2288L20.169 17.2255L20.2411 17.1959L20.2475 17.1926L20.3196 17.1629L20.3259 17.1596L20.398 17.1316L20.4065 17.1283L20.4786 17.1002L20.4871 17.0969L20.5592 17.0689L20.5656 17.0656L20.6398 17.0376L20.6483 17.0343L20.7204 17.0079L20.7289 17.0046L20.8031 16.9782L20.8095 16.9749L20.8837 16.9486L20.8901 16.9453L20.9643 16.9205L20.9728 16.9189L21.047 16.8942L21.0555 16.8925L21.1297 16.8678L21.1382 16.8661L21.2124 16.8431L21.2188 16.8414L21.293 16.8183L21.3015 16.8167L21.3757 16.7936L21.3821 16.792L21.4563 16.7705L21.4648 16.7689L21.539 16.7475L21.5475 16.7458L21.6217 16.7244L21.6302 16.7227L21.7066 16.7029L21.7129 16.7013L21.7893 16.6815L21.7978 16.6799L21.872 16.6601L21.8805 16.6584L21.9568 16.6403L21.9653 16.6386L22.0417 16.6205L22.0501 16.6189L22.1265 16.6007L22.1329 16.5991L22.2113 16.5826L22.2198 16.581L22.2962 16.5645L22.3046 16.5628L22.381 16.5463L22.3895 16.5447L22.4679 16.5298L22.4764 16.5282L22.5528 16.5134L22.5613 16.5117L22.6397 16.4969L22.6482 16.4952L22.7267 16.482L22.7352 16.4804L22.8136 16.4672L22.8221 16.4656L22.9006 16.4524L22.9091 16.4507L22.9875 16.4392L22.996 16.4375L23.0745 16.426L23.083 16.4243L23.1615 16.4128L23.1678 16.4112L23.2463 16.4013L23.2548 16.3996L23.3332 16.3897L23.3417 16.3881L23.4202 16.3782L23.4287 16.3765L23.5071 16.3683H23.5156L23.5941 16.36H23.6026L23.6811 16.3518H23.6895L23.768 16.3452H23.7765L23.855 16.3386H23.8634L23.9419 16.332H23.9504L24.031 16.3271H24.0395L24.1179 16.3221H24.1264L24.207 16.3172H24.2155L24.294 16.3139H24.3025L24.383 16.3106H24.3915L24.4721 16.3073H24.4806L24.5591 16.3056H24.5676L24.6481 16.304H24.6566L24.7372 16.3023H24.7457H24.8263H24.8305H24.8454V16.2958ZM9.2913 21.7409H9.24677H9.20011L9.15557 21.7425L9.11103 21.7441L9.0665 21.7458L9.02196 21.7474L8.97742 21.7491L8.93289 21.7507L8.88835 21.754L8.84381 21.7573L8.8014 21.7606L8.75686 21.7639L8.71232 21.7672L8.66778 21.7705L8.62325 21.7755L8.58083 21.7804L8.53629 21.7854L8.49388 21.7903L8.44934 21.7953L8.4048 21.8002L8.36239 21.8068L8.31785 21.8134L8.27543 21.82L8.23302 21.8266L8.18848 21.8332L8.14606 21.8398L8.10365 21.848L8.06123 21.8563L8.01881 21.8645L7.9764 21.8727L7.93186 21.881L7.88944 21.8892L7.84703 21.8975L7.80461 21.9074L7.76219 21.9172L7.71978 21.9271L7.67736 21.937L7.63495 21.9469L7.59253 21.9568L7.55011 21.9684L7.5077 21.9799L7.46528 21.9914L7.42286 22.003L7.38045 22.0145L7.33803 22.026L7.29562 22.0376L7.2532 22.0508L7.21078 22.064L7.17049 22.0772L7.12807 22.0903L7.08565 22.1035L7.04324 22.1167L7.00082 22.1316L6.96052 22.1464L6.91811 22.1612L6.87781 22.1761L6.8354 22.1909L6.7951 22.2057L6.75481 22.2206L6.71239 22.2371L6.67209 22.2535L6.6318 22.27L6.5915 22.2865L6.55121 22.303L6.51091 22.3195L6.47062 22.3376L6.43032 22.3558L6.39003 22.3739L6.34973 22.392L6.30943 22.4102L6.26914 22.4283L6.22884 22.4464L6.18855 22.4662L6.15037 22.486L6.11008 22.5058L6.06978 22.5256L6.02949 22.5453L5.98919 22.5651L5.95102 22.5849L5.91072 22.6063L5.87255 22.6278L5.83437 22.6492L5.7962 22.6706L5.75802 22.6921L5.71985 22.7135L5.68167 22.7349L5.6435 22.758L5.60532 22.7811L5.56927 22.8042L5.53109 22.8272L5.49504 22.8503L5.45899 22.8734L5.42081 22.8965L5.38476 22.9212L5.3487 22.9459L5.31265 22.9707L5.2766 22.9954L5.24054 23.0201L5.20449 23.0448L5.16843 23.0696L5.13238 23.0959L5.09633 23.1223L5.06027 23.1487L5.02422 23.1751L4.99029 23.2015L4.95423 23.2278L4.91818 23.2542L4.88425 23.2822L4.85031 23.3103L4.81426 23.3383L4.78032 23.3663L4.74639 23.3943L4.71246 23.4224L4.67852 23.4504L4.64459 23.4801L4.61066 23.5097L4.57673 23.5394L4.54279 23.5691L4.50886 23.5987L4.47705 23.6284L4.44311 23.6581L4.40918 23.6878L4.37525 23.7191L4.34344 23.7504L4.31162 23.7817L4.27981 23.8131L4.248 23.8444L4.21619 23.8757L4.18438 23.907L4.15468 23.94L4.12499 23.973L4.09318 24.0059L4.06349 24.0389L4.0338 24.0719L4.00411 24.1048L3.97441 24.1378L3.94472 24.1708L3.91503 24.2038L3.88534 24.2367L3.85777 24.2697L3.82808 24.3043L3.80051 24.3389L3.77082 24.3736L3.74324 24.4082L3.71567 24.4428L3.6881 24.4774L3.66053 24.512L3.63296 24.5467L3.60539 24.5813L3.57782 24.6159L3.55025 24.6522L3.5248 24.6884L3.49723 24.7247L3.47178 24.761L3.44633 24.7972L3.42088 24.8335L3.39543 24.8698L3.3721 24.906L3.34665 24.9423L3.32332 24.9786L3.29999 25.0148L3.27666 25.0511L3.25334 25.0874L3.23001 25.1253L3.20668 25.1632L3.18335 25.2011L3.16002 25.239L3.13881 25.277L3.11548 25.3149L3.09427 25.3528L3.07095 25.3907L3.04974 25.4286L3.02853 25.4665L3.00732 25.5044L2.98611 25.5424L2.9649 25.5819L2.9437 25.6215L2.92249 25.6611L2.90128 25.7006L2.88219 25.7402L2.8631 25.7798L2.8419 25.8193L2.82493 25.8589L2.80584 25.8984L2.78888 25.938L2.76979 25.9776L2.75282 26.0171L2.73586 26.0567L2.71889 26.0963L2.70192 26.1375L2.68496 26.1787L2.66799 26.2199L2.65102 26.2611L2.63406 26.3023L2.61709 26.3436L2.60224 26.3848L2.5874 26.426L2.57255 26.4672L2.55771 26.5084L2.54286 26.5496L2.52801 26.5908L2.51317 26.632L2.49832 26.6733L2.48348 26.7145L2.47075 26.7557L2.45591 26.7969L2.44318 26.8381L2.43046 26.881L2.41985 26.9238L2.40713 26.9667L2.39652 27.0096L2.38592 27.0524L2.37532 27.0953L2.36471 27.1381L2.35411 27.181L2.3435 27.2239L2.3329 27.2667L2.3223 27.3096L2.31169 27.3525L2.30321 27.3953L2.2926 27.4382L2.28412 27.481L2.27564 27.5239L2.26716 27.5668L2.25867 27.6096L2.25019 27.6525L2.2417 27.6953L2.23322 27.7382L2.22474 27.7811L2.21838 27.8239L2.21201 27.8684L2.20989 27.8701L2.25867 27.8684L2.32018 27.8651L2.38168 27.8618L2.44318 27.8586L2.50469 27.8553L2.56619 27.852L2.62981 27.8487L2.69132 27.8437L2.75282 27.8388L2.81432 27.8338L2.87583 27.8289L2.93733 27.8239L2.99884 27.819L3.06034 27.814L3.12184 27.8091L3.18335 27.8025L3.24485 27.7959L3.30636 27.7893L3.36786 27.7827L3.42936 27.7761L3.49087 27.7695L3.55237 27.7629L3.61387 27.7547L3.67538 27.7465L3.73688 27.7382L3.79839 27.73L3.85989 27.7217L3.92139 27.7135L3.9829 27.7052L4.0444 27.6953L4.1059 27.6855L4.16741 27.6756L4.22891 27.6657L4.29042 27.6558L4.35192 27.6459L4.41342 27.636L4.47493 27.6261L4.53643 27.6146L4.59794 27.603L4.65732 27.5915L4.71882 27.58L4.78032 27.5684L4.84183 27.5569L4.90121 27.5453L4.96271 27.5338L5.0221 27.5206L5.0836 27.5074L5.1451 27.4942L5.20449 27.481L5.26387 27.4679L5.32537 27.4547L5.38476 27.4415L5.44414 27.4266L5.50352 27.4118L5.56291 27.397L5.62441 27.3821L5.68379 27.3673L5.74318 27.3525L5.80256 27.3376L5.86194 27.3228L5.92132 27.3063L5.98071 27.2898L6.04009 27.2733L6.09947 27.2568L6.15886 27.2404L6.21824 27.2239L6.27762 27.2074L6.33701 27.1909L6.39639 27.1744L6.45577 27.1563L6.51515 27.1381L6.57454 27.12L6.63392 27.1019L6.6933 27.0837L6.75269 27.0656L6.81207 27.0475L6.87145 27.0277L6.93083 27.0079L6.99022 26.9881L7.0496 26.9683L7.10686 26.9486L7.16625 26.9288L7.22563 26.909L7.28289 26.8892L7.34227 26.8678L7.39954 26.8464L7.4568 26.8249L7.51618 26.8035L7.57344 26.7821L7.63071 26.7606L7.68797 26.7392L7.74523 26.7178L7.80249 26.6947L7.85975 26.6716L7.91702 26.6485L7.97428 26.6255L8.02942 26.6024L8.08668 26.5793L8.14182 26.5562L8.19908 26.5331L8.25422 26.5084L8.31149 26.4837L8.36663 26.4589L8.42177 26.4342L8.47691 26.4095L8.53205 26.3848L8.58719 26.36L8.64233 26.3353L8.69747 26.3106L8.75262 26.2842L8.80776 26.2578L8.8629 26.2315L8.91804 26.2051L8.97318 26.1787L9.02832 26.1523L9.08347 26.1259L9.13861 26.0996L9.19375 26.0715L9.24889 26.0435L9.30403 26.0155L9.35917 25.9875L9.41219 25.9594L9.46733 25.9314L9.52247 25.9034L9.57549 25.8754L9.63064 25.8457L9.68578 25.816L9.7388 25.7863L9.79182 25.7567L9.84696 25.727L9.89998 25.6973L9.953 25.6677L10.006 25.638L10.059 25.6083L10.1121 25.5786L10.1651 25.5473L10.2181 25.516L10.2711 25.4847L10.3241 25.4533L10.3772 25.422L10.4302 25.3907L10.4832 25.3594L10.5362 25.3281L10.5892 25.2951L10.6423 25.2621L10.6953 25.2291L10.7483 25.1962L10.8013 25.1632L10.8522 25.1302L10.9052 25.0973L10.9561 25.0643L11.007 25.0313L11.0601 24.9967L11.111 24.9621L11.1619 24.9275L11.2128 24.8928L11.2637 24.8582L11.3146 24.8236L11.3633 24.789L11.4142 24.7544L11.4651 24.7197L11.5139 24.6835L11.5627 24.6472L11.6136 24.6109L11.6624 24.5747L11.7112 24.5384L11.7599 24.5021L11.8087 24.4659L11.8575 24.4296L11.9063 24.3933L11.9551 24.3554L12.0038 24.3175L12.0526 24.2796L12.1014 24.2417L12.1502 24.2038L12.1989 24.1658L12.2477 24.1279L12.2965 24.09L12.3432 24.0521L12.3919 24.0125L12.4407 23.973L12.4874 23.9334L12.534 23.8938L12.5828 23.8543L12.6295 23.8147L12.6761 23.7751L12.7228 23.7356L12.7694 23.696L12.8161 23.6548L12.8628 23.6136L12.9094 23.5724L12.9561 23.5312L13.0027 23.4899L13.0494 23.4487L13.0961 23.4075L13.1406 23.3663L13.1872 23.3251L13.2339 23.2839L13.2806 23.241L13.3251 23.1982L13.3718 23.1553L13.4163 23.1124L13.4608 23.0696L13.5054 23.0267L13.5499 22.9838L13.5944 22.941L13.639 22.8981L13.6814 22.8536L13.7259 22.8091L13.7684 22.7646L13.8129 22.7201L13.8553 22.6756L13.8977 22.6311L13.9401 22.5865L13.9826 22.542L14.025 22.4975L14.0674 22.453L14.1098 22.4069L14.1522 22.3607L14.1946 22.3145L14.2371 22.2684L14.2795 22.2222L14.3219 22.1761L14.3643 22.1299L14.4067 22.0837L14.447 22.0376L14.4873 21.9914L14.5297 21.9436L14.57 21.8958L14.6103 21.848L14.6506 21.8002L14.6909 21.7524L14.693 21.7491L9.3316 21.7392H9.2913V21.7409Z" fill="#4A12C0"/>
<path fill-rule="evenodd" clip-rule="evenodd" d="M11.3335 9.33871H11.3454H11.3906H11.4025L11.4478 9.34109H11.4621L11.5073 9.34347H11.5192L11.5644 9.34586H11.5763L11.6215 9.34824H11.6358L11.6787 9.353H11.693L11.7382 9.35776L11.7501 9.36014L11.7929 9.3649L11.8072 9.36728L11.8501 9.37204L11.862 9.37442L11.9072 9.37918L11.9191 9.38156L11.9619 9.3887L11.9738 9.39108L12.0191 9.39822L12.031 9.4006L12.0738 9.40774L12.0857 9.41013L12.1286 9.41727L12.1405 9.41965L12.1809 9.42917L12.1928 9.43155L12.2357 9.44107L12.2476 9.44345L12.2904 9.45297L12.3023 9.45535L12.3428 9.46487L12.3547 9.46725L12.3952 9.47677L12.4071 9.47915L12.4475 9.49106L12.4594 9.49344L12.4999 9.50534L12.5118 9.5101L12.5523 9.522L12.5642 9.52676L12.6046 9.53866L12.6165 9.54342L12.657 9.55533L12.6689 9.56009L12.7094 9.57437L12.7213 9.57913L12.7617 9.59341L12.7736 9.59817L12.8141 9.61245L12.826 9.61721L12.8665 9.6315L12.8784 9.63626L12.9188 9.65054L12.9307 9.6553L12.9712 9.67196L12.9831 9.67672L13.0236 9.69339L13.0355 9.69815L13.0736 9.71481L13.0855 9.71957L13.1259 9.73623L13.1378 9.74099L13.1759 9.75766L13.1878 9.76242L13.2259 9.78146L13.2378 9.78622L13.2759 9.80526L13.2878 9.81002L13.3259 9.82907L13.3378 9.83383L13.3759 9.85287L13.3878 9.86001L13.4258 9.87905L13.4377 9.8862L13.4758 9.90762L13.4877 9.91476L13.5234 9.93618L13.5353 9.94332L13.571 9.96475L13.583 9.97189L13.6187 9.99331L13.6306 10.0005L13.6663 10.0219L13.6758 10.029L13.7115 10.0504L13.721 10.0576L13.7567 10.0814L13.7662 10.0885L13.8019 10.1123L13.8115 10.1195L13.8448 10.1433L13.8543 10.1504L13.8876 10.1742L13.8995 10.1814L13.9329 10.2052L13.9424 10.2123L13.9757 10.2361L13.9852 10.2432L14.0186 10.2694L14.0281 10.2766L14.0614 10.3028L14.0709 10.3099L14.1019 10.3361L14.1114 10.3432L14.1447 10.3694L14.1542 10.3765L14.1852 10.4027L14.1947 10.4099L14.2256 10.4361L14.2352 10.4432L14.2661 10.4718L14.2756 10.4789L14.3066 10.5075L14.3161 10.517L14.347 10.5456L14.3566 10.5551L14.3875 10.5836L14.397 10.5932L14.428 10.6217L14.4375 10.6312L14.4684 10.6598L14.478 10.6693L14.5089 10.6979L14.5184 10.7074L14.547 10.7384L14.5565 10.7479L14.5851 10.7788L14.5946 10.7883L14.6232 10.8193L14.6327 10.8288L14.6589 10.8598L14.6684 10.8693L14.6946 10.9002L14.7041 10.9097L14.7303 10.9407L14.7398 10.9502L14.766 10.9812L14.7731 10.9907L14.7993 11.024L14.8065 11.0335L14.8326 11.0668L14.8422 11.0764L14.8683 11.1097L14.8755 11.1192L14.9017 11.1525L14.9088 11.1621L14.9326 11.1954L14.9421 11.2049L14.9659 11.2382L14.9731 11.2478L14.9969 11.2811L15.004 11.2906L15.0278 11.3263L15.035 11.3358L15.0588 11.3715L15.0659 11.3811L15.0897 11.4168L15.0969 11.4263L15.1207 11.462L15.1254 11.4739L15.1492 11.5096L15.154 11.5215L15.1778 11.5572L15.1825 11.5691L15.204 11.6048L15.2087 11.6167L15.2302 11.6524L15.2349 11.6643L15.254 11.7L15.2611 11.7119L15.2801 11.75L15.2849 11.7619L15.3039 11.8L15.3087 11.8119L15.3277 11.85L15.3325 11.8619L15.3516 11.9L15.3563 11.9119L15.3754 11.95L15.3801 11.9619L15.3968 11.9999L15.4015 12.0118L15.4182 12.0499L15.423 12.0618L15.4396 12.0999L15.4444 12.1118L15.461 12.1499L15.4658 12.1618L15.4825 12.2023L15.4872 12.2142L15.5039 12.2546L15.5087 12.2665L15.5229 12.307L15.5277 12.3189L15.542 12.3594L15.5467 12.3713L15.5586 12.4117L15.5634 12.4236L15.5777 12.4641L15.5824 12.476L15.5943 12.5165L15.5967 12.5284L15.6086 12.5688L15.6134 12.5808L15.6253 12.6212L15.6301 12.6331L15.642 12.6736L15.6443 12.6855L15.6562 12.726L15.6586 12.7379L15.6681 12.7807L15.6705 12.7926L15.6824 12.8354L15.6848 12.8474L15.6943 12.8902L15.6967 12.9021L15.7062 12.9449L15.7086 12.9568L15.7181 12.9997L15.7205 13.0116L15.7276 13.0544L15.73 13.0663L15.7372 13.1092L15.7396 13.1211L15.7443 13.1639L15.7467 13.1758L15.7515 13.2187L15.7538 13.233L15.7586 13.2758L15.761 13.2901L15.7657 13.3329L15.7681 13.3472L15.7729 13.3901L15.7753 13.4044L15.78 13.4472L15.7824 13.4615L15.7848 13.5043L15.7872 13.5186L15.7895 13.5638L15.7919 13.5781L15.7943 13.6233L15.7967 13.6376L15.7991 13.6829L15.8014 13.6971L15.8038 13.7424V13.7566L15.8062 13.8019V13.8162V13.8614V13.8757V13.9209V13.9352L15.8038 13.9804V13.9947L15.8014 14.0399L15.7991 14.0542L15.7967 14.0994L15.7943 14.1137L15.7919 14.1589L15.7895 14.1732L15.7872 14.2184L15.7848 14.2327L15.7824 14.2756L15.78 14.2898L15.7753 14.3327L15.7729 14.347L15.7681 14.3898L15.7657 14.4041L15.761 14.4469L15.7586 14.4612L15.7538 14.5041L15.7515 14.5184L15.7467 14.5612L15.7443 14.5731L15.7396 14.616L15.7372 14.6279L15.73 14.6707L15.7276 14.6826L15.7205 14.7254L15.7181 14.7374L15.7086 14.7802L15.7062 14.7921L15.6967 14.8349L15.6943 14.8468L15.6848 14.8897L15.6824 14.9016L15.6705 14.9444L15.6681 14.9563L15.6586 14.9992L15.6562 15.0111L15.6443 15.0516L15.642 15.0635L15.6301 15.1039L15.6253 15.1158L15.6134 15.1563L15.6086 15.1682L15.5967 15.2087L15.5943 15.2206L15.5824 15.261L15.5777 15.2729L15.5634 15.3134L15.5586 15.3253L15.5467 15.3658L15.542 15.3777L15.5277 15.4181L15.5229 15.43L15.5087 15.4705L15.5039 15.4824L15.4872 15.5229L15.4825 15.5348L15.4658 15.5752L15.461 15.5871L15.4444 15.6252L15.4396 15.6371L15.423 15.6752L15.4182 15.6871L15.4015 15.7252L15.3968 15.7371L15.3801 15.7752L15.3754 15.7871L15.3563 15.8252L15.3516 15.8371L15.3325 15.8752L15.3277 15.8871L15.3087 15.9251L15.3039 15.937L15.2849 15.9751L15.2801 15.987L15.2611 16.0251L15.254 16.037L15.2349 16.0727L15.2302 16.0846L15.2087 16.1203L15.204 16.1322L15.1825 16.1679L15.1778 16.1798L15.154 16.2155L15.1492 16.2274L15.1254 16.2632L15.1207 16.2751L15.0969 16.3108L15.0897 16.3203L15.0659 16.356L15.0588 16.3655L15.035 16.4012L15.0278 16.4107L15.004 16.4464L14.9969 16.456L14.9731 16.4893L14.9659 16.4988L14.9421 16.5321L14.9326 16.5417L14.9088 16.575L14.9017 16.5845L14.8755 16.6178L14.8683 16.6273L14.8422 16.6607L14.8326 16.6702L14.8065 16.7035L14.7993 16.713L14.7731 16.7464L14.766 16.7559L14.7398 16.7868L14.7303 16.7964L14.7041 16.8273L14.6946 16.8368L14.6684 16.8678L14.6589 16.8773L14.6327 16.9082L14.6232 16.9178L14.5946 16.9487L14.5851 16.9582L14.5565 16.9892L14.547 16.9987L14.5184 17.0296L14.5089 17.0392L14.478 17.0677L14.4684 17.0772L14.4375 17.1058L14.428 17.1153L14.397 17.1439L14.3875 17.1534L14.3566 17.182L14.347 17.1915L14.3161 17.2201L14.3066 17.2296L14.2756 17.2581L14.2661 17.2653L14.2352 17.2938L14.2256 17.301L14.1947 17.3272L14.1852 17.3343L14.1542 17.3605L14.1447 17.3676L14.1114 17.3938L14.1019 17.401L14.0709 17.4271L14.0614 17.4343L14.0281 17.4605L14.0186 17.4676L13.9852 17.4938L13.9757 17.5009L13.9424 17.5247L13.9329 17.5319L13.8995 17.5557L13.8876 17.5628L13.8543 17.5866L13.8448 17.5938L13.8115 17.6176L13.8019 17.6247L13.7662 17.6485L13.7567 17.6557L13.721 17.6795L13.7115 17.6866L13.6758 17.708L13.6663 17.7152L13.6306 17.7366L13.6187 17.7437L13.583 17.7652L13.571 17.7723L13.5353 17.7937L13.5234 17.8009L13.4877 17.8223L13.4758 17.8294L13.4377 17.8508L13.4258 17.858L13.3878 17.877L13.3759 17.8818L13.3378 17.9008L13.3259 17.9056L13.2878 17.9246L13.2759 17.9294L13.2378 17.9484L13.2259 17.9532L13.1878 17.9722L13.1759 17.977L13.1378 17.9937L13.1259 17.9984L13.0855 18.0151L13.0736 18.0199L13.0355 18.0365L13.0236 18.0413L12.9831 18.0579L12.9712 18.0627L12.9307 18.0794L12.9188 18.0841L12.8784 18.0984L12.8665 18.1032L12.826 18.1174L12.8141 18.1222L12.7736 18.1365L12.7617 18.1413L12.7213 18.1555L12.7094 18.1603L12.6689 18.1746L12.657 18.1793L12.6165 18.1912L12.6046 18.196L12.5642 18.2079L12.5523 18.2127L12.5118 18.2246L12.4999 18.2293L12.4594 18.2412L12.4475 18.2436L12.4071 18.2555L12.3952 18.2579L12.3547 18.2674L12.3428 18.2698L12.3023 18.2793L12.2904 18.2817L12.2476 18.2912L12.2357 18.2936L12.1928 18.3031L12.1809 18.3055L12.1405 18.315L12.1286 18.3174L12.0857 18.3245L12.0738 18.3269L12.031 18.3341L12.0191 18.3364L11.9738 18.3436L11.9619 18.346L11.9191 18.3531L11.9072 18.3555L11.862 18.3602L11.8501 18.3626L11.8072 18.3674L11.7929 18.3698L11.7501 18.3745L11.7382 18.3769L11.693 18.3817H11.6787L11.6358 18.3864H11.6215L11.5763 18.3888H11.5644L11.5192 18.3912H11.5073L11.4621 18.3936H11.4478L11.4025 18.396H11.3906H11.3454H11.3335H11.2883H11.274H11.2288H11.2169H11.1717H11.1598L11.1145 18.3936H11.1002L11.055 18.3912H11.0431L10.9979 18.3888H10.986L10.9408 18.3864H10.9265L10.8836 18.3817H10.8694L10.8241 18.3769L10.8122 18.3745L10.7694 18.3698L10.7551 18.3674L10.7122 18.3626L10.7003 18.3602L10.6551 18.3555L10.6432 18.3531L10.6004 18.346L10.5885 18.3436L10.5432 18.3364L10.5313 18.3341L10.4885 18.3269L10.4766 18.3245L10.4337 18.3174L10.4218 18.315L10.3814 18.3055L10.3695 18.3031L10.3266 18.2936L10.3147 18.2912L10.2719 18.2817L10.26 18.2793H10.2552L10.2171 18.2698L10.2052 18.2674L10.1648 18.2579L10.1529 18.2555L10.1124 18.2436L10.1005 18.2412L10.06 18.2293L10.0481 18.2246L10.0077 18.2127L9.99576 18.2079L9.95529 18.196L9.94339 18.1912L9.90293 18.1793L9.89103 18.1746L9.85056 18.1603L9.83866 18.1555L9.79819 18.1413L9.78629 18.1365L9.74583 18.1222L9.73392 18.1174L9.69346 18.1032L9.68155 18.0984L9.64109 18.0841L9.62919 18.0794L9.58872 18.0627L9.57682 18.0579L9.53635 18.0413L9.52445 18.0365L9.48637 18.0199L9.47447 18.0151L9.43638 17.9984L9.42448 17.9937L9.38639 17.977L9.37449 17.9722L9.3364 17.9532L9.3245 17.9484L9.28642 17.9294L9.27451 17.9246L9.23643 17.9056L9.22453 17.9008L9.18644 17.8818L9.17454 17.877L9.13645 17.858L9.12455 17.8508L9.08647 17.8294L9.07456 17.8223L9.03886 17.8009L9.02696 17.7937L8.99125 17.7723L8.97935 17.7652L8.94365 17.7437L8.93174 17.7366L8.89604 17.7152L8.88652 17.708L8.85081 17.6866L8.84129 17.6795L8.80559 17.6557L8.79607 17.6485L8.76036 17.6247L8.75084 17.6176L8.71751 17.5938L8.70799 17.5866L8.67467 17.5628L8.66277 17.5557L8.62944 17.5319L8.61754 17.5247L8.58421 17.5009L8.57469 17.4938L8.54137 17.4676L8.53185 17.4605L8.49852 17.4343L8.489 17.4271L8.45567 17.401L8.44615 17.3938L8.41283 17.3676L8.40331 17.3605L8.37236 17.3343L8.36284 17.3272L8.3319 17.301L8.32237 17.2938L8.29143 17.2653L8.28191 17.2581L8.25096 17.2296L8.24144 17.2201L8.2105 17.1915L8.20098 17.182L8.17003 17.1534L8.16051 17.1439L8.12957 17.1153L8.12004 17.1058L8.0891 17.0772L8.07958 17.0677L8.04863 17.0392L8.03911 17.0296L8.01055 16.9987L8.00103 16.9892L7.97246 16.9582L7.96294 16.9487L7.93438 16.9178L7.92486 16.9082L7.89867 16.8773L7.88915 16.8678L7.86297 16.8368L7.85345 16.8273L7.82726 16.7964L7.81774 16.7868L7.79156 16.7559L7.78442 16.7464L7.75823 16.713L7.75109 16.7035L7.72491 16.6702L7.71539 16.6607L7.6892 16.6273L7.68206 16.6178L7.65588 16.5845L7.64873 16.575L7.62493 16.5417L7.61541 16.5321L7.59161 16.4988L7.58447 16.4893L7.56066 16.456L7.55352 16.4464L7.52972 16.4107L7.52258 16.4012L7.49877 16.3655L7.49163 16.356L7.46783 16.3203L7.46069 16.3108L7.43689 16.2751L7.43212 16.2632L7.40832 16.2274L7.40356 16.2155L7.37976 16.1798L7.37499 16.1679L7.35357 16.1322L7.34881 16.1203L7.32739 16.0846L7.32263 16.0727L7.30358 16.037L7.29644 16.0251L7.2774 15.987L7.27026 15.9751L7.25122 15.937L7.24646 15.9251L7.22741 15.8871L7.22265 15.8752L7.20361 15.8371L7.19885 15.8252L7.17981 15.7871L7.17505 15.7752L7.15838 15.7371L7.15362 15.7252L7.13696 15.6871L7.1322 15.6752L7.11554 15.6371L7.11078 15.6252L7.09411 15.5871L7.08935 15.5752L7.07269 15.5348L7.06793 15.5229L7.05127 15.4824L7.04651 15.4705L7.03223 15.43L7.02746 15.4181L7.01318 15.3777L7.00842 15.3658L6.99652 15.3253L6.99176 15.3134L6.97748 15.2729L6.97272 15.261L6.96081 15.2206L6.95843 15.2087L6.94653 15.1682L6.94177 15.1563L6.92987 15.1158L6.92511 15.1039L6.91321 15.0635L6.91083 15.0516L6.89892 15.0111L6.89654 14.9992L6.88702 14.9563L6.88464 14.9444L6.87512 14.9016L6.87274 14.8897L6.86322 14.8468L6.86084 14.8349L6.85132 14.7921L6.84894 14.7802L6.83941 14.7374L6.83703 14.7254L6.8299 14.6826L6.82751 14.6707L6.82037 14.6279L6.81799 14.616L6.81323 14.5731L6.81085 14.5612L6.80609 14.5184L6.80371 14.5041L6.79895 14.4612L6.79657 14.4469L6.79181 14.4041L6.78943 14.3898L6.78467 14.347L6.78229 14.3327L6.77753 14.2898L6.77515 14.2756L6.77277 14.2327L6.77039 14.2184L6.768 14.1732L6.76562 14.1589L6.76324 14.1137L6.76086 14.0994L6.75848 14.0542L6.7561 14.0399L6.75372 13.9947V13.9804L6.75134 13.9352V13.9209V13.8757V13.8614V13.8162V13.8019L6.75372 13.7566V13.7424L6.7561 13.6971L6.75848 13.6829L6.76086 13.6376L6.76324 13.6233L6.76562 13.5781L6.768 13.5638L6.77039 13.5186L6.77277 13.5043L6.77515 13.4615L6.77753 13.4472L6.78229 13.4044L6.78467 13.3901L6.78943 13.3472L6.79181 13.3329L6.79657 13.2901L6.79895 13.2758L6.80371 13.233L6.80609 13.2187L6.81085 13.1758L6.81323 13.1639L6.81799 13.1211L6.82037 13.1092L6.82751 13.0663L6.8299 13.0544L6.83703 13.0116L6.83941 12.9997L6.84894 12.9568L6.85132 12.9449L6.86084 12.9021L6.86322 12.8902L6.87274 12.8474L6.87512 12.8354L6.88464 12.7926L6.88702 12.7807L6.89654 12.7379L6.89892 12.726L6.91083 12.6855L6.91321 12.6736L6.92511 12.6331L6.92987 12.6212L6.94177 12.5808L6.94653 12.5688L6.95843 12.5284L6.96081 12.5165L6.97272 12.476L6.97748 12.4641L6.99176 12.4236L6.99652 12.4117L7.00842 12.3713L7.01318 12.3594L7.02746 12.3189L7.03223 12.307L7.04651 12.2665L7.05127 12.2546L7.06793 12.2142L7.07269 12.2023L7.08935 12.1618L7.09411 12.1499L7.11078 12.1118L7.11554 12.0999L7.1322 12.0618L7.13696 12.0499L7.15362 12.0118L7.15838 11.9999L7.17505 11.9619L7.17981 11.95L7.19885 11.9119L7.20361 11.9L7.22265 11.8619L7.22741 11.85L7.24646 11.8119L7.25122 11.8L7.27026 11.7619L7.2774 11.75L7.29644 11.7119L7.30358 11.7L7.32263 11.6643L7.32739 11.6524L7.34881 11.6167L7.35357 11.6048L7.37499 11.5691L7.37976 11.5572L7.40356 11.5215L7.40832 11.5096L7.43212 11.4739L7.43689 11.462L7.46069 11.4263L7.46783 11.4168L7.49163 11.3811L7.49877 11.3715L7.52258 11.3358L7.52972 11.3263L7.55352 11.2906L7.56066 11.2811L7.58447 11.2478L7.59161 11.2382L7.61541 11.2049L7.62493 11.1954L7.64873 11.1621L7.65588 11.1525L7.68206 11.1192L7.6892 11.1097L7.71539 11.0764L7.72491 11.0668L7.75109 11.0335L7.75823 11.024L7.78442 10.9907L7.79156 10.9812L7.81774 10.9502L7.82726 10.9407L7.85345 10.9097L7.86297 10.9002L7.88915 10.8693L7.89867 10.8598L7.92486 10.8312L7.92724 10.8288L7.93676 10.8193L7.96532 10.7883L7.97484 10.7788L8.00341 10.7479L8.01293 10.7384L8.04149 10.7074L8.05101 10.6979L8.08196 10.6693L8.09148 10.6598L8.12242 10.6312L8.13195 10.6217L8.16289 10.5932L8.17241 10.5836L8.20336 10.5551L8.21288 10.5456L8.24382 10.517L8.25334 10.5075L8.28429 10.4789L8.29381 10.4718L8.32475 10.4432L8.33428 10.4361L8.36522 10.4099L8.37474 10.4027L8.40569 10.3765L8.41521 10.3694L8.44853 10.3432L8.45805 10.3361L8.49138 10.3099L8.5009 10.3028L8.53423 10.2766L8.54375 10.2694L8.57707 10.2432L8.58659 10.2361L8.61992 10.2123L8.63182 10.2052L8.66515 10.1814L8.67705 10.1742L8.71037 10.1504L8.71989 10.1433L8.75322 10.1195L8.76274 10.1123L8.79844 10.0885L8.80797 10.0814L8.84367 10.0576L8.85319 10.0504L8.8889 10.029L8.89842 10.0219L8.93412 10.0005L8.94603 9.99331L8.98173 9.97189L8.99363 9.96475L9.02934 9.94332L9.04124 9.93618L9.07694 9.91476L9.08885 9.90762L9.12693 9.8862L9.13884 9.87905L9.17692 9.86001L9.18882 9.85287L9.22691 9.83383L9.23881 9.82907L9.27689 9.81002L9.2888 9.80526L9.32688 9.78622L9.33878 9.78146L9.37687 9.76242L9.38877 9.75766L9.42686 9.74099L9.43876 9.73623L9.47684 9.71957L9.48875 9.71481L9.52683 9.69815L9.53873 9.69339L9.5792 9.67672L9.5911 9.67196L9.63157 9.6553L9.64347 9.65054L9.68393 9.63626L9.69584 9.6315L9.7363 9.61721L9.74821 9.61245L9.78867 9.59817L9.80057 9.59341L9.84104 9.57913L9.85294 9.57437L9.89341 9.56009L9.90531 9.55533L9.94577 9.54342L9.95767 9.53866L9.99814 9.52676L10.01 9.522L10.0505 9.5101L10.0624 9.50534L10.1029 9.49344L10.1148 9.49106L10.1552 9.47915L10.1671 9.47677L10.2076 9.46725L10.2195 9.46487L10.26 9.45535L10.2719 9.45297L10.3147 9.44345L10.3266 9.44107L10.3695 9.43155L10.3814 9.42917L10.4218 9.41965L10.4337 9.41727L10.4766 9.41013L10.4885 9.40774L10.5313 9.4006L10.5432 9.39822L10.5885 9.39108L10.6004 9.3887L10.6432 9.38156L10.6551 9.37918L10.7003 9.37442L10.7122 9.37204L10.7551 9.36728L10.7694 9.3649L10.8122 9.36014L10.8241 9.35776L10.8694 9.353H10.8836L10.9265 9.34824H10.9408L10.986 9.34586H10.9979L11.0431 9.34347H11.055L11.1002 9.34109H11.1145L11.1598 9.33871H11.1717H11.2169H11.2288H11.274H11.2883H11.3335ZM11.2502 11.4334H11.2193H11.1883L11.1574 11.4358L11.1264 11.4382L11.0955 11.4406L11.0645 11.4429L11.0336 11.4453L11.0026 11.4477L10.9717 11.4525L10.9408 11.4572L10.9098 11.462L10.8789 11.4667L10.8479 11.4715L10.817 11.4763L10.786 11.481L10.7575 11.4882L10.7265 11.4953L10.698 11.5025L10.6694 11.5096L10.6385 11.5167L10.6099 11.5239L10.5813 11.531L10.5528 11.5405L10.5242 11.5501L10.4956 11.5596L10.4695 11.5691L10.4409 11.5786L10.4147 11.5881L10.3861 11.5977L10.36 11.6096L10.3338 11.6215L10.3076 11.6334L10.2814 11.6453L10.2552 11.6572L10.229 11.6691L10.2029 11.681L10.1767 11.6953L10.1505 11.7095L10.1243 11.7238L10.0981 11.7381L10.0719 11.7524L10.0457 11.7667L10.0196 11.781L9.99576 11.7952L9.96958 11.8119L9.94577 11.8286L9.92197 11.8452L9.89817 11.8619L9.87436 11.8785L9.85056 11.8952L9.82676 11.9119L9.80295 11.9285L9.77915 11.9476L9.75534 11.9666L9.73154 11.9857L9.70774 12.0047L9.68632 12.0238L9.66251 12.0428L9.64109 12.0618L9.61967 12.0809L9.59824 12.0999L9.57682 12.1213L9.55778 12.1428L9.53635 12.1642L9.51731 12.1856L9.49827 12.207L9.47922 12.2285L9.46018 12.2499L9.44114 12.2713L9.4221 12.2927L9.40305 12.3142L9.38401 12.338L9.36735 12.3618L9.34831 12.3856L9.33164 12.4094L9.3126 12.4332L9.29594 12.457L9.27927 12.4808L9.26261 12.5046L9.24595 12.5284L9.22929 12.5522L9.21263 12.576L9.19834 12.6022L9.18168 12.6284L9.1674 12.6545L9.15312 12.6807L9.13884 12.7069L9.12455 12.7331L9.11027 12.7593L9.09837 12.7855L9.08647 12.8116L9.07456 12.8378L9.06266 12.864L9.05076 12.8902L9.03886 12.9164L9.02696 12.9426L9.01506 12.9711L9.00553 12.9997L8.99602 13.0283L8.98649 13.0568L8.97697 13.0854L8.96745 13.114L8.95793 13.1425L8.94841 13.1711L8.93889 13.1996L8.92936 13.2282L8.92222 13.2568L8.91508 13.2853L8.90794 13.3139L8.90318 13.3425L8.89604 13.371L8.89128 13.3996L8.88652 13.4282L8.88176 13.4591L8.877 13.49L8.87224 13.521L8.86748 13.5519L8.8651 13.5829L8.86033 13.6138L8.85795 13.6448L8.85557 13.6757L8.85319 13.7067L8.85081 13.7376L8.84843 13.7685L8.84605 13.7995V13.8304V13.8614V13.8923V13.9233L8.84843 13.9542L8.85081 13.9852L8.85319 14.0161L8.85557 14.047L8.85795 14.078L8.86033 14.1089L8.8651 14.1399L8.86748 14.1708L8.87224 14.2018L8.877 14.2327L8.88176 14.2637L8.88652 14.2946L8.89128 14.3232L8.89604 14.3517L8.90318 14.3803L8.90794 14.4089L8.91508 14.4374L8.92222 14.466L8.92936 14.4946L8.93889 14.5231L8.94841 14.5517L8.95793 14.5802L8.96745 14.6088L8.97697 14.6374L8.98649 14.6659L8.99602 14.6945L9.00553 14.7231L9.01506 14.7516L9.02696 14.7802L9.03886 14.8064L9.05076 14.8326L9.06266 14.8587L9.07456 14.8849L9.08647 14.9111L9.09837 14.9373L9.11027 14.9635L9.12455 14.9897L9.13884 15.0159L9.15312 15.042L9.1674 15.0682L9.18168 15.0944L9.19834 15.1206L9.21263 15.1468L9.22929 15.1706L9.24595 15.1944L9.26261 15.2182L9.27927 15.242L9.29594 15.2658L9.3126 15.2896L9.33164 15.3134L9.34831 15.3372L9.36735 15.361L9.38401 15.3848L9.40305 15.4086L9.4221 15.43L9.44114 15.4515L9.46018 15.4729L9.47922 15.4943L9.49827 15.5157L9.51731 15.5371L9.53635 15.5586L9.55778 15.58L9.57682 15.6014L9.59824 15.6228L9.61967 15.6419L9.64109 15.6609L9.66251 15.68L9.68632 15.699L9.70774 15.7181L9.73154 15.7371L9.75534 15.7561L9.77915 15.7752L9.80295 15.7942L9.82676 15.8109L9.85056 15.8276L9.87436 15.8442L9.89817 15.8609L9.92197 15.8775L9.94577 15.8942L9.96958 15.9109L9.99576 15.9275L10.0196 15.9418L10.0457 15.9561L10.0719 15.9704L10.0981 15.9847L10.1243 15.9989L10.1505 16.0132L10.1767 16.0275L10.2029 16.0418L10.229 16.0537L10.2552 16.0656L10.2814 16.0775L10.3076 16.0894L10.3338 16.1013L10.36 16.1132L10.3861 16.1251L10.4147 16.1346L10.4409 16.1441L10.4695 16.1537L10.4956 16.1632L10.5242 16.1727L10.5528 16.1822L10.5813 16.1917L10.6099 16.1989L10.6385 16.206L10.6694 16.2132L10.698 16.2203L10.7265 16.2274L10.7575 16.2346L10.786 16.2417L10.817 16.2465L10.8479 16.2513L10.8789 16.256L10.9098 16.2608L10.9408 16.2655L10.9717 16.2703L11.0026 16.2751L11.0336 16.2774L11.0645 16.2798L11.0955 16.2822L11.1264 16.2846L11.1574 16.287L11.1883 16.2893H11.2193H11.2502H11.2812H11.3121H11.343H11.374L11.4049 16.287L11.4359 16.2846L11.4668 16.2822L11.4978 16.2798L11.5287 16.2774L11.5597 16.2751L11.5906 16.2703L11.6215 16.2655L11.6525 16.2608L11.6834 16.256L11.7144 16.2513L11.7453 16.2465L11.7763 16.2417L11.8048 16.2346L11.8358 16.2274L11.8643 16.2203L11.8953 16.2132L11.9238 16.206L11.9524 16.1989L11.981 16.1917L12.0095 16.1822L12.0381 16.1727L12.0667 16.1632L12.0929 16.1537L12.1214 16.1441L12.1476 16.1346L12.1762 16.1251L12.2023 16.1132L12.2285 16.1013L12.2547 16.0894L12.2809 16.0775L12.3071 16.0656L12.3333 16.0537L12.3594 16.0418L12.3856 16.0275L12.4118 16.0132L12.438 15.9989L12.4618 15.9847L12.488 15.9704L12.5142 15.9561L12.5404 15.9418L12.5642 15.9275L12.5903 15.9109L12.6141 15.8942L12.638 15.8775L12.6618 15.8609L12.6856 15.8442L12.7094 15.8276L12.7332 15.8109L12.757 15.7942L12.7808 15.7752L12.8046 15.7561L12.8284 15.7371L12.8522 15.7181L12.876 15.699L12.8974 15.68L12.9188 15.6609L12.9403 15.6419L12.9617 15.6228L12.9831 15.6014L13.0021 15.58L13.0236 15.5586L13.0426 15.5371L13.0617 15.5157L13.0807 15.4943L13.0997 15.4729L13.1188 15.4515L13.1378 15.43L13.1569 15.4086L13.1759 15.3848L13.195 15.361L13.2116 15.3372L13.2283 15.3134L13.2473 15.2896L13.264 15.2658L13.2806 15.242L13.2973 15.2182L13.314 15.1944L13.3306 15.1706L13.3473 15.1468L13.3616 15.1206L13.3663 15.1111L13.3759 15.0944L13.3901 15.0682L13.4044 15.042L13.4187 15.0159L13.433 14.9897L13.4473 14.9635L13.4592 14.9373L13.4711 14.9111L13.483 14.8849L13.4949 14.8587L13.5068 14.8326L13.5187 14.8064L13.5306 14.7802L13.5425 14.7516L13.552 14.7231L13.5615 14.6945L13.571 14.6659L13.5806 14.6374L13.5901 14.6088L13.5996 14.5802L13.6091 14.5517L13.6187 14.5231L13.6282 14.4946L13.6353 14.466L13.6425 14.4374L13.6496 14.4089L13.6567 14.3803L13.6615 14.3517L13.6663 14.3232L13.671 14.2946L13.6758 14.2637L13.6805 14.2327L13.6853 14.2018L13.6901 14.1708L13.6924 14.1399L13.6972 14.1089L13.6996 14.078L13.702 14.047L13.7043 14.0161L13.7067 13.9852L13.7091 13.9542L13.7115 13.9233V13.8923V13.8614V13.8304V13.7995L13.7091 13.7685L13.7067 13.7376L13.7043 13.7067L13.702 13.6757L13.6996 13.6448L13.6972 13.6138L13.6924 13.5829L13.6901 13.5519L13.6853 13.521L13.6805 13.49L13.6758 13.4591L13.671 13.4282L13.6663 13.3996L13.6615 13.371L13.6567 13.3425L13.6496 13.3139L13.6425 13.2853L13.6353 13.2568L13.6282 13.2282L13.6187 13.1996L13.6091 13.1711L13.5996 13.1425L13.5901 13.114L13.5806 13.0854L13.571 13.0568L13.5615 13.0283L13.552 12.9997L13.5425 12.9711L13.5306 12.9426L13.5187 12.9164L13.5068 12.8902L13.4949 12.864L13.483 12.8378L13.4711 12.8116L13.4592 12.7855L13.4473 12.7593L13.433 12.7331L13.4187 12.7069L13.4044 12.6807L13.3901 12.6545L13.3759 12.6284L13.3592 12.6022L13.3449 12.576L13.3283 12.5522L13.3116 12.5284L13.2949 12.5046L13.2783 12.4808L13.2616 12.457L13.2449 12.4332L13.2259 12.4094L13.2092 12.3856L13.1926 12.3618L13.1735 12.338L13.1545 12.3142L13.1354 12.2927L13.1164 12.2713L13.0974 12.2499L13.0783 12.2285L13.0593 12.207L13.0402 12.1856L13.0212 12.1642L12.9998 12.1428L12.9807 12.1213L12.9593 12.0999L12.9379 12.0809L12.9165 12.0618L12.895 12.0428L12.8736 12.0238L12.8498 12.0047L12.826 11.9857L12.8022 11.9666L12.7784 11.9476L12.7546 11.9285L12.7308 11.9119L12.707 11.8952L12.6832 11.8785L12.6594 11.8619L12.6356 11.8452L12.6118 11.8286L12.588 11.8119L12.5618 11.7952L12.538 11.781L12.5118 11.7667L12.4856 11.7524L12.4594 11.7381L12.4356 11.7238L12.4094 11.7095L12.3833 11.6953L12.3571 11.681L12.3309 11.6691L12.3047 11.6572L12.2785 11.6453L12.2523 11.6334L12.2262 11.6215L12.2 11.6096L12.1738 11.5977L12.1452 11.5881L12.119 11.5786L12.0905 11.5691L12.0643 11.5596L12.0357 11.5501L12.0072 11.5405L11.9786 11.531L11.95 11.5239L11.9215 11.5167L11.8929 11.5096L11.862 11.5025L11.8334 11.4953L11.8024 11.4882L11.7739 11.481L11.7429 11.4763L11.712 11.4715L11.681 11.4667L11.6501 11.462L11.6192 11.4572L11.5882 11.4525L11.5573 11.4477L11.5263 11.4453L11.4954 11.4429L11.4644 11.4406L11.4335 11.4382L11.4025 11.4358L11.3716 11.4334H11.3407H11.3097H11.2788H11.2502Z" fill="#4A12C0"/>
<path fill-rule="evenodd" clip-rule="evenodd" d="M25.0929 6.00238H25.1048H25.15H25.1619L25.2071 6.00476H25.2214L25.2666 6.00714H25.2785L25.3237 6.00952H25.3356L25.3809 6.0119H25.3952L25.438 6.01666H25.4523L25.4975 6.02142L25.5094 6.0238L25.5523 6.02856L25.5665 6.03094L25.6094 6.03571L25.6213 6.03809L25.6665 6.04285L25.6784 6.04523L25.7213 6.05237L25.7332 6.05475L25.7784 6.06189L25.7903 6.06427L25.8331 6.07141L25.845 6.07379L25.8879 6.08093L25.8998 6.08331L25.9403 6.09283L25.9522 6.09521L25.995 6.10474L26.0069 6.10712L26.0498 6.11664L26.0617 6.11902L26.1021 6.12854L26.114 6.13092L26.1545 6.14044L26.1664 6.14282L26.2069 6.15472L26.2188 6.1571L26.2592 6.16901L26.2711 6.17377L26.3116 6.18567L26.3235 6.19043L26.364 6.20233L26.3759 6.20709L26.4163 6.21899L26.4282 6.22375L26.4687 6.23804L26.4806 6.2428L26.5211 6.25708L26.533 6.26184L26.5734 6.27612L26.5853 6.28088L26.6258 6.29516L26.6377 6.29992L26.6782 6.31421L26.6901 6.31897L26.7305 6.33563L26.7424 6.34039L26.7829 6.35705L26.7948 6.36181L26.8329 6.37848L26.8448 6.38324L26.8853 6.3999L26.8972 6.40466L26.9353 6.42132L26.9472 6.42608L26.9852 6.44513L26.9971 6.44989L27.0352 6.46893L27.0471 6.47369L27.0852 6.49273L27.0971 6.49749L27.1352 6.51654L27.1471 6.52368L27.1852 6.54272L27.1971 6.54986L27.2352 6.57128L27.2471 6.57843L27.2828 6.59985L27.2947 6.60699L27.3304 6.62841L27.3423 6.63555L27.378 6.65698L27.3899 6.66412L27.4256 6.68554L27.4351 6.69268L27.4708 6.71411L27.4803 6.72125L27.5161 6.74505L27.5256 6.75219L27.5613 6.77599L27.5708 6.78314L27.6041 6.80694L27.6137 6.81408L27.647 6.83788L27.6589 6.84502L27.6922 6.86883L27.7017 6.87597L27.735 6.89977L27.7446 6.90691L27.7779 6.9331L27.7874 6.94024L27.8207 6.96642L27.8303 6.97356L27.8612 6.99975L27.8707 7.00689L27.9041 7.03307L27.9136 7.04021L27.9445 7.0664L27.954 7.07354L27.985 7.09972L27.9945 7.10686L28.0254 7.13543L28.035 7.14257L28.0659 7.17113L28.0754 7.18065L28.1064 7.20922L28.1159 7.21874L28.1468 7.2473L28.1564 7.25683L28.1873 7.28539L28.1968 7.29491L28.2278 7.32348L28.2373 7.333L28.2682 7.36156L28.2778 7.37108L28.3063 7.40203L28.3159 7.41155L28.3444 7.44249L28.3539 7.45201L28.3825 7.48296L28.392 7.49248L28.4182 7.52342L28.4277 7.53295L28.4539 7.56389L28.4634 7.57341L28.4896 7.60436L28.4991 7.61388L28.5253 7.64482L28.5325 7.65434L28.5586 7.68767L28.5658 7.69719L28.592 7.73052L28.6015 7.74004L28.6277 7.77336L28.6348 7.78288L28.661 7.81621L28.6681 7.82573L28.6919 7.85905L28.7015 7.86858L28.7253 7.9019L28.7324 7.91142L28.7562 7.94475L28.7634 7.95427L28.7872 7.98997L28.7943 7.9995L28.8181 8.0352L28.8252 8.04472L28.8491 8.08043L28.8562 8.08995L28.88 8.12565L28.8848 8.13756L28.9086 8.17326L28.9133 8.18516L28.9371 8.22087L28.9419 8.23277L28.9633 8.26847L28.9681 8.28038L28.9895 8.31608L28.9943 8.32798L29.0133 8.36369L29.0204 8.37559L29.0395 8.41368L29.0442 8.42558L29.0633 8.46366L29.068 8.47557L29.0871 8.51365L29.0918 8.52555L29.1109 8.56364L29.1156 8.57554L29.1347 8.61363L29.1395 8.62553L29.1561 8.66361L29.1609 8.67552L29.1775 8.7136L29.1823 8.7255L29.199 8.76359L29.2037 8.77549L29.2204 8.81358L29.2251 8.82548L29.2418 8.86594L29.2466 8.87785L29.2632 8.91831L29.268 8.93021L29.2823 8.97068L29.287 8.98258L29.3013 9.02305L29.3061 9.03495L29.318 9.07541L29.3227 9.08732L29.337 9.12778L29.3418 9.13968L29.3537 9.18015L29.3561 9.19205L29.368 9.23252L29.3727 9.24442L29.3846 9.28488L29.3894 9.29679L29.4013 9.33725L29.4037 9.34915L29.4156 9.38962L29.418 9.40152L29.4275 9.44437L29.4299 9.45627L29.4418 9.49912L29.4441 9.51102L29.4537 9.55386L29.456 9.56577L29.4656 9.60861L29.4679 9.62051L29.4775 9.66336L29.4798 9.67526L29.487 9.71811L29.4894 9.73001L29.4965 9.77286L29.4989 9.78476L29.5036 9.8276L29.506 9.83951L29.5108 9.88235L29.5132 9.89664L29.5179 9.93948L29.5203 9.95376L29.5251 9.99661L29.5275 10.0109L29.5322 10.0537L29.5346 10.068L29.5394 10.1109L29.5417 10.1251L29.5441 10.168L29.5465 10.1823L29.5489 10.2275L29.5513 10.2418L29.5536 10.287L29.556 10.3013L29.5584 10.3465L29.5608 10.3608L29.5632 10.406V10.4203L29.5655 10.4655V10.4798V10.525V10.5393V10.5846V10.5988L29.5632 10.6441V10.6583L29.5608 10.7036L29.5584 10.7179L29.556 10.7631L29.5536 10.7774L29.5513 10.8226L29.5489 10.8369L29.5465 10.8821L29.5441 10.8964L29.5417 10.9392L29.5394 10.9535L29.5346 10.9964L29.5322 11.0106L29.5275 11.0535L29.5251 11.0678L29.5203 11.1106L29.5179 11.1249L29.5132 11.1677L29.5108 11.182L29.506 11.2249L29.5036 11.2368L29.4989 11.2796L29.4965 11.2915L29.4894 11.3344L29.487 11.3463L29.4798 11.3891L29.4775 11.401L29.4679 11.4439L29.4656 11.4558L29.456 11.4986L29.4537 11.5105L29.4441 11.5534L29.4418 11.5653L29.4299 11.6081L29.4275 11.62L29.418 11.6629L29.4156 11.6748L29.4037 11.7152L29.4013 11.7271L29.3894 11.7676L29.3846 11.7795L29.3727 11.82L29.368 11.8319L29.3561 11.8723L29.3537 11.8842L29.3418 11.9247L29.337 11.9366L29.3227 11.9771L29.318 11.989L29.3061 12.0294L29.3013 12.0413L29.287 12.0818L29.2823 12.0937L29.268 12.1342L29.2632 12.1461L29.2466 12.1865L29.2418 12.1984L29.2251 12.2389L29.2204 12.2508L29.2037 12.2889L29.199 12.3008L29.1823 12.3389L29.1775 12.3508L29.1609 12.3889L29.1561 12.4008L29.1395 12.4388L29.1347 12.4508L29.1156 12.4888L29.1109 12.5007L29.0918 12.5388L29.0871 12.5507L29.068 12.5888L29.0633 12.6007L29.0442 12.6388L29.0395 12.6507L29.0204 12.6888L29.0133 12.7007L28.9943 12.7364L28.9895 12.7483L28.9681 12.784L28.9633 12.7959L28.9419 12.8316L28.9371 12.8435L28.9252 12.8649L28.9157 12.8792L28.9109 12.8911L28.8871 12.9268L28.8824 12.9387L28.8586 12.9744L28.8514 12.984L28.8276 13.0197L28.8205 13.0292L28.7967 13.0649L28.7895 13.0744L28.7657 13.1101L28.7586 13.1196L28.7348 13.153L28.7277 13.1625L28.7038 13.1958L28.6943 13.2053L28.6705 13.2386L28.6634 13.2482L28.6372 13.2815L28.6301 13.291L28.6039 13.3243L28.5944 13.3339L28.5682 13.3672L28.561 13.3767L28.5348 13.41L28.5277 13.4196L28.5015 13.4505L28.492 13.46L28.4658 13.491L28.4563 13.5005L28.4301 13.5314L28.4206 13.541L28.3944 13.5719L28.3849 13.5814L28.3563 13.6124L28.3468 13.6219L28.3182 13.6528L28.3087 13.6624L28.2801 13.6933L28.2706 13.7028L28.2397 13.7314L28.2302 13.7409L28.1992 13.7695L28.1897 13.779L28.1587 13.8076L28.1492 13.8171L28.1183 13.8456L28.1088 13.8552L28.0778 13.8837L28.0683 13.8932L28.0373 13.9218L28.0278 13.9289L27.9969 13.9575L27.9874 13.9647L27.9564 13.9908L27.9469 13.998L27.916 14.0242L27.9064 14.0313L27.8731 14.0575L27.8636 14.0646L27.8326 14.0908L27.8231 14.098L27.7898 14.1241L27.7803 14.1313L27.7469 14.1575L27.7374 14.1646L27.7041 14.1884L27.6946 14.1955L27.6613 14.2194L27.6494 14.2265L27.616 14.2503L27.6065 14.2574L27.5732 14.2812L27.5637 14.2884L27.528 14.3122L27.5184 14.3193L27.4827 14.3431L27.4732 14.3503L27.4375 14.3717L27.428 14.3788L27.3923 14.4003L27.3804 14.4074L27.3447 14.4288L27.3328 14.436L27.2971 14.4574L27.2852 14.4645L27.2495 14.486L27.2376 14.4931L27.1995 14.5145L27.1876 14.5217L27.1495 14.5407L27.1376 14.5455L27.0995 14.5645L27.0876 14.5693L27.0495 14.5883L27.0376 14.5931L26.9995 14.6121L26.9876 14.6169L26.9495 14.6359L26.9376 14.6407L26.8995 14.6573L26.8876 14.6621L26.8472 14.6788L26.8353 14.6835L26.7972 14.7002L26.7853 14.7049L26.7448 14.7216L26.7329 14.7264L26.6924 14.743L26.6805 14.7478L26.6401 14.7621L26.6282 14.7668L26.5877 14.7811L26.5758 14.7859L26.5354 14.8002L26.5234 14.8049L26.483 14.8192L26.4711 14.824L26.4306 14.8382L26.4187 14.843L26.3782 14.8549L26.3663 14.8597L26.3259 14.8716L26.314 14.8763L26.2735 14.8882L26.2616 14.893L26.2211 14.9049L26.2092 14.9073L26.1688 14.9192L26.1569 14.9216L26.1164 14.9311L26.1045 14.9335L26.064 14.943L26.0521 14.9454L26.0093 14.9549L25.9974 14.9573L25.9545 14.9668L25.9426 14.9692L25.9022 14.9787L25.8903 14.9811L25.8474 14.9882L25.8355 14.9906L25.7927 14.9977L25.7808 15.0001L25.7355 15.0072L25.7236 15.0096L25.6808 15.0168L25.6689 15.0192L25.6237 15.0239L25.6118 15.0263L25.5689 15.0311L25.5546 15.0334L25.5118 15.0382L25.4999 15.0406L25.4547 15.0453H25.4404L25.3975 15.0501H25.3833L25.338 15.0525H25.3261L25.2809 15.0549H25.269L25.2238 15.0572H25.2095L25.1643 15.0596H25.1524H25.1071H25.0952H25.05H25.0357H24.9905H24.9786H24.9334H24.9215L24.8762 15.0572H24.862L24.8167 15.0549H24.8048L24.7596 15.0525H24.7477L24.7025 15.0501H24.6882L24.6453 15.0453H24.6311L24.5858 15.0406L24.5739 15.0382L24.5311 15.0334L24.5168 15.0311L24.474 15.0263L24.4621 15.0239L24.4168 15.0192L24.4049 15.0168L24.3621 15.0096L24.3502 15.0072L24.305 15.0001L24.2931 14.9977L24.2502 14.9906L24.2383 14.9882L24.1955 14.9811L24.1836 14.9787L24.1431 14.9692L24.1312 14.9668L24.0883 14.9573L24.0764 14.9549L24.0336 14.9454L24.0217 14.943H24.0169L23.9788 14.9335L23.9669 14.9311L23.9265 14.9216L23.9146 14.9192L23.8741 14.9073L23.8622 14.9049L23.8217 14.893L23.8098 14.8882L23.7694 14.8763L23.7575 14.8716L23.717 14.8597L23.7051 14.8549L23.6646 14.843L23.6527 14.8382L23.6123 14.824L23.6004 14.8192L23.5599 14.8049L23.548 14.8002L23.5075 14.7859L23.4956 14.7811L23.4552 14.7668L23.4433 14.7621L23.4028 14.7478L23.3909 14.743L23.3504 14.7264L23.3385 14.7216L23.2981 14.7049L23.2862 14.7002L23.2481 14.6835L23.2362 14.6788L23.1981 14.6621L23.1862 14.6573L23.1481 14.6407L23.1362 14.6359L23.0981 14.6169L23.0862 14.6121L23.0481 14.5931L23.0362 14.5883L22.9981 14.5693L22.9862 14.5645L22.9482 14.5455L22.9363 14.5407L22.8982 14.5217L22.8863 14.5145L22.8482 14.4931L22.8363 14.486L22.8006 14.4645L22.7887 14.4574L22.753 14.436L22.7411 14.4288L22.7054 14.4074L22.6935 14.4003L22.6578 14.3788L22.6482 14.3717L22.6125 14.3503L22.603 14.3431L22.5673 14.3193L22.5578 14.3122L22.5221 14.2884L22.5126 14.2812L22.4792 14.2574L22.4697 14.2503L22.4364 14.2265L22.4245 14.2194L22.3912 14.1955L22.3793 14.1884L22.3459 14.1646L22.3364 14.1575L22.3031 14.1313L22.2936 14.1241L22.2602 14.098L22.2507 14.0908L22.2174 14.0646L22.2079 14.0575L22.1745 14.0313L22.165 14.0242L22.1341 13.998L22.1246 13.9908L22.0936 13.9647L22.0841 13.9575L22.0531 13.9289L22.0436 13.9218L22.0127 13.8932L22.0032 13.8837L21.9722 13.8552L21.9627 13.8456L21.9317 13.8171L21.9222 13.8076L21.8913 13.779L21.8818 13.7695L21.8508 13.7409L21.8413 13.7314L21.8104 13.7028L21.8008 13.6933L21.7723 13.6624L21.7627 13.6528L21.7342 13.6219L21.7247 13.6124L21.6961 13.5814L21.6866 13.5719L21.6604 13.541L21.6509 13.5314L21.6247 13.5005L21.6152 13.491L21.589 13.46L21.5795 13.4505L21.5533 13.4196L21.5461 13.41L21.52 13.3767L21.5128 13.3672L21.4866 13.3339L21.4771 13.3243L21.4509 13.291L21.4438 13.2815L21.4176 13.2482L21.4105 13.2386L21.3866 13.2053L21.3771 13.1958L21.3533 13.1625L21.3462 13.153L21.3224 13.1196L21.3152 13.1101L21.2914 13.0744L21.2843 13.0649L21.2605 13.0292L21.2533 13.0197L21.2295 12.984L21.2224 12.9744L21.1986 12.9387L21.1938 12.9268L21.17 12.8911L21.1653 12.8792L21.1415 12.8435L21.1367 12.8316L21.1153 12.7959L21.1105 12.784L21.0891 12.7483L21.0843 12.7364L21.0653 12.7007L21.0582 12.6888L21.0391 12.6507L21.032 12.6388L21.0129 12.6007L21.0082 12.5888L20.9891 12.5507L20.9844 12.5388L20.9653 12.5007L20.9606 12.4888L20.9415 12.4508L20.9368 12.4388L20.9201 12.4008L20.9153 12.3889L20.8987 12.3508L20.8939 12.3389L20.8773 12.3008L20.8725 12.2889L20.8558 12.2508L20.8511 12.2389L20.8344 12.1984L20.8296 12.1865L20.813 12.1461L20.8082 12.1342L20.7939 12.0937L20.7892 12.0818L20.7749 12.0413L20.7701 12.0294L20.7582 11.989L20.7535 11.9771L20.7392 11.9366L20.7344 11.9247L20.7225 11.8842L20.7202 11.8723L20.7082 11.8319L20.7035 11.82L20.6916 11.7795L20.6868 11.7676L20.6749 11.7271L20.6725 11.7152L20.6606 11.6748L20.6583 11.6629L20.6487 11.62L20.6464 11.6081L20.6368 11.5653L20.6345 11.5534L20.6249 11.5105L20.6226 11.4986L20.613 11.4558L20.6107 11.4439L20.6011 11.401L20.5988 11.3891L20.5916 11.3463L20.5892 11.3344L20.5821 11.2915L20.5797 11.2796L20.5749 11.2368L20.5726 11.2249L20.5678 11.182L20.5654 11.1677L20.5607 11.1249L20.5583 11.1106L20.5535 11.0678L20.5511 11.0535L20.5464 11.0106L20.544 10.9964L20.5392 10.9535L20.5369 10.9392L20.5345 10.8964L20.5321 10.8821L20.5297 10.8369L20.5273 10.8226L20.525 10.7774L20.5226 10.7631L20.5202 10.7179L20.5178 10.7036L20.5154 10.6583V10.6441L20.5131 10.5988V10.5846V10.5346V10.5203V10.4751V10.4632L20.5154 10.4179V10.4036L20.5178 10.3584L20.5202 10.3441L20.5226 10.2989L20.525 10.2846L20.5273 10.2394L20.5297 10.2251L20.5321 10.1799L20.5345 10.1656L20.5369 10.1228L20.5392 10.1085L20.544 10.0656L20.5464 10.0514L20.5511 10.0085L20.5535 9.99423L20.5583 9.95138L20.5607 9.9371L20.5654 9.89425L20.5678 9.87997L20.5726 9.83713L20.5749 9.82522L20.5797 9.78238L20.5821 9.77048L20.5892 9.72763L20.5916 9.71573L20.5988 9.67288L20.6011 9.66098L20.6107 9.61813L20.613 9.60623L20.6226 9.56339L20.6249 9.55148L20.6345 9.50864L20.6368 9.49674L20.6464 9.45389L20.6487 9.44199L20.6583 9.39914L20.6606 9.38724L20.6725 9.34677L20.6749 9.33487L20.6868 9.29441L20.6916 9.2825L20.7035 9.24204L20.7082 9.23014L20.7202 9.18967L20.7225 9.17777L20.7344 9.1373L20.7392 9.1254L20.7535 9.08493L20.7582 9.07303L20.7701 9.03257L20.7749 9.02067L20.7892 8.9802L20.7939 8.9683L20.8082 8.92783L20.813 8.91593L20.8296 8.87546L20.8344 8.86356L20.8511 8.8231L20.8558 8.81119L20.8725 8.77311L20.8773 8.76121L20.8939 8.72312L20.8987 8.71122L20.9153 8.67313L20.9201 8.66123L20.9368 8.62315L20.9415 8.61125L20.9606 8.57316L20.9653 8.56126L20.9844 8.52317L20.9891 8.51127L21.0082 8.47319L21.0129 8.46128L21.032 8.4232L21.0391 8.4113L21.0582 8.37321L21.0653 8.36131L21.0843 8.3256L21.0891 8.3137L21.1105 8.278L21.1153 8.26609L21.1367 8.23039L21.1415 8.21849L21.1653 8.18278L21.17 8.17088L21.1938 8.13518L21.1986 8.12327L21.2224 8.08757L21.2295 8.07805L21.2533 8.04234L21.2605 8.03282L21.2843 7.99712L21.2914 7.98759L21.3152 7.95189L21.3224 7.94237L21.3462 7.90904L21.3533 7.89952L21.3771 7.8662L21.3866 7.85667L21.4105 7.82335L21.4176 7.81383L21.4438 7.7805L21.4509 7.77098L21.4771 7.73766L21.4866 7.72813L21.5128 7.69481L21.52 7.68529L21.5461 7.65196L21.5533 7.64244L21.5795 7.6115L21.589 7.60198L21.6152 7.57103L21.6247 7.56151L21.6509 7.53057L21.6604 7.52104L21.6866 7.49248L21.689 7.4901L21.6985 7.48058L21.727 7.44963L21.7366 7.44011L21.7651 7.40917L21.7746 7.39965L21.8032 7.3687L21.8127 7.35918L21.8437 7.33062L21.8532 7.32109L21.8841 7.29253L21.8937 7.28301L21.9246 7.25445L21.9341 7.24492L21.9651 7.21636L21.9746 7.20684L22.0055 7.17827L22.0151 7.16875L22.046 7.14019L22.0555 7.13305L22.0865 7.10448L22.096 7.09734L22.1269 7.07116L22.1365 7.06402L22.1674 7.03783L22.1769 7.03069L22.2103 7.00451L22.2198 6.99737L22.2531 6.97118L22.2626 6.96404L22.2959 6.93786L22.3055 6.93072L22.3388 6.90453L22.3483 6.89739L22.3816 6.87359L22.3935 6.86645L22.4269 6.84264L22.4388 6.8355L22.4721 6.8117L22.4816 6.80456L22.5149 6.78075L22.5245 6.77361L22.5602 6.74981L22.5697 6.74267L22.6054 6.71887L22.6149 6.71172L22.6506 6.6903L22.6601 6.68316L22.6958 6.66174L22.7077 6.6546L22.7434 6.63317L22.7554 6.62603L22.7911 6.60461L22.803 6.59747L22.8387 6.57605L22.8506 6.5689L22.8887 6.54748L22.9006 6.54034L22.9386 6.5213L22.9505 6.51416L22.9886 6.49511L23.0005 6.49035L23.0386 6.47131L23.0505 6.46655L23.0886 6.44751L23.1005 6.44275L23.1386 6.4237L23.1505 6.41894L23.1886 6.40228L23.2005 6.39752L23.2386 6.38086L23.2505 6.3761L23.2885 6.35943L23.3004 6.35467L23.3409 6.33801L23.3528 6.33325L23.3933 6.31659L23.4052 6.31183L23.4457 6.29754L23.4576 6.29278L23.498 6.2785L23.5099 6.27374L23.5504 6.25946L23.5623 6.2547L23.6028 6.24042L23.6147 6.23565L23.6551 6.22137L23.667 6.21661L23.7075 6.20471L23.7194 6.19995L23.7599 6.18805L23.7718 6.18329L23.8122 6.17139L23.8241 6.16662L23.8646 6.15472L23.8765 6.15234L23.917 6.14044L23.9289 6.13806L23.9693 6.12854L23.9812 6.12616L24.0217 6.11664L24.0336 6.11426L24.0764 6.10474L24.0883 6.10235L24.1312 6.09283L24.1431 6.09045L24.1836 6.08093L24.1955 6.07855L24.2383 6.07141L24.2502 6.06903L24.2931 6.06189L24.305 6.05951L24.3502 6.05237L24.3621 6.04999L24.4049 6.04285L24.4168 6.04047L24.4621 6.03571L24.474 6.03332L24.5168 6.02856L24.5311 6.02618L24.5739 6.02142L24.5858 6.01904L24.6311 6.01428H24.6453L24.6882 6.00952H24.7025L24.7477 6.00714H24.7596L24.8048 6.00476H24.8167L24.862 6.00238H24.8762L24.9215 6H24.9334H24.9786H24.9905H25.0357H25.05L25.0929 6.00238ZM25.0095 8.09709H24.9786H24.9477L24.9167 8.09947L24.8858 8.10185L24.8548 8.10423L24.8239 8.10661L24.7929 8.10899L24.762 8.11137L24.731 8.11613L24.7001 8.12089L24.6692 8.12565L24.6382 8.13041L24.6073 8.13518L24.5763 8.13994L24.5454 8.1447L24.5168 8.15184L24.4859 8.15898L24.4573 8.16612L24.4287 8.17326L24.3978 8.1804L24.3692 8.18754L24.3407 8.19468L24.3121 8.2042L24.2835 8.21373L24.255 8.22325L24.2288 8.23277L24.2002 8.24229L24.174 8.25181L24.1455 8.26133L24.1193 8.27324L24.0931 8.28514L24.0669 8.29704L24.0407 8.30894L24.0146 8.32084L23.9884 8.33274L23.9622 8.34465L23.936 8.35893L23.9098 8.37321L23.8836 8.38749L23.8575 8.40177L23.8313 8.41606L23.8051 8.43034L23.7789 8.44462L23.7551 8.4589L23.7289 8.47557L23.7051 8.49223L23.6813 8.50889L23.6575 8.52555L23.6337 8.54221L23.6099 8.55888L23.5861 8.57554L23.5623 8.5922L23.5385 8.61125L23.5147 8.63029L23.4909 8.64933L23.4671 8.66837L23.4457 8.68742L23.4218 8.70646L23.4004 8.7255L23.379 8.74454L23.3576 8.76359L23.3362 8.78501L23.3171 8.80643L23.2957 8.82786L23.2766 8.84928L23.2576 8.8707L23.2386 8.89213L23.2195 8.91355L23.2005 8.93497L23.1814 8.9564L23.1624 8.97782L23.1433 9.00162L23.1267 9.02543L23.1076 9.04923L23.091 9.07303L23.0719 9.09684L23.0553 9.12064L23.0386 9.14444L23.0219 9.16825L23.0053 9.19205L22.9886 9.21585L22.972 9.23966L22.9577 9.26584L22.941 9.29203L22.9267 9.31821L22.9125 9.34439L22.8982 9.37058L22.8839 9.39676L22.8696 9.42294L22.8577 9.44913L22.8458 9.47531L22.8339 9.5015L22.822 9.52768L22.8101 9.55386L22.7982 9.58005L22.7863 9.60623L22.7744 9.6348L22.7649 9.66336L22.7554 9.69192L22.7458 9.72049L22.7363 9.74905L22.7268 9.77762L22.7173 9.80618L22.7077 9.83475L22.6982 9.86331L22.6887 9.89187L22.6816 9.92044L22.6744 9.949L22.6673 9.97757L22.6625 10.0061L22.6554 10.0347L22.6506 10.0633L22.6459 10.0918L22.6411 10.1228L22.6363 10.1537L22.6316 10.1847L22.6268 10.2156L22.6244 10.2465L22.6197 10.2775L22.6173 10.3084L22.6149 10.3394L22.6125 10.3703L22.6101 10.4013L22.6078 10.4322L22.6054 10.4632V10.4941V10.525V10.556V10.5869L22.6078 10.6179L22.6101 10.6488L22.6125 10.6798L22.6149 10.7107L22.6173 10.7417L22.6197 10.7726L22.6244 10.8035L22.6268 10.8345L22.6316 10.8654L22.6363 10.8964L22.6411 10.9273L22.6459 10.9583L22.6506 10.9868L22.6554 11.0154L22.6625 11.044L22.6673 11.0725L22.6744 11.1011L22.6816 11.1297L22.6887 11.1582L22.6982 11.1868L22.7077 11.2153L22.7173 11.2439L22.7268 11.2725L22.7363 11.301L22.7458 11.3296L22.7554 11.3582L22.7649 11.3867L22.7744 11.4153L22.7863 11.4439L22.7982 11.47L22.8101 11.4962L22.822 11.5224L22.8339 11.5486L22.8458 11.5748L22.8577 11.601L22.8696 11.6272L22.8839 11.6533L22.8982 11.6795L22.9125 11.7057L22.9267 11.7319L22.941 11.7581L22.9577 11.7843L22.972 11.8104L22.9886 11.8342L23.0053 11.858L23.0219 11.8818L23.0386 11.9057L23.0553 11.9295L23.0719 11.9533L23.091 11.9771L23.1076 12.0009L23.1267 12.0247L23.1433 12.0485L23.1624 12.0723L23.1814 12.0937L23.2005 12.1151L23.2195 12.1365L23.2386 12.158L23.2576 12.1794L23.2766 12.2008L23.2957 12.2222L23.3171 12.2437L23.3362 12.2651L23.3576 12.2865L23.379 12.3056L23.4004 12.3246L23.4218 12.3436L23.4457 12.3627L23.4671 12.3817L23.4909 12.4008L23.5147 12.4198L23.5385 12.4388L23.5623 12.4579L23.5861 12.4746L23.6099 12.4912L23.6337 12.5079L23.6575 12.5245L23.6813 12.5412L23.7051 12.5579L23.7289 12.5745L23.7551 12.5912L23.7789 12.6055L23.8051 12.6198L23.8313 12.634L23.8575 12.6483L23.8836 12.6626L23.9098 12.6769L23.936 12.6912L23.9622 12.7054L23.9884 12.7174L24.0146 12.7293L24.0407 12.7412L24.0669 12.7531L24.0931 12.765L24.1193 12.7769L24.1455 12.7888L24.174 12.7983L24.2002 12.8078L24.2288 12.8173L24.255 12.8268L24.2835 12.8364L24.3121 12.8459L24.3407 12.8554L24.3692 12.8626L24.3978 12.8697L24.4287 12.8768L24.4573 12.884L24.4859 12.8911L24.5168 12.8983L24.5454 12.9054L24.5763 12.9102L24.6073 12.9149L24.6382 12.9197L24.6692 12.9244L24.7001 12.9292L24.731 12.934L24.762 12.9387L24.7929 12.9411L24.8239 12.9435L24.8548 12.9459L24.8858 12.9482L24.9167 12.9506L24.9477 12.953H24.9786H25.0095H25.0405H25.0714H25.1024H25.1333L25.1643 12.9506L25.1952 12.9482L25.2262 12.9459L25.2571 12.9435L25.288 12.9411L25.319 12.9387L25.3499 12.934L25.3809 12.9292L25.4118 12.9244L25.4428 12.9197L25.4737 12.9149L25.5047 12.9102L25.5356 12.9054L25.5642 12.8983L25.5951 12.8911L25.6237 12.884L25.6546 12.8768L25.6832 12.8697L25.7117 12.8626L25.7403 12.8554L25.7689 12.8459L25.7974 12.8364L25.826 12.8268L25.8522 12.8173L25.8808 12.8078L25.9069 12.7983L25.9355 12.7888L25.9617 12.7769L25.9879 12.765L26.014 12.7531L26.0402 12.7412L26.0664 12.7293L26.0926 12.7174L26.1188 12.7054L26.145 12.6912L26.1712 12.6769L26.1973 12.6626L26.2211 12.6483L26.2473 12.634L26.2735 12.6198L26.2997 12.6055L26.3235 12.5912L26.3497 12.5745L26.3735 12.5579L26.3973 12.5412L26.4211 12.5245L26.4449 12.5079L26.4687 12.4912L26.4925 12.4746L26.5163 12.4579L26.5401 12.4388L26.5639 12.4198L26.5877 12.4008L26.6115 12.3817L26.6353 12.3627L26.6567 12.3436L26.6782 12.3246L26.6996 12.3056L26.721 12.2865L26.7424 12.2651L26.7615 12.2437L26.7829 12.2222L26.8019 12.2008L26.821 12.1794L26.84 12.158L26.8591 12.1365L26.8781 12.1151L26.8972 12.0937L26.9162 12.0723L26.9353 12.0485L26.9543 12.0247L26.971 12.0009L26.9876 11.9771L27.0067 11.9533L27.0233 11.9295L27.04 11.9057L27.0566 11.8818L27.0733 11.858L27.09 11.8342L27.1066 11.8104L27.1209 11.7843L27.1257 11.7747L27.1352 11.7581L27.1495 11.7319L27.1638 11.7057L27.178 11.6795L27.1923 11.6533L27.2066 11.6272L27.2185 11.601L27.2304 11.5748L27.2423 11.5486L27.2542 11.5224L27.2661 11.4962L27.278 11.47L27.2899 11.4439L27.3018 11.4153L27.3113 11.3867L27.3209 11.3582L27.3304 11.3296L27.3399 11.301L27.3494 11.2725L27.3589 11.2439L27.3685 11.2153L27.378 11.1868L27.3875 11.1582L27.3947 11.1297L27.4018 11.1011L27.4089 11.0725L27.4161 11.044L27.4208 11.0154L27.4256 10.9868L27.4304 10.9583L27.4351 10.9273L27.4399 10.8964L27.4446 10.8654L27.4494 10.8345L27.4518 10.8035L27.4565 10.7726L27.4589 10.7417L27.4613 10.7107L27.4637 10.6798L27.4661 10.6488L27.4684 10.6179L27.4708 10.5869V10.556V10.525V10.4941V10.4632L27.4684 10.4322L27.4661 10.4013L27.4637 10.3703L27.4613 10.3394L27.4589 10.3084L27.4565 10.2775L27.4518 10.2465L27.4494 10.2156L27.4446 10.1847L27.4399 10.1537L27.4351 10.1228L27.4304 10.0918L27.4256 10.0633L27.4208 10.0347L27.4161 10.0061L27.4089 9.97757L27.4018 9.949L27.3947 9.92044L27.3875 9.89187L27.378 9.86331L27.3685 9.83475L27.3589 9.80618L27.3494 9.77762L27.3399 9.74905L27.3304 9.72049L27.3209 9.69192L27.3113 9.66336L27.3018 9.6348L27.2899 9.60623L27.278 9.58005L27.2661 9.55386L27.2542 9.52768L27.2423 9.5015L27.2304 9.47531L27.2185 9.44913L27.2066 9.42294L27.1923 9.39676L27.178 9.37058L27.1638 9.34439L27.1495 9.31821L27.1352 9.29203L27.1185 9.26584L27.1043 9.23966L27.0876 9.21585L27.0709 9.19205L27.0543 9.16825L27.0376 9.14444L27.0209 9.12064L27.0043 9.09684L26.9852 9.07303L26.9686 9.04923L26.9519 9.02543L26.9329 9.00162L26.9138 8.97782L26.8948 8.9564L26.8757 8.93497L26.8567 8.91355L26.8377 8.89213L26.8186 8.8707L26.7996 8.84928L26.7805 8.82786L26.7591 8.80643L26.7401 8.78501L26.7186 8.76359L26.6972 8.74454L26.6758 8.7255L26.6544 8.70646L26.6329 8.68742L26.6091 8.66837L26.5853 8.64933L26.5615 8.63029L26.5377 8.61125L26.5139 8.5922L26.4901 8.57554L26.4663 8.55888L26.4425 8.54221L26.4187 8.52555L26.3949 8.50889L26.3711 8.49223L26.3473 8.47557L26.3211 8.4589L26.2973 8.44462L26.2711 8.43034L26.2449 8.41606L26.2188 8.40177L26.195 8.38749L26.1688 8.37321L26.1426 8.35893L26.1164 8.34465L26.0902 8.33274L26.064 8.32084L26.0379 8.30894L26.0117 8.29704L25.9855 8.28514L25.9593 8.27324L25.9331 8.26133L25.9046 8.25181L25.8784 8.24229L25.8498 8.23277L25.8236 8.22325L25.7951 8.21373L25.7665 8.2042L25.7379 8.19468L25.7094 8.18754L25.6808 8.1804L25.6522 8.17326L25.6213 8.16612L25.5927 8.15898L25.5618 8.15184L25.5332 8.1447L25.5023 8.13994L25.4713 8.13518L25.4404 8.13041L25.4094 8.12565L25.3785 8.12089L25.3476 8.11613L25.3166 8.11137L25.2857 8.10899L25.2547 8.10661L25.2238 8.10423L25.1928 8.10185L25.1619 8.09947L25.1309 8.09709H25.1H25.0691H25.0381H25.0095Z" fill="#4A12C0"/>
</svg>
