<svg width="58" height="40" viewBox="0 0 58 40" fill="none" xmlns="http://www.w3.org/2000/svg">
<path fill-rule="evenodd" clip-rule="evenodd" d="M41.409 17.1596H41.5009H41.5115H41.6034H41.614H41.7059H41.7165L41.8084 17.1623H41.819L41.9109 17.1651H41.9215L42.0134 17.1678H42.024L42.1159 17.1706H42.1265L42.2184 17.1733H42.229L42.3174 17.1788H42.328L42.4199 17.1843H42.4305L42.5224 17.1898H42.533L42.6249 17.1953H42.6355L42.7239 17.2036H42.7345L42.8264 17.2118H42.837L42.9254 17.22H42.936L43.0279 17.2283H43.0385L43.1268 17.2365H43.1374L43.2293 17.2475H43.24L43.3283 17.2585H43.3389L43.4273 17.2695H43.4379L43.5263 17.2805L43.5369 17.2832L43.6288 17.2942L43.6394 17.297L43.7277 17.3107L43.7383 17.3135L43.8267 17.3272L43.8373 17.3299L43.9257 17.3437L43.9363 17.3464L44.0247 17.3602L44.0353 17.3629L44.1236 17.3766L44.1342 17.3794L44.2226 17.3959L44.2332 17.3986L44.3216 17.4151L44.3322 17.4179L44.4205 17.4343L44.4311 17.4371L44.5195 17.4536L44.5301 17.4563L44.6185 17.4728L44.6291 17.4756L44.7175 17.492L44.7281 17.4948L44.8164 17.514L44.827 17.5168L44.9154 17.536L44.926 17.5388L45.0144 17.558L45.025 17.5607L45.1133 17.58L45.1239 17.5827L45.2123 17.6019L45.2229 17.6047L45.3113 17.6267L45.3184 17.6294L45.4067 17.6514L45.4173 17.6542L45.5057 17.6761L45.5163 17.6789L45.6047 17.7009L45.6153 17.7036L45.7036 17.7256L45.7142 17.7283L45.7991 17.7531L45.8097 17.7558L45.898 17.7805L45.9086 17.7833L45.9935 17.808L46.0041 17.8108L46.0924 17.8355L46.0995 17.8382L46.1879 17.863L46.1985 17.8657L46.2833 17.8932L46.2939 17.8959L46.3788 17.9234L46.3894 17.9262L46.4742 17.9536L46.4848 17.9564L46.5696 17.9839L46.5802 17.9866L46.6651 18.0141L46.6721 18.0168L46.757 18.0471L46.7676 18.0498L46.8524 18.08L46.863 18.0828L46.9443 18.113L46.9549 18.1157L47.0397 18.146L47.0504 18.1487L47.1316 18.1789L47.1423 18.1817L47.2236 18.2119L47.2342 18.2147L47.3155 18.2476L47.3261 18.2504L47.4074 18.2833L47.418 18.2861L47.4993 18.3191L47.5099 18.3218L47.5912 18.3548L47.6018 18.3603L47.6831 18.3932L47.6901 18.3987L47.7714 18.4345L47.782 18.44L47.8633 18.4757L47.8704 18.4812L47.9517 18.5169L47.9623 18.5196L48.0436 18.5553L48.0542 18.5608L48.1355 18.5966L48.1461 18.6021L48.2274 18.6378L48.238 18.6433L48.3193 18.6817L48.3299 18.6872L48.4112 18.7257L48.4183 18.7312L48.4996 18.7697L48.5066 18.7752L48.5879 18.8136L48.5985 18.8191L48.6763 18.8576L48.6869 18.8631L48.7682 18.9043L48.7753 18.9098L48.8566 18.951L48.8636 18.9565L48.9449 18.9977L48.952 19.0032L49.0333 19.0444L49.0404 19.0499L49.1182 19.0911L49.1288 19.0966L49.2065 19.1378L49.2136 19.1433L49.2949 19.1873L49.302 19.1928L49.3797 19.2367L49.3868 19.2422L49.4645 19.2862L49.4752 19.2917L49.5529 19.3357L49.56 19.3411L49.6378 19.3851L49.6484 19.3906L49.7261 19.4373L49.7332 19.4428L49.8109 19.4895L49.818 19.495L49.8958 19.5417L49.9064 19.5472L49.9842 19.5939L49.9912 19.5994L50.069 19.6461L50.0761 19.6516L50.1538 19.6983L50.1609 19.7038L50.2387 19.7533L50.2457 19.7588L50.3235 19.8082L50.3305 19.8137L50.4048 19.8632L50.4154 19.8687L50.4896 19.9181L50.4967 19.9236L50.5709 19.9731L50.578 19.9786L50.6557 20.028L50.6628 20.0335L50.737 20.0857L50.7441 20.0912L50.8183 20.1434L50.8254 20.1489L50.8961 20.2011L50.9032 20.2066L50.9774 20.2588L50.9845 20.2643L51.0552 20.3165L51.0622 20.322L51.1365 20.3742L51.1435 20.3797L51.2142 20.4347L51.2213 20.4402L51.292 20.4951L51.2991 20.5006L51.3698 20.5556L51.3768 20.5611L51.4475 20.616L51.4546 20.6215L51.5253 20.6765L51.5323 20.682L51.603 20.7369L51.6101 20.7424L51.6808 20.8001L51.6879 20.8056L51.7586 20.8633L51.7656 20.8715L51.8363 20.9292L51.8434 20.9375L51.9141 20.9952L51.9212 21.0034L51.9919 21.0611L51.9989 21.0694L52.0661 21.1271L52.0732 21.1353L52.1403 21.1957L52.1474 21.204L52.2145 21.2644L52.2216 21.2727L52.2888 21.3331L52.2958 21.3414L52.363 21.4018L52.3701 21.4101L52.4372 21.4705L52.4443 21.4787L52.5115 21.5392L52.5185 21.5474L52.5857 21.6106L52.5928 21.6189L52.6599 21.6821L52.667 21.6903L52.7341 21.7535L52.7412 21.7617L52.8084 21.8249L52.8154 21.8332L52.8826 21.8964L52.8897 21.9046L52.9568 21.9678L52.9639 21.9761L53.0275 22.042L53.0346 22.0502L53.1018 22.1162L53.1088 22.1244L53.1724 22.1904L53.1795 22.1986L53.2396 22.2645L53.2467 22.2728L53.3068 22.3387L53.3138 22.347L53.3739 22.4129L53.381 22.4212L53.4411 22.4871L53.4482 22.4953L53.5082 22.5613L53.5153 22.5695L53.5754 22.6382L53.5825 22.6465L53.6426 22.7151L53.6496 22.7234L53.7097 22.7921L53.7168 22.8003L53.7769 22.869L53.784 22.8772L53.8405 22.9459L53.8476 22.9542L53.9041 23.0229L53.9112 23.0311L53.9713 23.0998L53.9784 23.108L54.0349 23.1767L54.042 23.185L54.0985 23.2564L54.1056 23.2647L54.1622 23.3361L54.1692 23.3443L54.2258 23.4158L54.2329 23.424L54.2894 23.4954L54.2965 23.5037L54.353 23.5751L54.3601 23.5834L54.4167 23.6548L54.4237 23.6631L54.4803 23.7345L54.4874 23.7427L54.5404 23.8142L54.5474 23.8224L54.604 23.8938L54.6111 23.9021L54.6606 23.9763L54.6676 23.9845L54.7206 24.0587L54.7277 24.0669L54.7772 24.1411L54.7843 24.1494L54.8373 24.2235L54.8444 24.2318L54.8938 24.306L54.9009 24.3142L54.9504 24.3884L54.9575 24.3966L55.007 24.4708L55.014 24.4791L55.0635 24.5533L55.0706 24.5615L55.1201 24.6357L55.1271 24.6439L55.1766 24.7181L55.1802 24.7264L55.2296 24.8033L55.2367 24.8115L55.2827 24.8885L55.2897 24.8967L55.3357 24.9736L55.3427 24.9819L55.3887 25.0588L55.3958 25.067L55.4417 25.144L55.4488 25.1522L55.4947 25.2292L55.5018 25.2374L55.5478 25.3143L55.5548 25.3226L55.6008 25.3995L55.6079 25.4077L55.6503 25.4847L55.6573 25.4929L55.7033 25.5698L55.7068 25.5781L55.7492 25.655L55.7563 25.6633L55.7987 25.7429L55.8023 25.7512L55.8482 25.8309L55.8518 25.8391L55.8942 25.9188L55.8977 25.927L55.9401 26.0067L55.9436 26.015L55.9825 26.0946L55.9861 26.1029L56.0285 26.1826L56.032 26.1908L56.0709 26.2705L56.0744 26.2787L56.1133 26.3584L56.1204 26.3666L56.1593 26.4463L56.1628 26.4546L56.2017 26.5342L56.2088 26.5425L56.2441 26.6249L56.2512 26.6332L56.2865 26.7156L56.2901 26.7266L56.3289 26.809L56.3325 26.82L56.3678 26.9024L56.3713 26.9134L56.4067 26.9958L56.4102 27.0068L56.4456 27.0892L56.4491 27.1002L56.4845 27.1827L56.488 27.1937L56.5233 27.2761L56.5269 27.2871L56.5622 27.3695L56.5658 27.3805L56.6011 27.4629L56.6046 27.4739L56.6365 27.5563L56.64 27.5673L56.6753 27.6497L56.6789 27.6607L56.7107 27.7432L56.7142 27.7542L56.746 27.8366L56.7496 27.8476L56.7778 27.9327L56.7814 27.9437L56.8096 28.0289L56.8132 28.0399L56.8415 28.1251L56.845 28.1361L56.8733 28.2212L56.8768 28.2322L56.9051 28.3174L56.9086 28.3284L56.9369 28.4136L56.9404 28.4246L56.9687 28.5097L56.9722 28.5207L57.0005 28.6059L57.0041 28.6169L57.0288 28.7021L57.0323 28.713L57.0571 28.7982L57.0606 28.8092L57.0854 28.8944L57.0889 28.9054L57.1136 28.9906L57.1172 29.0015L57.1419 29.0867L57.1454 29.0977L57.1702 29.1829L57.1737 29.1939L57.1985 29.279L57.202 29.29L57.2267 29.378L57.2303 29.3889L57.255 29.4769L57.2586 29.4879L57.2798 29.5758L57.2833 29.5868L57.3045 29.6747L57.308 29.6857L57.3292 29.7736L57.3328 29.7846L57.354 29.8725L57.3575 29.8835L57.3752 29.9714L57.3787 29.9824L57.3964 30.0703L57.3999 30.0813L57.4176 30.1693L57.4212 30.1802L57.4388 30.2682L57.4424 30.2792L57.46 30.3671L57.4636 30.3781L57.4812 30.466L57.4848 30.477L57.5025 30.5649L57.506 30.5759L57.5237 30.6638V30.6748L57.5413 30.7627L57.5449 30.7737L57.559 30.8616L57.5625 30.8726L57.5767 30.9605V30.9715L57.5908 31.0595L57.5943 31.0705L57.6085 31.1584L57.612 31.1694L57.6262 31.2573L57.6297 31.2683L57.6438 31.3589V31.3699L57.658 31.4606L57.6615 31.4716L57.6721 31.5623L57.6756 31.5733L57.6863 31.6639V31.6749L57.6969 31.7656L57.7004 31.7766L57.7075 31.8672L57.711 31.8782L57.7181 31.9689L57.7216 31.9799L57.7287 32.0706V32.0815L57.7357 32.1722L57.7393 32.1832L57.7463 32.2739L57.7499 32.2849L57.7569 32.3755V32.3865L57.764 32.4772L57.7676 32.4882L57.7711 32.5789L57.7746 32.5898L57.7782 32.6805V32.6915L57.7852 32.7822V32.7932L57.7888 32.8838V32.8948L57.7923 32.9855V32.9965L57.7958 33.0872V33.0981L57.7994 33.1888V33.1998L57.8029 33.2905V33.3015L57.8064 33.3921V33.4031V33.4938V33.5048V33.5955V33.6009V38.2526L57.7852 38.5246L57.7216 38.7911L57.6191 39.0438L57.4742 39.2774L57.2974 39.4862L57.0889 39.6648L56.8556 39.8077L56.6011 39.9121L56.336 39.9753L56.0638 39.9972H32.9257C32.6394 39.9972 32.3531 39.9395 32.088 39.8296C31.5578 39.6098 31.1371 39.1867 30.9145 38.6564L30.9003 38.6262C30.8473 38.5026 30.8226 38.3679 30.8261 38.2333C30.8296 38.1097 30.8544 37.9888 30.9003 37.8734L30.9145 37.8432C31.1336 37.3129 31.5578 36.8898 32.088 36.67C32.3531 36.5601 32.6394 36.5024 32.9257 36.5024H54.3248V33.6009L54.3212 33.5185V33.4388V33.3592L54.3177 33.2795L54.3142 33.1998L54.3106 33.1201L54.3071 33.0404L54.3036 32.9608L54.3 32.8811L54.2965 32.8014L54.2894 32.7217L54.2859 32.642L54.2788 32.5624L54.2717 32.4827L54.2647 32.403L54.2576 32.3233L54.2505 32.2437L54.2435 32.164L54.2364 32.0843L54.2258 32.0046L54.2152 31.9249L54.2046 31.8453L54.194 31.7656L54.1834 31.6859L54.1692 31.609L54.1551 31.5293L54.141 31.4524L54.1268 31.3754L54.1127 31.2985L54.0985 31.2216L54.0844 31.1446L54.0667 31.0677L54.0526 30.9908L54.0349 30.9138L54.0208 30.8369L54.0031 30.76L53.9854 30.683L53.9678 30.6061L53.9501 30.5292L53.9324 30.4523L53.9147 30.3753L53.8935 30.2984L53.8759 30.2215L53.8546 30.1445L53.8334 30.0676L53.8087 29.9907L53.7875 29.9137L53.7627 29.8395L53.738 29.7654L53.7133 29.6912L53.6885 29.617L53.6638 29.5428L53.639 29.4686L53.6143 29.3944L53.5895 29.3203L53.5648 29.2461L53.5365 29.1719L53.5082 29.0977L53.48 29.0235L53.4517 28.9493L53.4234 28.8752L53.3951 28.801L53.3669 28.7268L53.3386 28.6526L53.3103 28.5812L53.2785 28.5097L53.2467 28.4383L53.2149 28.3669L53.1831 28.2954L53.1512 28.224L53.1159 28.1525L53.0805 28.0811L53.0452 28.0097L53.0098 27.9382L52.9745 27.8668L52.9392 27.7954L52.9038 27.7239L52.8649 27.6552L52.8296 27.5866L52.7942 27.5179L52.7554 27.4492L52.7165 27.3805L52.6776 27.3118L52.6387 27.2431L52.5998 27.1744L52.5609 27.1057L52.5221 27.037L52.4832 26.9684L52.4443 26.8997L52.4054 26.831L52.363 26.765L52.3206 26.6991L52.2782 26.6332L52.2358 26.5672L52.1933 26.5013L52.1474 26.4353L52.1014 26.3694L52.0555 26.3034L52.0095 26.2375L51.9636 26.1716L51.9176 26.1056L51.8717 26.0424L51.8257 25.9792L51.7798 25.916L51.7338 25.8528L51.6843 25.7897L51.6349 25.7265L51.5889 25.6633L51.5394 25.6001L51.4899 25.5369L51.4404 25.4737L51.391 25.4132L51.3415 25.3528L51.292 25.2923L51.2425 25.2319L51.1895 25.1715L51.14 25.111L51.087 25.0506L51.034 24.9901L50.9809 24.9297L50.9244 24.872L50.8714 24.8143L50.8148 24.7566L50.7582 24.6989L50.7017 24.6412L50.6451 24.5835L50.5886 24.5258L50.532 24.4681L50.4755 24.4104L50.4189 24.3554L50.3624 24.3005L50.3058 24.2455L50.2493 24.1906L50.1892 24.1356L50.1291 24.0807L50.069 24.0257L50.0089 23.9735L49.9488 23.9213L49.8887 23.8691L49.8286 23.8169L49.7685 23.7647L49.7084 23.7125L49.6484 23.6603L49.5883 23.6108L49.5282 23.5614L49.4681 23.5119L49.408 23.4625L49.3444 23.413L49.2843 23.3636L49.2207 23.3141L49.157 23.2674L49.0934 23.2207L49.0298 23.174L48.9662 23.1273L48.899 23.0806L48.8354 23.0339L48.7682 22.9871L48.7011 22.9432L48.6339 22.8992L48.5667 22.8553L48.4996 22.8113L48.4324 22.7673L48.3653 22.7234L48.2981 22.6822L48.2309 22.641L48.1638 22.5997L48.0966 22.5585L48.0295 22.5173L47.9623 22.4761L47.8951 22.4349L47.828 22.3964L47.7608 22.358L47.6901 22.3195L47.623 22.281L47.5523 22.2426L47.4816 22.2041L47.4109 22.1684L47.3402 22.1327L47.2695 22.0969L47.1988 22.0612L47.1281 22.0255L47.0574 21.9898L46.9867 21.9568L46.916 21.9238L46.8453 21.8909L46.7746 21.8579L46.704 21.8249L46.6333 21.792L46.5626 21.759L46.4919 21.7288L46.4212 21.6986L46.3505 21.6683L46.2763 21.6381L46.2056 21.6079L46.1313 21.5777L46.0606 21.5502L45.9864 21.5227L45.9122 21.4952L45.8415 21.4678L45.7637 21.4403L45.693 21.4128L45.6153 21.3881L45.541 21.3633L45.4668 21.3386L45.3926 21.3139L45.3148 21.2892L45.2406 21.2644L45.1628 21.2425L45.0886 21.2205L45.0108 21.1985L44.9331 21.1765L44.8553 21.1545L44.7775 21.1326L44.6998 21.1133L44.622 21.0941L44.5443 21.0749L44.4665 21.0556L44.3887 21.0364L44.311 21.0172L44.2332 21.0007L44.1554 20.9842L44.0777 20.9677L43.9999 20.9512L43.9221 20.9347L43.8444 20.9182L43.7666 20.9045L43.6889 20.8908L43.6111 20.877L43.5333 20.8633L43.4556 20.8496L43.3778 20.8386L43.3 20.8276L43.2223 20.8166L43.1445 20.8056L43.0667 20.7946L42.989 20.7836L42.9112 20.7754L42.8299 20.7671L42.7522 20.7589L42.6744 20.7506L42.5931 20.7424L42.5153 20.7342L42.434 20.7287L42.3563 20.7232L42.275 20.7177L42.1972 20.7122L42.1159 20.7067L42.0382 20.7012L41.9569 20.6984L41.8756 20.6957L41.7978 20.6929L41.7165 20.6902L41.6352 20.6874H41.5539H41.4726H41.3948H41.2711H41.1509L41.0308 20.6902L40.9106 20.6929L40.7904 20.6957L40.6702 20.7012L40.55 20.7067L40.4299 20.7122L40.3097 20.7204L40.1895 20.7287L40.0693 20.7369L39.9491 20.7479L39.829 20.7589L39.7088 20.7699L39.5886 20.7836L39.4684 20.7974L39.3482 20.8111L39.2281 20.8276L39.1079 20.8441L38.9912 20.8605L38.8711 20.877L38.7544 20.8963L38.6342 20.9155L38.5176 20.9347L38.4009 20.9567L38.2843 20.9787L38.1677 21.0007L38.051 21.0254L37.9344 21.0501L37.8213 21.0749L37.7046 21.0996L37.5915 21.1271L37.4749 21.1545L37.3617 21.182L37.2486 21.2122L37.1355 21.2425L37.0224 21.2727L36.9093 21.3029L36.7962 21.3359L36.6831 21.3688L36.57 21.4018L36.4569 21.4375L36.3438 21.4732L36.2306 21.509L36.1175 21.5474L36.0044 21.5859L35.8948 21.6244L35.7817 21.6628L35.6722 21.704L35.5626 21.7453L35.453 21.7865L35.3434 21.8304L35.2339 21.8744L35.1243 21.9184L35.0147 21.9623L34.9051 22.009L34.7956 22.0557L34.686 22.1024L34.5799 22.1491L34.4704 22.1986L34.3643 22.2481L34.2583 22.2975L34.1522 22.3497L34.0462 22.4019L33.9402 22.4541L33.8341 22.5063L33.7316 22.5613L33.6291 22.6162L33.5266 22.6712L33.4241 22.7261L33.3216 22.7838L33.2191 22.8415L33.1166 22.8992L33.0141 22.9597L32.9116 23.0201L32.8091 23.0806L32.7101 23.141L32.6111 23.2042L32.5121 23.2674L32.4132 23.3306L32.3142 23.3938L32.2152 23.4597L32.1163 23.5257L32.0173 23.5916L31.9219 23.6576L31.8229 23.7262L31.7274 23.7949L31.632 23.8636L31.5366 23.9323L31.4411 24.0037L31.3457 24.0752L31.2538 24.1466L31.1619 24.2181L31.07 24.2922L30.9781 24.3664L30.8862 24.4406L30.7943 24.5148L30.7024 24.5917L30.614 24.6687L30.5256 24.7456L30.4337 24.8225L30.3454 24.9022L30.257 24.9819L30.1686 25.0616L30.0803 25.1412L29.9919 25.2237L29.9035 25.3061L29.8187 25.3885L29.7339 25.4709L29.649 25.5561L29.5642 25.6413L29.4829 25.7265L29.4016 25.8116L29.3203 25.8996L29.239 25.9875L29.1577 26.0754L29.0764 26.1633L28.9987 26.254L28.9174 26.3447L28.8396 26.4353L28.7618 26.526L28.6841 26.6167L28.6063 26.7101L28.5285 26.8035L28.4508 26.8969L28.3765 26.9903L28.2988 27.0865L28.2246 27.1854L28.1008 27.3475L28.0973 27.3503L28.0301 27.4382L28.0266 27.4437L27.9559 27.5316L27.9524 27.5371L27.8817 27.625L27.8782 27.6305L27.811 27.7184L27.8075 27.7239L27.7403 27.8119L27.7368 27.8173L27.6661 27.9053L27.6625 27.9108L27.5954 27.9959L27.5918 28.0014L27.5212 28.0866L27.5176 28.0921L27.4469 28.1773L27.4434 28.1828L27.3727 28.2679L27.3692 28.2734L27.2985 28.3586L27.2949 28.3641L27.2242 28.4493L27.2207 28.4548L27.203 28.4768L27.15 28.54L27.1465 28.5454L27.0758 28.6306L27.0722 28.6361L27.0015 28.7213L26.998 28.7268L26.9273 28.812L26.9238 28.8175L26.8531 28.8999L26.8496 28.9054L26.7789 28.9878L26.7753 28.9933L26.7046 29.0757L26.7011 29.0812L26.6269 29.1636L26.6233 29.1691L26.5526 29.2516L26.5491 29.2571L26.4749 29.3395L26.4713 29.345L26.3971 29.4274L26.3936 29.4329L26.3194 29.5153L26.3158 29.5208L26.2416 29.6033L26.2381 29.6088L26.1638 29.6884L26.1603 29.6939L26.0825 29.7736L26.079 29.7791L26.0048 29.8588L26.0012 29.8643L25.9235 29.944L25.9199 29.9494L25.8422 30.0291L25.8386 30.0346L25.7609 30.1143L25.7573 30.1198L25.6796 30.1995L25.676 30.205L25.5983 30.2847L25.5947 30.2901L25.517 30.3698L25.5134 30.3753L25.4357 30.4523L25.4321 30.4577L25.3544 30.5347L25.3508 30.5402L25.2731 30.6171L25.2695 30.6226L25.1918 30.6995L25.1883 30.705L25.1105 30.782L25.107 30.7875L25.0292 30.8644L25.0257 30.8699L24.9479 30.9468L24.9444 30.9523L24.8666 31.0292L24.8595 31.0347L24.7818 31.1117L24.7782 31.1172L24.6969 31.1913L24.6934 31.1968L24.6156 31.271L24.6121 31.2765L24.5308 31.3507L24.5273 31.3562L24.446 31.4304L24.4424 31.4359L24.3611 31.5101L24.3576 31.5156L24.2763 31.5897L24.2692 31.5952L24.1879 31.6694L24.1844 31.6749L24.1031 31.7491L24.0996 31.7546L24.0183 31.8288L24.0147 31.8343L23.9334 31.9057L23.9299 31.9112L23.8486 31.9826L23.8451 31.9854L23.7638 32.0568L23.7602 32.0596L23.6789 32.131L23.6719 32.1338L23.5906 32.2052L23.5835 32.2079L23.5022 32.2794L23.4987 32.2849L23.4174 32.3563L23.4103 32.3591L23.329 32.4305L23.3255 32.4332L23.2442 32.5047L23.2371 32.5074L23.1558 32.5761L23.1487 32.5789L23.0674 32.6475L23.0639 32.6503L22.9791 32.719L22.9755 32.7217L22.8907 32.7904L22.8836 32.7932L22.8023 32.8619L22.7953 32.8646L22.7104 32.9333L22.7069 32.936L22.6221 33.0047L22.615 33.0075L22.5302 33.0762L22.5266 33.0789L22.4418 33.1476L22.4347 33.1503L22.3499 33.2163L22.3428 33.219L22.258 33.285L22.2509 33.2877L22.1661 33.3537L22.159 33.3564L22.0742 33.4224L22.0671 33.4251L21.9787 33.491L21.9752 33.4938L21.8868 33.5597L21.8833 33.5625L21.7949 33.6284L21.7879 33.6312L21.6995 33.6971L21.696 33.6999L21.6076 33.7658L21.6041 33.7685L21.5157 33.8317L21.5086 33.8345L21.4203 33.8977L21.4132 33.9004L21.3248 33.9636L21.3178 33.9664L21.2294 34.0296L21.2259 34.0323L21.1375 34.0955L21.134 34.0983L21.0456 34.1614L21.0421 34.1642L20.9537 34.2274L20.9466 34.2301L20.8582 34.2933L20.8547 34.2961L20.7628 34.3565L20.7593 34.3593L20.6709 34.4197L20.6638 34.4225L20.5755 34.4829L20.5684 34.4857L20.48 34.5461L20.4765 34.5489L20.3846 34.6093L20.3775 34.612L20.2892 34.6725L20.2821 34.6752L20.1902 34.7357L20.1867 34.7384L20.0948 34.7989L20.0912 34.8016L19.9993 34.8593L19.9922 34.8621L19.9003 34.9198L19.8968 34.9225L19.8049 34.9802L19.8014 34.983L19.7095 35.0407L19.7024 35.0434L19.6105 35.1011L19.6034 35.1039L19.5115 35.1616L19.5045 35.1643L19.4126 35.222L19.4055 35.2247L19.3136 35.2824L19.3065 35.2852L19.2146 35.3429L19.2111 35.3456L19.1192 35.4006L19.1156 35.4033L19.0237 35.4583L19.0167 35.461L18.9248 35.516L18.9212 35.5187L18.8293 35.5737L18.8223 35.5764L18.7304 35.6314L18.7233 35.6341L18.6314 35.6891L18.6279 35.6918L18.5324 35.7468L18.5289 35.7495L18.4334 35.8045L18.4299 35.8072L18.3345 35.8594L18.3274 35.8622L18.2355 35.9144L18.2284 35.9171L18.1365 35.9693L18.1295 35.9721L18.034 36.0243L18.0305 36.027L17.9351 36.0792L17.928 36.082L17.8325 36.1342L17.829 36.1369L17.7336 36.1891L17.7265 36.1919L17.6311 36.2441L17.624 36.2468L17.5286 36.2963L17.5215 36.299L17.4261 36.3485L17.419 36.3512L17.3235 36.4007L17.3165 36.4034L17.221 36.4529L17.214 36.4557L17.1185 36.5051L17.1115 36.5079L17.016 36.5573L17.009 36.5601L16.91 36.6095L16.9065 36.6123L16.8075 36.6617L16.8004 36.6645L16.7014 36.7112L16.6979 36.7139L16.5989 36.7606L16.5919 36.7634L16.4929 36.8101L16.4894 36.8128L16.3904 36.8595L16.3869 36.8623L16.2879 36.909L16.2808 36.9117L16.1818 36.9585L16.1748 36.9612L16.0758 37.0079L16.0687 37.0107L15.9698 37.0574L15.9662 37.0601L15.8673 37.1041L15.8637 37.1068L15.7647 37.1508L15.7577 37.1535L15.6587 37.1975L15.6516 37.2002L15.5527 37.2442L15.5491 37.2469L15.4502 37.2909L15.4431 37.2937L15.3441 37.3376L15.3406 37.3404L15.2416 37.3843L15.2345 37.3871L15.1356 37.431L15.1285 37.4338L15.0295 37.475L15.0225 37.4777L14.9235 37.519L14.9164 37.5217L14.8174 37.5629L14.8104 37.5657L14.7114 37.6069L14.7043 37.6096L14.6054 37.6508L14.5983 37.6536L14.4993 37.6948L14.4923 37.6975L14.3933 37.7388L14.3862 37.7415L14.2837 37.78L14.2802 37.7827L14.1777 37.8212L14.1706 37.8239L14.0681 37.8624L14.0646 37.8651L13.9621 37.9036L13.955 37.9064L13.8525 37.9448L13.8454 37.9476L13.7464 37.986L13.7394 37.9888L13.6369 38.0273L13.6298 38.03L13.5273 38.0685L13.5202 38.0712L13.4177 38.1069L13.4106 38.1097L13.3081 38.1454L13.3011 38.1481L13.1986 38.1839L13.1915 38.1866L13.089 38.2223L13.0819 38.2251L12.9794 38.2608L12.9723 38.2635L12.8698 38.2993L12.8628 38.302L12.7603 38.3377L12.7532 38.3405L12.6507 38.3762L12.6436 38.3789L12.5411 38.4119L12.5376 38.4147L12.4351 38.4476L12.428 38.4504L12.3255 38.4833L12.3184 38.4861L12.2159 38.5191L12.2088 38.5218L12.1063 38.5548L12.0993 38.5575L11.9968 38.5905L11.9897 38.5932L11.8872 38.6262L11.8801 38.629L11.7776 38.6592L11.7705 38.6619L11.668 38.6922L11.661 38.6949L11.5585 38.7251L11.5514 38.7279L11.4489 38.7581L11.4418 38.7609L11.3393 38.7911L11.3322 38.7938L11.2297 38.824L11.2227 38.8268L11.1202 38.857L11.1131 38.8598L11.007 38.8872L11 38.89L10.8975 38.9175L10.8904 38.9202L10.7844 38.9477L10.7773 38.9504L10.6748 38.9779L10.6677 38.9807L10.5617 39.0081L10.5546 39.0109L10.4486 39.0384L10.445 39.0411L10.339 39.0686L10.3319 39.0713L10.2259 39.0988L10.2188 39.1015L10.1128 39.1263L10.1057 39.129L9.99966 39.1537L9.99612 39.1565L9.89008 39.1812L9.88301 39.184L9.77697 39.2087L9.7699 39.2114L9.66033 39.2362H9.65679L9.54722 39.2609H9.54015L9.43411 39.2856H9.42704L9.32099 39.3076H9.31393L9.20789 39.3296H9.20082L9.09478 39.3516H9.08771L8.97813 39.3736H8.97106L8.86502 39.3955H8.85795L8.74838 39.4175H8.74131L8.63527 39.4395H8.62819L8.51862 39.4615H8.51155L8.40551 39.4807H8.39844L8.28886 39.4999H8.2818L8.17222 39.5192H8.16868L8.05911 39.5384H8.05204L7.94246 39.5576H7.93539L7.82582 39.5769H7.81875L7.70917 39.5961H7.70211L7.59253 39.6126H7.58546L7.47588 39.6291H7.46882L7.35924 39.6456H7.35217L7.2426 39.662H7.23552L7.12595 39.6785H7.11888L7.00931 39.695H7.00223L6.89266 39.7115H6.88559L6.77601 39.7252H6.77248L6.6629 39.739H6.65584L6.54626 39.7527H6.53919L6.42961 39.7665H6.42608L6.3165 39.7802H6.30943L6.19986 39.7939H6.19279L6.08321 39.8077H6.07615L5.96657 39.8187H5.9595L5.84992 39.8296H5.84286L5.73328 39.8406H5.72621L5.61663 39.8516H5.60956L5.49999 39.8626H5.49292L5.38335 39.8736H5.37627L5.2667 39.8846H5.25963L5.15005 39.8928H5.14298L5.03341 39.9011H5.02634L4.91676 39.9093H4.9097L4.80012 39.9176H4.79305L4.68347 39.9258H4.67641L4.56683 39.9341H4.56329L4.45372 39.9423H4.44665L4.33707 39.9478H4.33L4.2169 39.9533H4.20982L4.10025 39.9588H4.09318L3.9836 39.9643H3.97653L3.86696 39.9698H3.85989L3.75031 39.9753H3.74325L3.63367 39.9808H3.6266L3.51349 39.9835H3.50642L3.39684 39.9863H3.38978L3.2802 39.989H3.27313L3.16355 39.9918H3.15649L3.04337 39.9945H3.03631L2.92673 39.9972H2.91966L2.81008 40H2.80302H2.6899H2.68284H2.57326H2.56619H2.45308H2.44955H1.74614L1.47397 39.978L1.20886 39.9148L0.954368 39.8104L0.721079 39.6675L0.512531 39.489L0.335796 39.2801L0.190875 39.0466L0.0883674 38.7938L0.0247412 38.5273L0 38.2553V38.2498L0.00353383 38.1646V38.1536V38.0685V38.0575L0.00706767 37.9723V37.9613L0.0106058 37.8761V37.8651L0.0141397 37.78V37.769L0.0176735 37.6838L0.0212073 37.6728L0.0247412 37.5876V37.5767L0.0282793 37.4915L0.0318131 37.4805L0.035347 37.3953V37.3843L0.0388808 37.2992L0.0424146 37.2882L0.0459528 37.203L0.0494866 37.192L0.0565543 37.1068V37.0958L0.0636263 37.0107V36.9997L0.0706939 36.9145V36.9035L0.0777616 36.8183V36.8073L0.0848336 36.7222L0.0883674 36.7112L0.0954351 36.626V36.615L0.106041 36.5298V36.5188L0.116647 36.4337V36.4227L0.127248 36.3375L0.130782 36.3265L0.141388 36.2413V36.2304L0.155528 36.1452V36.1342L0.169667 36.0518L0.173201 36.0408L0.183803 35.9583L0.187341 35.9474L0.201476 35.8649L0.205014 35.8539L0.219149 35.7715L0.222688 35.7605L0.236823 35.6781L0.240361 35.6671L0.254496 35.5847L0.258035 35.5737L0.27217 35.4913L0.275708 35.4803L0.289843 35.3978L0.293382 35.3869L0.307517 35.3044L0.311055 35.2934L0.328729 35.211L0.332262 35.2L0.349936 35.1176L0.35347 35.1066L0.371143 35.0242L0.374677 35.0132L0.392351 34.9308L0.395884 34.9198L0.413558 34.8373L0.417096 34.8264L0.434769 34.7439L0.438303 34.7329L0.455977 34.6505L0.459511 34.6395L0.480718 34.5571L0.484252 34.5461L0.505463 34.4637L0.508997 34.4527L0.530205 34.3703L0.533738 34.3593L0.554946 34.2768L0.558484 34.2659L0.579691 34.1834L0.583225 34.1724L0.604432 34.0928L0.607966 34.0818L0.629178 34.0021L0.632712 33.9911L0.657453 33.9114L0.660987 33.9004L0.685732 33.8208L0.689266 33.8098L0.714007 33.7301L0.717545 33.7191L0.742286 33.6394L0.74582 33.6284L0.770566 33.5487L0.7741 33.5378L0.798841 33.4581L0.802374 33.4471L0.82712 33.3674L0.830654 33.3564L0.855395 33.2767L0.858933 33.2657L0.887208 33.1861L0.890742 33.1751L0.919021 33.0954L0.922555 33.0844L0.950834 33.0047L0.954368 32.9937L0.982647 32.9141L0.986181 32.9031L1.01446 32.8234L1.01799 32.8124L1.04627 32.7327L1.0498 32.7217L1.07808 32.6448L1.08162 32.6338L1.1099 32.5569L1.11343 32.5459L1.14524 32.469L1.14878 32.458L1.18059 32.381L1.18412 32.37L1.2124 32.2931L1.21594 32.2821L1.25128 32.2052L1.25482 32.1942L1.28663 32.1173L1.29016 32.1063L1.32551 32.0293L1.32905 32.0184L1.36439 31.9414L1.36793 31.9304L1.40327 31.8535L1.40681 31.8425L1.44216 31.7656L1.44923 31.7546L1.48457 31.6777L1.48811 31.6694L1.52345 31.5925L1.52699 31.5842L1.56233 31.5073L1.56587 31.4963L1.60475 31.4221L1.60829 31.4139L1.64363 31.3397L1.6507 31.3315L1.68605 31.2573L1.68959 31.249L1.72847 31.1749L1.73554 31.1666L1.77442 31.0924L1.77795 31.0842L1.81684 31.01L1.8239 31.0018L1.86278 30.9276L1.86986 30.9193L1.90874 30.8451L1.9158 30.8369L1.95469 30.7627L1.95822 30.7545L1.9971 30.6803L2.00417 30.6721L2.04306 30.5979L2.05012 30.5896L2.08901 30.5154L2.09608 30.5072L2.13849 30.4358L2.14203 30.4275L2.18444 30.3561L2.19151 30.3478L2.23393 30.2764L2.241 30.2682L2.28341 30.1967L2.29049 30.1885L2.33643 30.117L2.33997 30.1088L2.38592 30.0374L2.39299 30.0291L2.43894 29.9577L2.44601 29.9494L2.49196 29.878L2.49903 29.8698L2.54498 29.7983L2.55205 29.7901L2.598 29.7187L2.60154 29.7104L2.64749 29.639L2.65456 29.6307L2.70051 29.562L2.70758 29.5538L2.75353 29.4851L2.7606 29.4769L2.81008 29.4082L2.81715 29.3999L2.86664 29.3312L2.87371 29.323L2.92319 29.2543L2.93026 29.2461L2.97975 29.1774L2.98682 29.1691L3.03631 29.1005L3.04337 29.0922L3.09286 29.0235L3.09993 29.0153L3.14941 28.9466L3.15649 28.9384L3.20597 28.8697L3.21304 28.8614L3.26253 28.7955L3.26959 28.7872L3.31908 28.7213L3.32615 28.713L3.37564 28.6471L3.3827 28.6389L3.43572 28.5729L3.4428 28.5647L3.49582 28.4987L3.50288 28.4905L3.5559 28.4246L3.56298 28.4163L3.61953 28.3504L3.6266 28.3421L3.67962 28.2762L3.68669 28.2679L3.74325 28.202L3.75031 28.1938L3.80687 28.1306L3.81394 28.1223L3.87049 28.0591L3.87756 28.0509L3.93412 27.9877L3.94119 27.9795L3.99774 27.9163L4.00481 27.908L4.06137 27.8448L4.06844 27.8366L4.12499 27.7734L4.13206 27.7651L4.19215 27.702L4.19922 27.6937L4.25931 27.6305L4.26638 27.6223L4.32647 27.5618L4.33354 27.5536L4.39363 27.4931L4.4007 27.4849L4.46079 27.4244L4.46786 27.4162L4.52795 27.3558L4.53502 27.3475L4.59511 27.2871L4.60217 27.2788L4.66227 27.2184L4.66933 27.2101L4.72943 27.1497L4.73649 27.1415L4.79658 27.081L4.80365 27.0728L4.86374 27.0151L4.87081 27.0068L4.9309 26.9491L4.93797 26.9409L5.0016 26.8832L5.00866 26.8749L5.07229 26.8172L5.07936 26.809L5.13945 26.7513L5.14652 26.7431L5.21014 26.6854L5.21721 26.6771L5.28084 26.6194L5.28791 26.6112L5.35507 26.5562L5.36213 26.548L5.42576 26.493L5.43283 26.4848L5.49645 26.4298L5.50352 26.4216L5.57068 26.3666L5.57775 26.3584L5.64491 26.3034L5.65198 26.2952L5.71914 26.2403L5.72621 26.232L5.79337 26.1798L5.80044 26.1743L5.8676 26.1221L5.87466 26.1166L5.94182 26.0644L5.9489 26.0589L6.01605 26.0067L6.02312 26.0012L6.09028 25.949L6.09735 25.9435L6.16451 25.8913L6.17158 25.8858L6.23874 25.8364L6.24581 25.8309L6.31297 25.7814L6.32004 25.7759L6.3872 25.7265L6.39427 25.721L6.46143 25.6715L6.4685 25.666L6.53919 25.6166L6.54626 25.6111L6.61342 25.5616L6.62402 25.5561L6.69118 25.5067L6.69825 25.5012L6.76894 25.4545L6.77601 25.449L6.84671 25.4022L6.85378 25.3968L6.92447 25.35L6.93507 25.3446L7.00577 25.2978L7.01284 25.2923L7.08353 25.2456L7.0906 25.2401L7.1613 25.1934L7.16837 25.1879L7.23906 25.144L7.24613 25.1385L7.31682 25.0945L7.32389 25.089L7.39458 25.0451L7.40519 25.0396L7.47588 24.9956L7.48295 24.9901L7.55365 24.9462L7.56072 24.9407L7.63141 24.8967L7.64201 24.8912L7.71271 24.85L7.71978 24.8445L7.79401 24.8033L7.80107 24.7978L7.87177 24.7566L7.88237 24.7511L7.95307 24.7099L7.96367 24.7044L8.0379 24.6632L8.04497 24.6577L8.1192 24.6164L8.12627 24.611L8.2005 24.5725L8.20756 24.567L8.2818 24.5285L8.2924 24.523L8.36663 24.4846L8.3737 24.4791L8.45146 24.4406L8.45853 24.4351L8.53276 24.3966L8.54336 24.3912L8.61759 24.3527L8.62819 24.3472L8.70242 24.3115L8.71303 24.306L8.79079 24.2703L8.79786 24.2648L8.87562 24.229L8.8827 24.2235L8.96046 24.1878L8.97106 24.1823L9.04882 24.1466L9.05589 24.1411L9.13366 24.1054L9.14426 24.0999L9.22203 24.0669L9.23263 24.0614L9.31039 24.0285L9.31746 24.023L9.39523 23.99L9.40229 23.9845L9.48006 23.9515L9.48713 23.9488L9.56489 23.9158L9.5755 23.9103L9.65326 23.8774L9.66386 23.8746L9.74162 23.8444L9.7487 23.8416L9.82646 23.8114L9.83706 23.8087L9.91483 23.7784L9.92543 23.7757L10.0032 23.7455L10.0138 23.7427L10.0916 23.7125L10.1022 23.7098L10.1799 23.6795L10.187 23.6768L10.2683 23.6493L10.2754 23.6466L10.3567 23.6191L10.3637 23.6163L10.445 23.5889L10.4556 23.5861L10.5334 23.5586L10.544 23.5559L10.6218 23.5284L10.6324 23.5257L10.7137 23.5009L10.7243 23.4982L10.802 23.4735L10.8126 23.4707L10.8939 23.446L10.9045 23.4432L10.9823 23.4185L10.9929 23.4158L11.0742 23.391L11.0848 23.3883L11.1661 23.3636L11.1767 23.3608L11.258 23.3388L11.2686 23.3361L11.3499 23.3141L11.3605 23.3114L11.4418 23.2894L11.4524 23.2866L11.5337 23.2647L11.5443 23.2619L11.6256 23.2399L11.6362 23.2372L11.7175 23.2152L11.7281 23.2125L11.8094 23.1932L11.82 23.1905L11.9013 23.1712L11.9084 23.1685L11.9897 23.1493L12.0003 23.1465L12.0816 23.1273L12.0922 23.1245L12.1735 23.1053L12.1841 23.1025L12.2654 23.0861L12.276 23.0833L12.3573 23.0668L12.3679 23.0641L12.4492 23.0476L12.4598 23.0449L12.5411 23.0284L12.5517 23.0256L12.633 23.0091L12.6436 23.0064L12.7249 22.9899L12.7355 22.9871L12.8168 22.9734L12.8274 22.9707L12.9087 22.9569L12.9193 22.9542L13.0006 22.9404L13.0112 22.9377L13.0961 22.924L13.1067 22.9212L13.188 22.9075L13.1986 22.9047L13.2799 22.8937L13.2905 22.891L13.3753 22.88L13.3859 22.8772L13.4707 22.8663H13.4813L13.5626 22.8553H13.5732L13.6581 22.8443H13.6687L13.75 22.836H13.7606L13.8454 22.8278H13.856L13.9408 22.8195H13.9514L14.0363 22.8113H14.0469L14.1317 22.8031H14.1423L14.2272 22.7948H14.2378L14.3226 22.7893H14.3332L14.418 22.7838H14.4286L14.5135 22.7783H14.5241L14.6089 22.7728H14.6195L14.7043 22.7673H14.7149L14.7998 22.7646H14.8104L14.8952 22.7619H14.9094L14.9942 22.7591H15.0048L15.0896 22.7564H15.1002L15.1851 22.7536H15.1957H15.284H15.2946H15.3795H15.3901H15.4749H15.482L27.4116 22.7756H27.4151L27.4222 22.7673L27.5176 22.6767L27.5247 22.6684L27.6201 22.5778L27.6307 22.5695L27.7262 22.4789L27.7332 22.4706L27.8322 22.3827L27.8428 22.3744L27.9418 22.2865L27.9488 22.2783L28.0478 22.1904L28.0584 22.1821L28.1574 22.0969L28.168 22.0887L28.267 22.0035L28.2776 21.9953L28.3765 21.9101L28.3872 21.9019L28.4861 21.8167L28.4932 21.8085L28.5957 21.726L28.6063 21.7178L28.7053 21.6354L28.7159 21.6271L28.8184 21.5447L28.829 21.5364L28.9315 21.454L28.9421 21.4458L29.0446 21.3661L29.0517 21.3579L29.1542 21.2782L29.1648 21.2699L29.2673 21.1903L29.2779 21.182L29.3804 21.1051L29.391 21.0968L29.4935 21.0199L29.5041 21.0117L29.6102 20.9347L29.6208 20.9265L29.7268 20.8496L29.7374 20.8413L29.8434 20.7671L29.8541 20.7589L29.9636 20.6847L29.9707 20.6765L30.0803 20.6023L30.0909 20.594L30.2004 20.5226L30.2111 20.5144L30.3206 20.4429L30.3277 20.4374L30.4373 20.366L30.4479 20.3605L30.5575 20.2891L30.5681 20.2836L30.6776 20.2149L30.6882 20.2094L30.7978 20.1407L30.8084 20.1352L30.918 20.0665L30.9286 20.061L31.0417 19.9951L31.0523 19.9896L31.1654 19.9236L31.176 19.9181L31.2891 19.8522L31.2997 19.8467L31.4129 19.7808L31.427 19.7753L31.5401 19.7121L31.5507 19.7066L31.6638 19.6434L31.6744 19.6379L31.7875 19.5747L31.7981 19.5692L31.9112 19.5087L31.9219 19.5033L32.0385 19.4428L32.0491 19.4373L32.1657 19.3769L32.1763 19.3714L32.2895 19.3137L32.3036 19.3082L32.4202 19.2505L32.4308 19.245L32.5475 19.1873L32.5581 19.1818L32.6783 19.1241L32.6889 19.1186L32.8055 19.0636L32.8197 19.0581L32.9363 19.0032L32.9504 18.9977L33.0706 18.9428L33.0812 18.9373L33.2014 18.8851L33.212 18.8796L33.3322 18.8274L33.3463 18.8219L33.4665 18.7697L33.4806 18.7642L33.6008 18.7147L33.615 18.7092L33.7351 18.6598L33.7458 18.6543L33.8659 18.6048L33.8765 18.5993L33.9967 18.5526L34.0109 18.5471L34.131 18.5004L34.1452 18.4949L34.2653 18.4482L34.276 18.4427L34.3997 18.396L34.4138 18.3905L34.534 18.3465L34.5481 18.341L34.6718 18.2971L34.6824 18.2916L34.8062 18.2476L34.8168 18.2421L34.9405 18.2009L34.9546 18.1982L35.0783 18.157L35.0925 18.1542L35.2162 18.113L35.2303 18.1102L35.354 18.0718L35.3646 18.069L35.4884 18.0306L35.5025 18.0278L35.6262 17.9894L35.6368 17.9866L35.7605 17.9509L35.7747 17.9481L35.8984 17.9124L35.9125 17.9097L36.0362 17.874L36.0504 17.8712L36.1776 17.8382L36.1882 17.8355L36.3155 17.8025L36.3296 17.7998L36.4533 17.7668L36.4675 17.7641L36.5947 17.7338L36.6089 17.7311L36.7361 17.7009L36.7502 17.6981L36.8775 17.6679L36.8881 17.6651L37.0189 17.6377L37.033 17.6349L37.1603 17.6074L37.1744 17.6047L37.3017 17.5772L37.3158 17.5745L37.4466 17.5497L37.4607 17.547L37.588 17.5223L37.6021 17.5195L37.7329 17.4948L37.747 17.492L37.8778 17.4701L37.892 17.4673L38.0227 17.4453L38.0369 17.4426L38.1677 17.4206L38.1818 17.4179L38.3126 17.3986L38.3267 17.3959L38.4575 17.3766L38.4716 17.3739L38.6024 17.3547L38.613 17.3519L38.7438 17.3354L38.758 17.3327L38.8887 17.3162L38.9029 17.3135L39.0337 17.297L39.0478 17.2942L39.1786 17.2805H39.1927L39.3235 17.2667H39.3376L39.4684 17.253H39.4826L39.6133 17.242H39.6275L39.7583 17.231H39.7724L39.9032 17.22H39.9173L40.0517 17.2118H40.0658L40.1966 17.2036H40.2107L40.345 17.1953H40.3592L40.49 17.1898H40.5041L40.6384 17.1843H40.6526L40.7869 17.1788H40.801L40.9318 17.1761H40.9459L41.0802 17.1733H41.0944L41.2287 17.1706H41.2428H41.3772H41.3842H41.409V17.1596V17.1596ZM15.4855 26.2348H15.4113H15.3335L15.2593 26.2375L15.1851 26.2403L15.1108 26.243L15.0366 26.2457L14.9624 26.2485L14.8881 26.2512L14.8139 26.2567L14.7397 26.2622L14.669 26.2677L14.5948 26.2732L14.5205 26.2787L14.4463 26.2842L14.3721 26.2925L14.3014 26.3007L14.2272 26.3089L14.1565 26.3172L14.0822 26.3254L14.008 26.3337L13.9373 26.3447L13.8631 26.3557L13.7924 26.3666L13.7217 26.3776L13.6475 26.3886L13.5768 26.3996L13.5061 26.4133L13.4354 26.4271L13.3647 26.4408L13.294 26.4546L13.2198 26.4683L13.1491 26.482L13.0784 26.4958L13.0077 26.5123L12.937 26.5287L12.8663 26.5452L12.7956 26.5617L12.7249 26.5782L12.6542 26.5947L12.5835 26.6139L12.5128 26.6332L12.4421 26.6524L12.3714 26.6716L12.3007 26.6909L12.2301 26.7101L12.1594 26.7293L12.0887 26.7513L12.018 26.7733L11.9508 26.7953L11.8801 26.8172L11.8094 26.8392L11.7387 26.8612L11.668 26.8859L11.6009 26.9107L11.5302 26.9354L11.463 26.9601L11.3923 26.9848L11.3252 27.0096L11.258 27.0343L11.1873 27.0618L11.1202 27.0892L11.053 27.1167L10.9858 27.1442L10.9187 27.1717L10.8515 27.1991L10.7844 27.2294L10.7172 27.2596L10.65 27.2898L10.5829 27.32L10.5157 27.3503L10.4486 27.3805L10.3814 27.4107L10.3142 27.4437L10.2506 27.4767L10.1835 27.5096L10.1163 27.5426L10.0491 27.5756L9.98199 27.6085L9.91836 27.6415L9.8512 27.6772L9.78758 27.7129L9.72395 27.7487L9.66033 27.7844L9.5967 27.8201L9.53308 27.8558L9.46945 27.8915L9.40583 27.93L9.34221 27.9685L9.28211 28.0069L9.21849 28.0454L9.1584 28.0839L9.09831 28.1223L9.03468 28.1608L8.9746 28.202L8.9145 28.2432L8.85442 28.2844L8.79433 28.3256L8.73424 28.3669L8.67415 28.4081L8.61405 28.4493L8.55397 28.4932L8.49388 28.5372L8.43379 28.5812L8.3737 28.6251L8.31714 28.6691L8.25705 28.713L8.19696 28.757L8.14041 28.8037L8.08385 28.8504L8.02376 28.8971L7.96721 28.9438L7.91065 28.9906L7.8541 29.0373L7.79754 29.084L7.74099 29.1334L7.68443 29.1829L7.62788 29.2323L7.57132 29.2818L7.51477 29.3312L7.46174 29.3807L7.40519 29.4302L7.34864 29.4796L7.29208 29.5318L7.23906 29.584L7.18604 29.6362L7.13302 29.6884L7.08 29.7406L7.02698 29.7928L6.97396 29.845L6.92447 29.9L6.87499 29.9549L6.82197 30.0099L6.77248 30.0648L6.72299 30.1198L6.67351 30.1747L6.62402 30.2297L6.57454 30.2847L6.52505 30.3396L6.47556 30.3946L6.42961 30.4495L6.38013 30.5072L6.33418 30.5649L6.28469 30.6226L6.23874 30.6803L6.19279 30.738L6.14684 30.7957L6.10089 30.8534L6.05494 30.9111L6.00898 30.9688L5.96303 31.0265L5.91708 31.0869L5.87466 31.1474L5.82872 31.2078L5.7863 31.2683L5.74388 31.3287L5.70147 31.3892L5.65905 31.4496L5.62017 31.5101L5.57775 31.5705L5.53887 31.631L5.49999 31.6914L5.46111 31.7518L5.42223 31.8123L5.38335 31.8755L5.34446 31.9387L5.30558 32.0019L5.2667 32.0651L5.23135 32.1283L5.19247 32.1915L5.15712 32.2546L5.11824 32.3178L5.0829 32.381L5.04755 32.4442L5.0122 32.5074L4.97686 32.5706L4.94151 32.6366L4.90616 32.7025L4.87081 32.7684L4.83547 32.8344L4.80365 32.9003L4.77184 32.9663L4.73649 33.0322L4.70821 33.0981L4.67641 33.1641L4.64813 33.23L4.61631 33.296L4.58804 33.3619L4.55976 33.4278L4.53148 33.4938L4.5032 33.5625L4.47493 33.6312L4.44665 33.6999L4.41837 33.7685L4.39009 33.8372L4.36182 33.9059L4.33707 33.9746L4.31233 34.0433L4.28759 34.112L4.26284 34.1807L4.2381 34.2494L4.21336 34.3181L4.18862 34.3867L4.16387 34.4554L4.13913 34.5241L4.11792 34.5928L4.09318 34.6615L4.07197 34.7302L4.05076 34.8016L4.03309 34.8731L4.01188 34.9445L3.99421 35.0159L3.97653 35.0874L3.95886 35.1588L3.94119 35.2302L3.92351 35.3017L3.90584 35.3731L3.88817 35.4446L3.87049 35.516L3.85282 35.5874L3.83868 35.6589L3.82101 35.7303L3.80687 35.8017L3.79273 35.8732L3.77859 35.9446L3.76445 36.016L3.75031 36.0875L3.73617 36.1589L3.72204 36.2304L3.7079 36.3018L3.69729 36.3732L3.68669 36.4474L3.68315 36.4502L3.76445 36.4474L3.86696 36.4419L3.96947 36.4364L4.07197 36.4309L4.17448 36.4254L4.27698 36.4199L4.38302 36.4144L4.48553 36.4062L4.58804 36.398L4.69054 36.3897L4.79305 36.3815L4.89556 36.3732L4.99806 36.365L5.10057 36.3567L5.20307 36.3485L5.30558 36.3375L5.40809 36.3265L5.51059 36.3155L5.6131 36.3045L5.7156 36.2935L5.81811 36.2826L5.92062 36.2716L6.02312 36.2578L6.12563 36.2441L6.22813 36.2304L6.33064 36.2166L6.43315 36.2029L6.53566 36.1891L6.63816 36.1754L6.74067 36.1589L6.84317 36.1424L6.94568 36.1259L7.04819 36.1095L7.15069 36.093L7.2532 36.0765L7.3557 36.06L7.45821 36.0435L7.56072 36.0243L7.66322 36.0051L7.76219 35.9858L7.8647 35.9666L7.96721 35.9474L8.06972 35.9281L8.16868 35.9089L8.27119 35.8897L8.37016 35.8677L8.47267 35.8457L8.57517 35.8237L8.67415 35.8017L8.77312 35.7798L8.87562 35.7578L8.9746 35.7358L9.07357 35.7111L9.17254 35.6863L9.27151 35.6616L9.37401 35.6369L9.47299 35.6122L9.57196 35.5874L9.67093 35.5627L9.7699 35.538L9.86887 35.5105L9.96785 35.483L10.0668 35.4555L10.1658 35.4281L10.2648 35.4006L10.3637 35.3731L10.4627 35.3456L10.5617 35.3182L10.6606 35.2907L10.7596 35.2605L10.8586 35.2302L10.9576 35.2L11.0565 35.1698L11.1555 35.1396L11.2545 35.1094L11.3534 35.0791L11.4524 35.0462L11.5514 35.0132L11.6504 34.9802L11.7493 34.9472L11.8448 34.9143L11.9437 34.8813L12.0427 34.8483L12.1382 34.8154L12.2371 34.7796L12.3326 34.7439L12.428 34.7082L12.527 34.6725L12.6224 34.6368L12.7178 34.6011L12.8133 34.5653L12.9087 34.5296L13.0042 34.4912L13.0996 34.4527L13.195 34.4142L13.2905 34.3758L13.3824 34.3373L13.4778 34.2988L13.5697 34.2604L13.6651 34.2219L13.757 34.1807L13.8525 34.1395L13.9444 34.0983L14.0363 34.057L14.1282 34.0158L14.2201 33.9746L14.312 33.9334L14.4039 33.8922L14.4958 33.851L14.5877 33.807L14.6796 33.7631L14.7715 33.7191L14.8634 33.6751L14.9553 33.6312L15.0472 33.5872L15.1391 33.5432L15.231 33.4993L15.3229 33.4526L15.4148 33.4059L15.5067 33.3592L15.5986 33.3125L15.687 33.2657L15.7789 33.219L15.8708 33.1723L15.9592 33.1256L16.0511 33.0762L16.143 33.0267L16.2313 32.9773L16.3197 32.9278L16.4116 32.8783L16.5 32.8289L16.5883 32.7794L16.6767 32.73L16.7651 32.6805L16.8534 32.6311L16.9418 32.5789L17.0302 32.5267L17.1185 32.4744L17.2069 32.4222L17.2953 32.37L17.3836 32.3178L17.472 32.2656L17.5604 32.2134L17.6487 32.1585L17.7371 32.1035L17.8255 32.0486L17.9138 31.9936L18.0022 31.9387L18.087 31.8837L18.1754 31.8288L18.2602 31.7738L18.3451 31.7189L18.4334 31.6612L18.5183 31.6035L18.6031 31.5458L18.6879 31.4881L18.7728 31.4304L18.8576 31.3727L18.9389 31.315L19.0237 31.2573L19.1086 31.1996L19.1899 31.1391L19.2712 31.0787L19.356 31.0182L19.4373 30.9578L19.5186 30.8974L19.5999 30.8369L19.6812 30.7765L19.7625 30.716L19.8438 30.6556L19.9251 30.5924L20.0064 30.5292L20.0877 30.466L20.169 30.4028L20.2503 30.3396L20.3316 30.2764L20.4129 30.2132L20.4942 30.15L20.5719 30.0868L20.6532 30.0209L20.7345 29.9549L20.8123 29.889L20.8901 29.8231L20.9714 29.7571L21.0491 29.6912L21.1269 29.6252L21.2046 29.5593L21.2824 29.4934L21.3602 29.4247L21.4379 29.356L21.5157 29.2873L21.5935 29.2186L21.6712 29.1499L21.749 29.0812L21.8268 29.0125L21.901 28.9438L21.9787 28.8752L22.0565 28.8065L22.1343 28.735L22.2085 28.6636L22.2863 28.5922L22.3605 28.5207L22.4347 28.4493L22.509 28.3778L22.5832 28.3064L22.6574 28.235L22.7316 28.1635L22.8023 28.0894L22.8766 28.0152L22.9473 27.941L23.0215 27.8668L23.0922 27.7926L23.1629 27.7184L23.2336 27.6443L23.3043 27.5701L23.375 27.4959L23.4456 27.4217L23.5163 27.3448L23.587 27.2678L23.6577 27.1909L23.7284 27.114L23.7991 27.037L23.8698 26.9601L23.9405 26.8832L24.0112 26.8062L24.0784 26.7293L24.1455 26.6524L24.2162 26.5727L24.2834 26.493L24.3505 26.4133L24.4177 26.3337L24.4848 26.254L24.4884 26.2485L15.5527 26.232H15.4855V26.2348V26.2348Z" fill="#4A12C0"/>
<path fill-rule="evenodd" clip-rule="evenodd" d="M18.8892 5.56452H18.909H18.9844H19.0042L19.0796 5.56849H19.1034L19.1788 5.57245H19.1986L19.274 5.57642H19.2938L19.3692 5.58039H19.393L19.4644 5.58832H19.4882L19.5636 5.59626L19.5834 5.60023L19.6548 5.60816L19.6786 5.61213L19.75 5.62006L19.7699 5.62403L19.8453 5.63196L19.8651 5.63593L19.9365 5.64783L19.9563 5.6518L20.0317 5.6637L20.0516 5.66767L20.123 5.67957L20.1428 5.68354L20.2142 5.69544L20.2341 5.69941L20.3015 5.71528L20.3213 5.71924L20.3927 5.73511L20.4126 5.73908L20.484 5.75495L20.5038 5.75892L20.5713 5.77479L20.5911 5.77875L20.6586 5.79462L20.6784 5.79859L20.7458 5.81842L20.7657 5.82239L20.8331 5.84223L20.8529 5.85016L20.9204 5.87L20.9402 5.87793L21.0077 5.89777L21.0275 5.9057L21.0949 5.92554L21.1148 5.93348L21.1822 5.95728L21.2021 5.96521L21.2695 5.98902L21.2893 5.99695L21.3568 6.02076L21.3766 6.02869L21.4441 6.05249L21.4639 6.06043L21.5313 6.08423L21.5512 6.09217L21.6186 6.11994L21.6385 6.12787L21.7059 6.15564L21.7257 6.16358L21.7892 6.19135L21.8091 6.19928L21.8765 6.22705L21.8963 6.23499L21.9598 6.26276L21.9796 6.27069L22.0431 6.30243L22.063 6.31036L22.1264 6.3421L22.1463 6.35004L22.2097 6.38177L22.2296 6.38971L22.2931 6.42145L22.3129 6.43335L22.3764 6.46509L22.3962 6.47699L22.4597 6.51269L22.4795 6.52459L22.539 6.5603L22.5589 6.5722L22.6184 6.60791L22.6382 6.61981L22.6977 6.65552L22.7176 6.66742L22.7771 6.70312L22.7929 6.71502L22.8524 6.75073L22.8683 6.76263L22.9278 6.8023L22.9437 6.81421L23.0032 6.85388L23.0191 6.86578L23.0746 6.90545L23.0905 6.91735L23.146 6.95703L23.1659 6.96893L23.2214 7.0086L23.2373 7.0205L23.2928 7.06017L23.3087 7.07208L23.3642 7.11572L23.3801 7.12762L23.4356 7.17126L23.4515 7.18316L23.5031 7.2268L23.5189 7.2387L23.5745 7.28234L23.5904 7.29424L23.6419 7.33788L23.6578 7.34978L23.7094 7.39342L23.7252 7.40533L23.7768 7.45293L23.7927 7.46483L23.8443 7.51244L23.8601 7.52831L23.9117 7.57592L23.9276 7.59179L23.9791 7.63939L23.995 7.65526L24.0466 7.70287L24.0625 7.71874L24.114 7.76635L24.1299 7.78221L24.1815 7.82982L24.1973 7.84569L24.2449 7.89727L24.2608 7.91313L24.3084 7.96471L24.3243 7.98058L24.3719 8.03215L24.3878 8.04802L24.4314 8.09959L24.4473 8.11546L24.4909 8.16704L24.5068 8.18291L24.5504 8.23448L24.5663 8.25035L24.6099 8.30193L24.6218 8.31779L24.6655 8.37334L24.6774 8.3892L24.721 8.44475L24.7369 8.46062L24.7805 8.51616L24.7924 8.53203L24.8361 8.58757L24.848 8.60344L24.8876 8.65898L24.9035 8.67485L24.9432 8.73039L24.9551 8.74626L24.9948 8.8018L25.0067 8.81767L25.0463 8.87718L25.0582 8.89304L25.0979 8.95255L25.1098 8.96842L25.1495 9.02793L25.1614 9.0438L25.2011 9.10331L25.209 9.12314L25.2487 9.18265L25.2566 9.20249L25.2963 9.262L25.3042 9.28183L25.3399 9.34134L25.3478 9.36118L25.3835 9.42069L25.3915 9.44052L25.4232 9.50003L25.4351 9.51987L25.4669 9.58335L25.4748 9.60318L25.5065 9.66666L25.5145 9.68649L25.5462 9.74997L25.5541 9.76981L25.5859 9.83328L25.5938 9.85312L25.6256 9.91659L25.6335 9.93643L25.6613 9.99991L25.6692 10.0197L25.697 10.0832L25.7049 10.1031L25.7327 10.1665L25.7406 10.1864L25.7684 10.2498L25.7763 10.2697L25.8041 10.3371L25.812 10.357L25.8398 10.4244L25.8477 10.4442L25.8715 10.5117L25.8795 10.5315L25.9033 10.599L25.9112 10.6188L25.931 10.6862L25.939 10.7061L25.9628 10.7735L25.9707 10.7934L25.9905 10.8608L25.9945 10.8806L26.0143 10.9481L26.0223 10.9679L26.0421 11.0354L26.05 11.0552L26.0699 11.1226L26.0739 11.1425L26.0937 11.2099L26.0977 11.2298L26.1135 11.3012L26.1175 11.321L26.1373 11.3924L26.1413 11.4122L26.1572 11.4837L26.1611 11.5035L26.177 11.5749L26.181 11.5947L26.1968 11.6662L26.2008 11.686L26.2127 11.7574L26.2167 11.7772L26.2286 11.8486L26.2325 11.8685L26.2405 11.9399L26.2444 11.9597L26.2524 12.0311L26.2563 12.0549L26.2643 12.1264L26.2682 12.1502L26.2762 12.2216L26.2801 12.2454L26.2881 12.3168L26.2921 12.3406L26.3 12.412L26.3039 12.4358L26.3079 12.5072L26.3119 12.531L26.3159 12.6064L26.3198 12.6302L26.3238 12.7056L26.3278 12.7294L26.3317 12.8048L26.3357 12.8286L26.3397 12.9039V12.9277L26.3436 13.0031V13.0269V13.1023V13.1261V13.2015V13.2253L26.3397 13.3007V13.3245L26.3357 13.3998L26.3317 13.4236L26.3278 13.499L26.3238 13.5228L26.3198 13.5982L26.3159 13.622L26.3119 13.6974L26.3079 13.7212L26.3039 13.7926L26.3 13.8164L26.2921 13.8878L26.2881 13.9116L26.2801 13.983L26.2762 14.0068L26.2682 14.0782L26.2643 14.102L26.2563 14.1735L26.2524 14.1973L26.2444 14.2687L26.2405 14.2885L26.2325 14.3599L26.2286 14.3798L26.2167 14.4512L26.2127 14.471L26.2008 14.5424L26.1968 14.5622L26.181 14.6337L26.177 14.6535L26.1611 14.7249L26.1572 14.7447L26.1413 14.8162L26.1373 14.836L26.1175 14.9074L26.1135 14.9272L26.0977 14.9986L26.0937 15.0185L26.0739 15.0859L26.0699 15.1058L26.05 15.1732L26.0421 15.193L26.0223 15.2605L26.0143 15.2803L25.9945 15.3478L25.9905 15.3676L25.9707 15.435L25.9628 15.4549L25.939 15.5223L25.931 15.5422L25.9112 15.6096L25.9033 15.6294L25.8795 15.6969L25.8715 15.7167L25.8477 15.7842L25.8398 15.804L25.812 15.8714L25.8041 15.8913L25.7763 15.9587L25.7684 15.9786L25.7406 16.042L25.7327 16.0619L25.7049 16.1253L25.697 16.1452L25.6692 16.2087L25.6613 16.2285L25.6335 16.292L25.6256 16.3118L25.5938 16.3753L25.5859 16.3951L25.5541 16.4586L25.5462 16.4784L25.5145 16.5419L25.5065 16.5617L25.4748 16.6252L25.4669 16.6451L25.4351 16.7085L25.4232 16.7284L25.3915 16.7879L25.3835 16.8077L25.3478 16.8672L25.3399 16.8871L25.3042 16.9466L25.2963 16.9664L25.2566 17.0259L25.2487 17.0457L25.209 17.1053L25.2011 17.1251L25.1614 17.1846L25.1495 17.2005L25.1098 17.26L25.0979 17.2758L25.0582 17.3354L25.0463 17.3512L25.0067 17.4107L24.9948 17.4266L24.9551 17.4821L24.9432 17.498L24.9035 17.5536L24.8876 17.5694L24.848 17.625L24.8361 17.6408L24.7924 17.6964L24.7805 17.7122L24.7369 17.7678L24.721 17.7837L24.6774 17.8392L24.6655 17.8551L24.6218 17.9106L24.6099 17.9265L24.5663 17.9781L24.5504 17.9939L24.5068 18.0455L24.4909 18.0614L24.4473 18.1129L24.4314 18.1288L24.3878 18.1804L24.3719 18.1962L24.3243 18.2478L24.3084 18.2637L24.2608 18.3153L24.2449 18.3311L24.1973 18.3827L24.1815 18.3986L24.1299 18.4462L24.114 18.4621L24.0625 18.5097L24.0466 18.5255L23.995 18.5731L23.9791 18.589L23.9276 18.6366L23.9117 18.6525L23.8601 18.7001L23.8443 18.716L23.7927 18.7636L23.7768 18.7755L23.7252 18.8231L23.7094 18.835L23.6578 18.8786L23.6419 18.8905L23.5904 18.9342L23.5745 18.9461L23.5189 18.9897L23.5031 19.0016L23.4515 19.0452L23.4356 19.0571L23.3801 19.1008L23.3642 19.1127L23.3087 19.1563L23.2928 19.1682L23.2373 19.2079L23.2214 19.2198L23.1659 19.2595L23.146 19.2714L23.0905 19.311L23.0746 19.3229L23.0191 19.3626L23.0032 19.3745L22.9437 19.4142L22.9278 19.4261L22.8683 19.4658L22.8524 19.4777L22.7929 19.5134L22.7771 19.5253L22.7176 19.561L22.6977 19.5729L22.6382 19.6086L22.6184 19.6205L22.5589 19.6562L22.539 19.6681L22.4795 19.7038L22.4597 19.7157L22.3962 19.7514L22.3764 19.7633L22.3129 19.7951L22.2931 19.803L22.2296 19.8347L22.2097 19.8427L22.1463 19.8744L22.1264 19.8823L22.063 19.9141L22.0431 19.922L21.9796 19.9537L21.9598 19.9617L21.8963 19.9894L21.8765 19.9974L21.8091 20.0252L21.7892 20.0331L21.7257 20.0609L21.7059 20.0688L21.6385 20.0966L21.6186 20.1045L21.5512 20.1323L21.5313 20.1402L21.4639 20.164L21.4441 20.1719L21.3766 20.1957L21.3568 20.2037L21.2893 20.2275L21.2695 20.2354L21.2021 20.2592L21.1822 20.2672L21.1148 20.291L21.0949 20.2989L21.0275 20.3187L21.0077 20.3267L20.9402 20.3465L20.9204 20.3544L20.8529 20.3743L20.8331 20.3822L20.7657 20.402L20.7458 20.406L20.6784 20.4258L20.6586 20.4298L20.5911 20.4457L20.5713 20.4496L20.5038 20.4655L20.484 20.4695L20.4126 20.4854L20.3927 20.4893L20.3213 20.5052L20.3015 20.5092L20.2341 20.525L20.2142 20.529L20.1428 20.5409L20.123 20.5449L20.0516 20.5568L20.0317 20.5607L19.9563 20.5726L19.9365 20.5766L19.8651 20.5885L19.8453 20.5925L19.7699 20.6004L19.75 20.6044L19.6786 20.6123L19.6548 20.6163L19.5834 20.6242L19.5636 20.6282L19.4882 20.6361H19.4644L19.393 20.644H19.3692L19.2938 20.648H19.274L19.1986 20.652H19.1788L19.1034 20.6559H19.0796L19.0042 20.6599H18.9844H18.909H18.8892H18.8138H18.79H18.7146H18.6948H18.6194H18.5995L18.5242 20.6559H18.5004L18.425 20.652H18.4052L18.3298 20.648H18.3099L18.2346 20.644H18.2108L18.1393 20.6361H18.1155L18.0402 20.6282L18.0203 20.6242L17.9489 20.6163L17.9251 20.6123L17.8537 20.6044L17.8339 20.6004L17.7585 20.5925L17.7387 20.5885L17.6672 20.5766L17.6474 20.5726L17.572 20.5607L17.5522 20.5568L17.4808 20.5449L17.4609 20.5409L17.3895 20.529L17.3697 20.525L17.3023 20.5092L17.2824 20.5052L17.211 20.4893L17.1912 20.4854L17.1198 20.4695L17.0999 20.4655H17.092L17.0285 20.4496L17.0087 20.4457L16.9412 20.4298L16.9214 20.4258L16.854 20.406L16.8341 20.402L16.7667 20.3822L16.7468 20.3743L16.6794 20.3544L16.6596 20.3465L16.5921 20.3267L16.5723 20.3187L16.5048 20.2989L16.485 20.291L16.4176 20.2672L16.3977 20.2592L16.3303 20.2354L16.3104 20.2275L16.243 20.2037L16.2232 20.1957L16.1557 20.1719L16.1359 20.164L16.0684 20.1402L16.0486 20.1323L15.9812 20.1045L15.9613 20.0966L15.8939 20.0688L15.874 20.0609L15.8106 20.0331L15.7907 20.0252L15.7273 19.9974L15.7074 19.9894L15.6439 19.9617L15.6241 19.9537L15.5606 19.922L15.5408 19.9141L15.4773 19.8823L15.4575 19.8744L15.394 19.8427L15.3742 19.8347L15.3107 19.803L15.2909 19.7951L15.2274 19.7633L15.2075 19.7514L15.1441 19.7157L15.1242 19.7038L15.0647 19.6681L15.0449 19.6562L14.9854 19.6205L14.9655 19.6086L14.906 19.5729L14.8862 19.561L14.8267 19.5253L14.8108 19.5134L14.7513 19.4777L14.7354 19.4658L14.6759 19.4261L14.6601 19.4142L14.6006 19.3745L14.5847 19.3626L14.5291 19.3229L14.5133 19.311L14.4577 19.2714L14.4379 19.2595L14.3824 19.2198L14.3625 19.2079L14.307 19.1682L14.2911 19.1563L14.2356 19.1127L14.2197 19.1008L14.1642 19.0571L14.1483 19.0452L14.0927 19.0016L14.0769 18.9897L14.0213 18.9461L14.0055 18.9342L13.9539 18.8905L13.938 18.8786L13.8865 18.835L13.8706 18.8231L13.819 18.7755L13.8031 18.7636L13.7516 18.716L13.7357 18.7001L13.6841 18.6525L13.6683 18.6366L13.6167 18.589L13.6008 18.5731L13.5492 18.5255L13.5334 18.5097L13.4818 18.4621L13.4659 18.4462L13.4143 18.3986L13.3985 18.3827L13.3509 18.3311L13.335 18.3153L13.2874 18.2637L13.2715 18.2478L13.2239 18.1962L13.2081 18.1804L13.1644 18.1288L13.1485 18.1129L13.1049 18.0614L13.089 18.0455L13.0454 17.9939L13.0295 17.9781L12.9859 17.9265L12.974 17.9106L12.9303 17.8551L12.9184 17.8392L12.8748 17.7837L12.8589 17.7678L12.8153 17.7122L12.8034 17.6964L12.7598 17.6408L12.7478 17.625L12.7082 17.5694L12.6923 17.5536L12.6526 17.498L12.6407 17.4821L12.6011 17.4266L12.5892 17.4107L12.5495 17.3512L12.5376 17.3354L12.4979 17.2758L12.486 17.26L12.4463 17.2005L12.4344 17.1846L12.3948 17.1251L12.3868 17.1053L12.3472 17.0457L12.3392 17.0259L12.2996 16.9664L12.2916 16.9466L12.2559 16.8871L12.248 16.8672L12.2123 16.8077L12.2043 16.7879L12.1726 16.7284L12.1607 16.7085L12.129 16.6451L12.1171 16.6252L12.0853 16.5617L12.0774 16.5419L12.0456 16.4784L12.0377 16.4586L12.006 16.3951L11.998 16.3753L11.9663 16.3118L11.9584 16.292L11.9306 16.2285L11.9227 16.2087L11.8949 16.1452L11.887 16.1253L11.8592 16.0619L11.8513 16.042L11.8235 15.9786L11.8155 15.9587L11.7878 15.8913L11.7798 15.8714L11.7521 15.804L11.7441 15.7842L11.7203 15.7167L11.7124 15.6969L11.6886 15.6294L11.6807 15.6096L11.6608 15.5422L11.6529 15.5223L11.6291 15.4549L11.6212 15.435L11.6013 15.3676L11.5973 15.3478L11.5775 15.2803L11.5696 15.2605L11.5497 15.193L11.5418 15.1732L11.522 15.1058L11.518 15.0859L11.4982 15.0185L11.4942 14.9986L11.4783 14.9272L11.4744 14.9074L11.4585 14.836L11.4545 14.8162L11.4387 14.7447L11.4347 14.7249L11.4188 14.6535L11.4149 14.6337L11.399 14.5622L11.395 14.5424L11.3831 14.471L11.3791 14.4512L11.3672 14.3798L11.3633 14.3599L11.3553 14.2885L11.3514 14.2687L11.3434 14.1973L11.3395 14.1735L11.3315 14.102L11.3276 14.0782L11.3196 14.0068L11.3157 13.983L11.3077 13.9116L11.3038 13.8878L11.2958 13.8164L11.2919 13.7926L11.2879 13.7212L11.2839 13.6974L11.28 13.622L11.276 13.5982L11.272 13.5228L11.2681 13.499L11.2641 13.4236L11.2601 13.3998L11.2562 13.3245V13.3007L11.2522 13.2253V13.2015V13.1261V13.1023V13.0269V13.0031L11.2562 12.9277V12.9039L11.2601 12.8286L11.2641 12.8048L11.2681 12.7294L11.272 12.7056L11.276 12.6302L11.28 12.6064L11.2839 12.531L11.2879 12.5072L11.2919 12.4358L11.2958 12.412L11.3038 12.3406L11.3077 12.3168L11.3157 12.2454L11.3196 12.2216L11.3276 12.1502L11.3315 12.1264L11.3395 12.0549L11.3434 12.0311L11.3514 11.9597L11.3553 11.9399L11.3633 11.8685L11.3672 11.8486L11.3791 11.7772L11.3831 11.7574L11.395 11.686L11.399 11.6662L11.4149 11.5947L11.4188 11.5749L11.4347 11.5035L11.4387 11.4837L11.4545 11.4122L11.4585 11.3924L11.4744 11.321L11.4783 11.3012L11.4942 11.2298L11.4982 11.2099L11.518 11.1425L11.522 11.1226L11.5418 11.0552L11.5497 11.0354L11.5696 10.9679L11.5775 10.9481L11.5973 10.8806L11.6013 10.8608L11.6212 10.7934L11.6291 10.7735L11.6529 10.7061L11.6608 10.6862L11.6807 10.6188L11.6886 10.599L11.7124 10.5315L11.7203 10.5117L11.7441 10.4442L11.7521 10.4244L11.7798 10.357L11.7878 10.3371L11.8155 10.2697L11.8235 10.2498L11.8513 10.1864L11.8592 10.1665L11.887 10.1031L11.8949 10.0832L11.9227 10.0197L11.9306 9.99991L11.9584 9.93643L11.9663 9.91659L11.998 9.85312L12.006 9.83328L12.0377 9.76981L12.0456 9.74997L12.0774 9.68649L12.0853 9.66666L12.1171 9.60318L12.129 9.58335L12.1607 9.51987L12.1726 9.50003L12.2043 9.44052L12.2123 9.42069L12.248 9.36118L12.2559 9.34134L12.2916 9.28183L12.2996 9.262L12.3392 9.20249L12.3472 9.18265L12.3868 9.12314L12.3948 9.10331L12.4344 9.0438L12.4463 9.02793L12.486 8.96842L12.4979 8.95255L12.5376 8.89304L12.5495 8.87718L12.5892 8.81767L12.6011 8.8018L12.6407 8.74626L12.6526 8.73039L12.6923 8.67485L12.7082 8.65898L12.7478 8.60344L12.7598 8.58757L12.8034 8.53203L12.8153 8.51616L12.8589 8.46062L12.8748 8.44475L12.9184 8.3892L12.9303 8.37334L12.974 8.31779L12.9859 8.30193L13.0295 8.25035L13.0454 8.23448L13.089 8.18291L13.1049 8.16704L13.1485 8.11546L13.1644 8.09959L13.2081 8.05199L13.212 8.04802L13.2279 8.03215L13.2755 7.98058L13.2914 7.96471L13.339 7.91313L13.3548 7.89727L13.4024 7.84569L13.4183 7.82982L13.4699 7.78221L13.4858 7.76635L13.5373 7.71874L13.5532 7.70287L13.6048 7.65526L13.6206 7.63939L13.6722 7.59179L13.6881 7.57592L13.7397 7.52831L13.7555 7.51244L13.8071 7.46483L13.823 7.45293L13.8745 7.40533L13.8904 7.39342L13.942 7.34978L13.9579 7.33788L14.0094 7.29424L14.0253 7.28234L14.0808 7.2387L14.0967 7.2268L14.1523 7.18316L14.1681 7.17126L14.2237 7.12762L14.2395 7.11572L14.2951 7.07208L14.3109 7.06017L14.3665 7.0205L14.3863 7.0086L14.4419 6.96893L14.4617 6.95703L14.5172 6.91735L14.5331 6.90545L14.5887 6.86578L14.6045 6.85388L14.664 6.81421L14.6799 6.8023L14.7394 6.76263L14.7553 6.75073L14.8148 6.71502L14.8307 6.70312L14.8902 6.66742L14.91 6.65552L14.9695 6.61981L14.9893 6.60791L15.0489 6.5722L15.0687 6.5603L15.1282 6.52459L15.148 6.51269L15.2115 6.47699L15.2314 6.46509L15.2948 6.43335L15.3147 6.42145L15.3781 6.38971L15.398 6.38177L15.4615 6.35004L15.4813 6.3421L15.5448 6.31036L15.5646 6.30243L15.6281 6.27069L15.6479 6.26276L15.7114 6.23499L15.7312 6.22705L15.7947 6.19928L15.8145 6.19135L15.878 6.16358L15.8978 6.15564L15.9653 6.12787L15.9851 6.11994L16.0526 6.09217L16.0724 6.08423L16.1398 6.06043L16.1597 6.05249L16.2271 6.02869L16.247 6.02076L16.3144 5.99695L16.3342 5.98902L16.4017 5.96521L16.4215 5.95728L16.489 5.93348L16.5088 5.92554L16.5762 5.9057L16.5961 5.89777L16.6635 5.87793L16.6834 5.87L16.7508 5.85016L16.7706 5.84223L16.8381 5.82239L16.8579 5.81842L16.9254 5.79859L16.9452 5.79462L17.0126 5.77875L17.0325 5.77479L17.0999 5.75892L17.1198 5.75495L17.1912 5.73908L17.211 5.73511L17.2824 5.71924L17.3023 5.71528L17.3697 5.69941L17.3895 5.69544L17.4609 5.68354L17.4808 5.67957L17.5522 5.66767L17.572 5.6637L17.6474 5.6518L17.6672 5.64783L17.7387 5.63593L17.7585 5.63196L17.8339 5.62403L17.8537 5.62006L17.9251 5.61213L17.9489 5.60816L18.0203 5.60023L18.0402 5.59626L18.1155 5.58832H18.1393L18.2108 5.58039H18.2346L18.3099 5.57642H18.3298L18.4052 5.57245H18.425L18.5004 5.56849H18.5242L18.5995 5.56452H18.6194H18.6948H18.7146H18.79H18.8138H18.8892V5.56452ZM18.7503 9.0557H18.6987H18.6472L18.5956 9.05967L18.544 9.06364L18.4924 9.0676L18.4409 9.07157L18.3893 9.07554L18.3377 9.07951L18.2861 9.08744L18.2346 9.09538L18.183 9.10331L18.1314 9.11124L18.0798 9.11918L18.0283 9.12711L17.9767 9.13505L17.9291 9.14695L17.8775 9.15885L17.8299 9.17075L17.7823 9.18265L17.7307 9.19456L17.6831 9.20646L17.6355 9.21836L17.5879 9.23423L17.5403 9.2501L17.4927 9.26597L17.449 9.28183L17.4014 9.2977L17.3578 9.31357L17.3102 9.32944L17.2666 9.34928L17.2229 9.36911L17.1793 9.38895L17.1356 9.40879L17.092 9.42862L17.0484 9.44846L17.0047 9.4683L16.9611 9.4921L16.9174 9.5159L16.8738 9.53971L16.8302 9.56351L16.7865 9.58731L16.7429 9.61112L16.6992 9.63492L16.6596 9.65872L16.6159 9.68649L16.5762 9.71427L16.5366 9.74204L16.4969 9.76981L16.4572 9.79758L16.4176 9.82535L16.3779 9.85312L16.3382 9.88089L16.2985 9.91263L16.2589 9.94437L16.2192 9.9761L16.1795 10.0078L16.1438 10.0396L16.1041 10.0713L16.0684 10.1031L16.0327 10.1348L15.997 10.1665L15.9613 10.2022L15.9296 10.2379L15.8939 10.2736L15.8621 10.3094L15.8304 10.3451L15.7987 10.3808L15.7669 10.4165L15.7352 10.4522L15.7035 10.4879L15.6717 10.5236L15.64 10.5633L15.6122 10.6029L15.5805 10.6426L15.5527 10.6823L15.521 10.7219L15.4932 10.7616L15.4654 10.8013L15.4376 10.841L15.4099 10.8806L15.3821 10.9203L15.3543 10.96L15.3305 11.0036L15.3028 11.0473L15.279 11.0909L15.2552 11.1345L15.2314 11.1782L15.2075 11.2218L15.1837 11.2655L15.1639 11.3091L15.1441 11.3527L15.1242 11.3964L15.1044 11.44L15.0846 11.4837L15.0647 11.5273L15.0449 11.5709L15.0251 11.6185L15.0092 11.6662L14.9933 11.7138L14.9774 11.7614L14.9616 11.809L14.9457 11.8566L14.9298 11.9042L14.914 11.9518L14.8981 11.9994L14.8822 12.047L14.8703 12.0946L14.8584 12.1422L14.8465 12.1898L14.8386 12.2374L14.8267 12.285L14.8188 12.3327L14.8108 12.3803L14.8029 12.4318L14.795 12.4834L14.787 12.535L14.7791 12.5866L14.7751 12.6381L14.7672 12.6897L14.7632 12.7413L14.7592 12.7929L14.7553 12.8444L14.7513 12.896L14.7473 12.9476L14.7434 12.9991V13.0507V13.1023V13.1539V13.2054L14.7473 13.257L14.7513 13.3086L14.7553 13.3602L14.7592 13.4117L14.7632 13.4633L14.7672 13.5149L14.7751 13.5665L14.7791 13.618L14.787 13.6696L14.795 13.7212L14.8029 13.7728L14.8108 13.8243L14.8188 13.8719L14.8267 13.9196L14.8386 13.9672L14.8465 14.0148L14.8584 14.0624L14.8703 14.11L14.8822 14.1576L14.8981 14.2052L14.914 14.2528L14.9298 14.3004L14.9457 14.348L14.9616 14.3956L14.9774 14.4432L14.9933 14.4908L15.0092 14.5384L15.0251 14.5861L15.0449 14.6337L15.0647 14.6773L15.0846 14.7209L15.1044 14.7646L15.1242 14.8082L15.1441 14.8519L15.1639 14.8955L15.1837 14.9391L15.2075 14.9828L15.2314 15.0264L15.2552 15.0701L15.279 15.1137L15.3028 15.1573L15.3305 15.201L15.3543 15.2446L15.3821 15.2843L15.4099 15.324L15.4376 15.3636L15.4654 15.4033L15.4932 15.443L15.521 15.4827L15.5527 15.5223L15.5805 15.562L15.6122 15.6017L15.64 15.6413L15.6717 15.681L15.7035 15.7167L15.7352 15.7524L15.7669 15.7881L15.7987 15.8238L15.8304 15.8595L15.8621 15.8952L15.8939 15.9309L15.9296 15.9667L15.9613 16.0024L15.997 16.0381L16.0327 16.0698L16.0684 16.1015L16.1041 16.1333L16.1438 16.165L16.1795 16.1968L16.2192 16.2285L16.2589 16.2602L16.2985 16.292L16.3382 16.3237L16.3779 16.3515L16.4176 16.3792L16.4572 16.407L16.4969 16.4348L16.5366 16.4626L16.5762 16.4903L16.6159 16.5181L16.6596 16.5459L16.6992 16.5697L16.7429 16.5935L16.7865 16.6173L16.8302 16.6411L16.8738 16.6649L16.9174 16.6887L16.9611 16.7125L17.0047 16.7363L17.0484 16.7561L17.092 16.776L17.1356 16.7958L17.1793 16.8156L17.2229 16.8355L17.2666 16.8553L17.3102 16.8752L17.3578 16.891L17.4014 16.9069L17.449 16.9228L17.4927 16.9386L17.5403 16.9545L17.5879 16.9704L17.6355 16.9862L17.6831 16.9981L17.7307 17.01L17.7823 17.0219L17.8299 17.0338L17.8775 17.0457L17.9291 17.0576L17.9767 17.0696L18.0283 17.0775L18.0798 17.0854L18.1314 17.0934L18.183 17.1013L18.2346 17.1092L18.2861 17.1172L18.3377 17.1251L18.3893 17.1291L18.4409 17.133L18.4924 17.137L18.544 17.141L18.5956 17.1449L18.6472 17.1489H18.6987H18.7503H18.8019H18.8535H18.905H18.9566L19.0082 17.1449L19.0598 17.141L19.1113 17.137L19.1629 17.133L19.2145 17.1291L19.266 17.1251L19.3176 17.1172L19.3692 17.1092L19.4208 17.1013L19.4723 17.0934L19.5239 17.0854L19.5755 17.0775L19.6271 17.0696L19.6747 17.0576L19.7262 17.0457L19.7739 17.0338L19.8254 17.0219L19.873 17.01L19.9206 16.9981L19.9682 16.9862L20.0159 16.9704L20.0635 16.9545L20.1111 16.9386L20.1547 16.9228L20.2023 16.9069L20.246 16.891L20.2936 16.8752L20.3372 16.8553L20.3808 16.8355L20.4245 16.8156L20.4681 16.7958L20.5118 16.776L20.5554 16.7561L20.599 16.7363L20.6427 16.7125L20.6863 16.6887L20.73 16.6649L20.7696 16.6411L20.8133 16.6173L20.8569 16.5935L20.9006 16.5697L20.9402 16.5459L20.9839 16.5181L21.0235 16.4903L21.0632 16.4626L21.1029 16.4348L21.1426 16.407L21.1822 16.3792L21.2219 16.3515L21.2616 16.3237L21.3012 16.292L21.3409 16.2602L21.3806 16.2285L21.4203 16.1968L21.4599 16.165L21.4956 16.1333L21.5313 16.1015L21.5671 16.0698L21.6028 16.0381L21.6385 16.0024L21.6702 15.9667L21.7059 15.9309L21.7376 15.8952L21.7694 15.8595L21.8011 15.8238L21.8329 15.7881L21.8646 15.7524L21.8963 15.7167L21.9281 15.681L21.9598 15.6413L21.9915 15.6017L22.0193 15.562L22.0471 15.5223L22.0788 15.4827L22.1066 15.443L22.1344 15.4033L22.1621 15.3636L22.1899 15.324L22.2177 15.2843L22.2455 15.2446L22.2693 15.201L22.2772 15.1851L22.2931 15.1573L22.3169 15.1137L22.3407 15.0701L22.3645 15.0264L22.3883 14.9828L22.4121 14.9391L22.4319 14.8955L22.4518 14.8519L22.4716 14.8082L22.4914 14.7646L22.5113 14.7209L22.5311 14.6773L22.5509 14.6337L22.5708 14.5861L22.5866 14.5384L22.6025 14.4908L22.6184 14.4432L22.6342 14.3956L22.6501 14.348L22.666 14.3004L22.6818 14.2528L22.6977 14.2052L22.7136 14.1576L22.7255 14.11L22.7374 14.0624L22.7493 14.0148L22.7612 13.9672L22.7691 13.9196L22.7771 13.8719L22.785 13.8243L22.7929 13.7728L22.8009 13.7212L22.8088 13.6696L22.8167 13.618L22.8207 13.5665L22.8286 13.5149L22.8326 13.4633L22.8366 13.4117L22.8405 13.3602L22.8445 13.3086L22.8485 13.257L22.8524 13.2054V13.1539V13.1023V13.0507V12.9991L22.8485 12.9476L22.8445 12.896L22.8405 12.8444L22.8366 12.7929L22.8326 12.7413L22.8286 12.6897L22.8207 12.6381L22.8167 12.5866L22.8088 12.535L22.8009 12.4834L22.7929 12.4318L22.785 12.3803L22.7771 12.3327L22.7691 12.285L22.7612 12.2374L22.7493 12.1898L22.7374 12.1422L22.7255 12.0946L22.7136 12.047L22.6977 11.9994L22.6818 11.9518L22.666 11.9042L22.6501 11.8566L22.6342 11.809L22.6184 11.7614L22.6025 11.7138L22.5866 11.6662L22.5708 11.6185L22.5509 11.5709L22.5311 11.5273L22.5113 11.4837L22.4914 11.44L22.4716 11.3964L22.4518 11.3527L22.4319 11.3091L22.4121 11.2655L22.3883 11.2218L22.3645 11.1782L22.3407 11.1345L22.3169 11.0909L22.2931 11.0473L22.2653 11.0036L22.2415 10.96L22.2137 10.9203L22.1859 10.8806L22.1582 10.841L22.1304 10.8013L22.1026 10.7616L22.0749 10.7219L22.0431 10.6823L22.0154 10.6426L21.9876 10.6029L21.9558 10.5633L21.9241 10.5236L21.8924 10.4879L21.8606 10.4522L21.8289 10.4165L21.7972 10.3808L21.7654 10.3451L21.7337 10.3094L21.7019 10.2736L21.6662 10.2379L21.6345 10.2022L21.5988 10.1665L21.5631 10.1348L21.5274 10.1031L21.4917 10.0713L21.456 10.0396L21.4163 10.0078L21.3766 9.9761L21.3369 9.94437L21.2973 9.91263L21.2576 9.88089L21.2179 9.85312L21.1783 9.82535L21.1386 9.79758L21.0989 9.76981L21.0592 9.74204L21.0196 9.71427L20.9799 9.68649L20.9363 9.65872L20.8966 9.63492L20.8529 9.61112L20.8093 9.58731L20.7657 9.56351L20.726 9.53971L20.6824 9.5159L20.6387 9.4921L20.5951 9.4683L20.5514 9.44846L20.5078 9.42862L20.4642 9.40879L20.4205 9.38895L20.3769 9.36911L20.3332 9.34928L20.2896 9.32944L20.242 9.31357L20.1984 9.2977L20.1507 9.28183L20.1071 9.26597L20.0595 9.2501L20.0119 9.23423L19.9643 9.21836L19.9167 9.20646L19.8691 9.19456L19.8215 9.18265L19.7699 9.17075L19.7223 9.15885L19.6707 9.14695L19.6231 9.13505L19.5715 9.12711L19.52 9.11918L19.4684 9.11124L19.4168 9.10331L19.3652 9.09538L19.3137 9.08744L19.2621 9.07951L19.2105 9.07554L19.1589 9.07157L19.1074 9.0676L19.0558 9.06364L19.0042 9.05967L18.9526 9.0557H18.9011H18.8495H18.7979H18.7503Z" fill="#4A12C0"/>
<path fill-rule="evenodd" clip-rule="evenodd" d="M41.8215 0.00396749H41.8413H41.9167H41.9365L42.0119 0.00793499H42.0357L42.1111 0.0119013H42.1309L42.2063 0.0158688H42.2261L42.3015 0.0198363H42.3253L42.3967 0.0277712H42.4205L42.4959 0.035705L42.5157 0.0396725L42.5871 0.0476075L42.611 0.0515738L42.6824 0.0595088L42.7022 0.0634763L42.7776 0.07141L42.7974 0.0753775L42.8688 0.08728L42.8887 0.0912463L42.964 0.103149L42.9839 0.107116L43.0553 0.119018L43.0751 0.122985L43.1465 0.134886L43.1664 0.138854L43.2338 0.154723L43.2536 0.15869L43.3251 0.174559L43.3449 0.178526L43.4163 0.194395L43.4361 0.198363L43.5036 0.214231L43.5234 0.218199L43.5909 0.234068L43.6107 0.238035L43.6781 0.257871L43.698 0.261839L43.7654 0.281675L43.7853 0.289609L43.8527 0.309445L43.8725 0.31738L43.94 0.337216L43.9598 0.345151L44.0273 0.364988L44.0471 0.372921L44.1145 0.396725L44.1344 0.40466L44.2018 0.428463L44.2217 0.436398L44.2891 0.460201L44.3089 0.468135L44.3764 0.491939L44.3962 0.499874L44.4637 0.523678L44.4835 0.531611L44.5509 0.559383L44.5708 0.567316L44.6382 0.595088L44.6581 0.603023L44.7215 0.630793L44.7414 0.638728L44.8088 0.666498L44.8286 0.674433L44.8921 0.702204L44.912 0.710138L44.9754 0.741877L44.9953 0.74981L45.0587 0.781549L45.0786 0.789483L45.1421 0.821222L45.1619 0.829155L45.2254 0.860894L45.2452 0.872795L45.3087 0.904533L45.3285 0.916435L45.392 0.95214L45.4118 0.964042L45.4713 0.999748L45.4912 1.01165L45.5507 1.04735L45.5705 1.05926L45.63 1.09496L45.6499 1.10686L45.7094 1.14257L45.7252 1.15447L45.7848 1.19018L45.8006 1.20208L45.8601 1.24175L45.876 1.25365L45.9355 1.29332L45.9514 1.30523L46.0069 1.3449L46.0228 1.3568L46.0783 1.39647L46.0982 1.40837L46.1537 1.44805L46.1696 1.45995L46.2251 1.49962L46.241 1.51152L46.2965 1.55516L46.3124 1.56706L46.3679 1.6107L46.3838 1.62261L46.4354 1.66625L46.4512 1.67815L46.5068 1.72179L46.5227 1.73369L46.5742 1.77733L46.5901 1.78923L46.6417 1.83287L46.6576 1.84477L46.7091 1.89238L46.725 1.90428L46.7766 1.95189L46.7924 1.96776L46.844 2.01536L46.8599 2.03123L46.9115 2.07884L46.9273 2.09471L46.9789 2.14232L46.9948 2.15818L47.0463 2.20579L47.0622 2.22166L47.1138 2.26927L47.1297 2.28514L47.1773 2.33671L47.1931 2.35258L47.2407 2.40415L47.2566 2.42002L47.3042 2.4716L47.3201 2.48747L47.3637 2.53904L47.3796 2.55491L47.4232 2.60648L47.4391 2.62235L47.4827 2.67393L47.4986 2.6898L47.5422 2.74137L47.5541 2.75724L47.5978 2.81278L47.6097 2.82865L47.6533 2.88419L47.6692 2.90006L47.7128 2.9556L47.7247 2.97147L47.7684 3.02701L47.7803 3.04288L47.8199 3.09842L47.8358 3.11429L47.8755 3.16983L47.8874 3.1857L47.9271 3.24125L47.939 3.25711L47.9786 3.31662L47.9905 3.33249L48.0302 3.392L48.0421 3.40787L48.0818 3.46738L48.0937 3.48325L48.1334 3.54276L48.1413 3.56259L48.181 3.6221L48.1889 3.64194L48.2286 3.70145L48.2365 3.72128L48.2722 3.78079L48.2802 3.80063L48.3159 3.86014L48.3238 3.87997L48.3555 3.93948L48.3674 3.95932L48.3992 4.02279L48.4071 4.04263L48.4388 4.10611L48.4468 4.12594L48.4785 4.18942L48.4864 4.20925L48.5182 4.27273L48.5261 4.29257L48.5579 4.35604L48.5658 4.37588L48.5936 4.43936L48.6015 4.45919L48.6293 4.52267L48.6372 4.5425L48.665 4.60598L48.6729 4.62581L48.7007 4.68929L48.7086 4.70913L48.7364 4.77657L48.7443 4.79641L48.7721 4.86385L48.78 4.88369L48.8038 4.95113L48.8118 4.97097L48.8356 5.03841L48.8435 5.05825L48.8633 5.12569L48.8713 5.14553L48.8951 5.21297L48.903 5.23281L48.9228 5.30025L48.9268 5.32008L48.9467 5.38753L48.9546 5.40736L48.9744 5.47481L48.9824 5.49464L49.0022 5.56209L49.0062 5.58192L49.026 5.64937L49.03 5.6692L49.0458 5.74061L49.0498 5.76045L49.0696 5.83186L49.0736 5.8517L49.0895 5.92311L49.0934 5.94294L49.1093 6.01435L49.1133 6.03419L49.1291 6.1056L49.1331 6.12544L49.145 6.19685L49.149 6.21668L49.1609 6.28809L49.1649 6.30793L49.1728 6.37934L49.1768 6.39918L49.1847 6.47059L49.1887 6.49439L49.1966 6.5658L49.2006 6.5896L49.2085 6.66102L49.2125 6.68482L49.2204 6.75623L49.2244 6.78003L49.2323 6.85144L49.2363 6.87525L49.2402 6.94666L49.2442 6.97046L49.2482 7.04584L49.2521 7.06964L49.2561 7.14502L49.2601 7.16882L49.264 7.2442L49.268 7.26801L49.272 7.34338V7.36719L49.2759 7.44256V7.46637V7.54174V7.56555V7.64093V7.66473L49.272 7.74011V7.76391L49.268 7.83929L49.264 7.86309L49.2601 7.93847L49.2561 7.96227L49.2521 8.03765L49.2482 8.06146L49.2442 8.13683L49.2402 8.16064L49.2363 8.23205L49.2323 8.25585L49.2244 8.32726L49.2204 8.35106L49.2125 8.42247L49.2085 8.44628L49.2006 8.51769L49.1966 8.54149L49.1887 8.6129L49.1847 8.63671L49.1768 8.70812L49.1728 8.72795L49.1649 8.79936L49.1609 8.8192L49.149 8.89061L49.145 8.91045L49.1331 8.98186L49.1291 9.00169L49.1133 9.0731L49.1093 9.09294L49.0934 9.16435L49.0895 9.18419L49.0736 9.2556L49.0696 9.27543L49.0498 9.34684L49.0458 9.36668L49.03 9.43809L49.026 9.45793L49.0062 9.52537L49.0022 9.54521L48.9824 9.61265L48.9744 9.63249L48.9546 9.69993L48.9467 9.71977L48.9268 9.78721L48.9228 9.80705L48.903 9.87449L48.8951 9.89433L48.8713 9.96177L48.8633 9.9816L48.8435 10.049L48.8356 10.0689L48.8118 10.1363L48.8038 10.1562L48.78 10.2236L48.7721 10.2434L48.7443 10.3109L48.7364 10.3307L48.7086 10.3982L48.7007 10.418L48.6729 10.4815L48.665 10.5013L48.6372 10.5648L48.6293 10.5846L48.6015 10.6481L48.5936 10.6679L48.5658 10.7314L48.5579 10.7513L48.5261 10.8147L48.5182 10.8346L48.4864 10.898L48.4785 10.9179L48.4468 10.9814L48.4388 11.0012L48.4071 11.0647L48.3992 11.0845L48.3674 11.148L48.3555 11.1678L48.3238 11.2273L48.3159 11.2472L48.2802 11.3067L48.2722 11.3265L48.2365 11.386L48.2286 11.4058L48.2087 11.4416L48.1929 11.4654L48.1849 11.4852L48.1453 11.5447L48.1373 11.5645L48.0977 11.624L48.0858 11.6399L48.0461 11.6994L48.0342 11.7153L47.9945 11.7748L47.9826 11.7907L47.9429 11.8502L47.931 11.866L47.8914 11.9216L47.8795 11.9375L47.8398 11.993L47.8239 12.0089L47.7842 12.0644L47.7723 12.0803L47.7287 12.1358L47.7168 12.1517L47.6732 12.2072L47.6573 12.2231L47.6137 12.2786L47.6017 12.2945L47.5581 12.3501L47.5462 12.3659L47.5026 12.4175L47.4867 12.4334L47.4431 12.4849L47.4272 12.5008L47.3836 12.5524L47.3677 12.5683L47.324 12.6198L47.3082 12.6357L47.2606 12.6873L47.2447 12.7031L47.1971 12.7547L47.1812 12.7706L47.1336 12.8222L47.1177 12.838L47.0662 12.8856L47.0503 12.9015L46.9987 12.9491L46.9829 12.965L46.9313 13.0126L46.9154 13.0285L46.8638 13.0761L46.848 13.0919L46.7964 13.1395L46.7805 13.1554L46.729 13.203L46.7131 13.2149L46.6615 13.2625L46.6456 13.2744L46.5941 13.3181L46.5782 13.33L46.5266 13.3736L46.5108 13.3855L46.4552 13.4291L46.4394 13.441L46.3878 13.4847L46.3719 13.4966L46.3164 13.5402L46.3005 13.5521L46.245 13.5958L46.2291 13.6077L46.1735 13.6473L46.1577 13.6592L46.1021 13.6989L46.0823 13.7108L46.0268 13.7505L46.0109 13.7624L45.9553 13.8021L45.9395 13.814L45.88 13.8536L45.8641 13.8655L45.8046 13.9052L45.7887 13.9171L45.7292 13.9528L45.7133 13.9647L45.6538 14.0004L45.634 14.0123L45.5745 14.048L45.5547 14.0599L45.4951 14.0956L45.4753 14.1075L45.4158 14.1433L45.396 14.1552L45.3325 14.1909L45.3126 14.2028L45.2492 14.2345L45.2293 14.2424L45.1659 14.2742L45.146 14.2821L45.0825 14.3138L45.0627 14.3218L44.9992 14.3535L44.9794 14.3615L44.9159 14.3932L44.8961 14.4011L44.8326 14.4289L44.8128 14.4368L44.7453 14.4646L44.7255 14.4725L44.662 14.5003L44.6422 14.5082L44.5747 14.536L44.5549 14.5439L44.4875 14.5717L44.4676 14.5796L44.4002 14.6035L44.3803 14.6114L44.3129 14.6352L44.2931 14.6431L44.2256 14.6669L44.2058 14.6749L44.1383 14.6987L44.1185 14.7066L44.0511 14.7304L44.0312 14.7383L43.9638 14.7582L43.9439 14.7661L43.8765 14.7859L43.8567 14.7939L43.7892 14.8137L43.7694 14.8217L43.7019 14.8415L43.6821 14.8455L43.6147 14.8653L43.5948 14.8693L43.5274 14.8851L43.5075 14.8891L43.4401 14.905L43.4203 14.9089L43.3489 14.9248L43.329 14.9288L43.2576 14.9446L43.2378 14.9486L43.1703 14.9645L43.1505 14.9684L43.0791 14.9803L43.0592 14.9843L42.9878 14.9962L42.968 15.0002L42.8926 15.0121L42.8728 15.016L42.8014 15.0279L42.7815 15.0319L42.7062 15.0398L42.6863 15.0438L42.6149 15.0518L42.5911 15.0557L42.5197 15.0637L42.4999 15.0676L42.4245 15.0756H42.4007L42.3293 15.0835H42.3055L42.2301 15.0875H42.2103L42.1349 15.0914H42.115L42.0397 15.0954H42.0159L41.9405 15.0994H41.9206H41.8453H41.8254H41.7501H41.7263H41.6509H41.631H41.5557H41.5358L41.4605 15.0954H41.4366L41.3613 15.0914H41.3414L41.2661 15.0875H41.2462L41.1708 15.0835H41.147L41.0756 15.0756H41.0518L40.9764 15.0676L40.9566 15.0637L40.8852 15.0557L40.8614 15.0518L40.79 15.0438L40.7701 15.0398L40.6948 15.0319L40.6749 15.0279L40.6035 15.016L40.5837 15.0121L40.5083 15.0002L40.4885 14.9962L40.4171 14.9843L40.3972 14.9803L40.3258 14.9684L40.306 14.9645L40.2385 14.9486L40.2187 14.9446L40.1473 14.9288L40.1275 14.9248L40.056 14.9089L40.0362 14.905H40.0283L39.9648 14.8891L39.945 14.8851L39.8775 14.8693L39.8577 14.8653L39.7902 14.8455L39.7704 14.8415L39.703 14.8217L39.6831 14.8137L39.6157 14.7939L39.5958 14.7859L39.5284 14.7661L39.5086 14.7582L39.4411 14.7383L39.4213 14.7304L39.3538 14.7066L39.334 14.6987L39.2666 14.6749L39.2467 14.6669L39.1793 14.6431L39.1594 14.6352L39.092 14.6114L39.0722 14.6035L39.0047 14.5796L38.9849 14.5717L38.9174 14.5439L38.8976 14.536L38.8302 14.5082L38.8103 14.5003L38.7468 14.4725L38.727 14.4646L38.6635 14.4368L38.6437 14.4289L38.5802 14.4011L38.5604 14.3932L38.4969 14.3615L38.4771 14.3535L38.4136 14.3218L38.3938 14.3138L38.3303 14.2821L38.3104 14.2742L38.247 14.2424L38.2271 14.2345L38.1637 14.2028L38.1438 14.1909L38.0803 14.1552L38.0605 14.1433L38.001 14.1075L37.9812 14.0956L37.9217 14.0599L37.9018 14.048L37.8423 14.0123L37.8225 14.0004L37.763 13.9647L37.7471 13.9528L37.6876 13.9171L37.6717 13.9052L37.6122 13.8655L37.5963 13.8536L37.5368 13.814L37.521 13.8021L37.4654 13.7624L37.4496 13.7505L37.394 13.7108L37.3742 13.6989L37.3186 13.6592L37.2988 13.6473L37.2433 13.6077L37.2274 13.5958L37.1718 13.5521L37.156 13.5402L37.1004 13.4966L37.0846 13.4847L37.029 13.441L37.0132 13.4291L36.9576 13.3855L36.9417 13.3736L36.8902 13.33L36.8743 13.3181L36.8227 13.2744L36.8069 13.2625L36.7553 13.2149L36.7394 13.203L36.6878 13.1554L36.672 13.1395L36.6204 13.0919L36.6045 13.0761L36.553 13.0285L36.5371 13.0126L36.4855 12.965L36.4696 12.9491L36.4181 12.9015L36.4022 12.8856L36.3506 12.838L36.3348 12.8222L36.2871 12.7706L36.2713 12.7547L36.2237 12.7031L36.2078 12.6873L36.1602 12.6357L36.1443 12.6198L36.1007 12.5683L36.0848 12.5524L36.0412 12.5008L36.0253 12.4849L35.9817 12.4334L35.9658 12.4175L35.9222 12.3659L35.9103 12.3501L35.8666 12.2945L35.8547 12.2786L35.8111 12.2231L35.7952 12.2072L35.7516 12.1517L35.7397 12.1358L35.696 12.0803L35.6841 12.0644L35.6445 12.0089L35.6286 11.993L35.5889 11.9375L35.577 11.9216L35.5373 11.866L35.5254 11.8502L35.4858 11.7907L35.4739 11.7748L35.4342 11.7153L35.4223 11.6994L35.3826 11.6399L35.3707 11.624L35.331 11.5645L35.3231 11.5447L35.2834 11.4852L35.2755 11.4654L35.2358 11.4058L35.2279 11.386L35.1922 11.3265L35.1843 11.3067L35.1485 11.2472L35.1406 11.2273L35.1089 11.1678L35.097 11.148L35.0652 11.0845L35.0533 11.0647L35.0216 11.0012L35.0137 10.9814L34.9819 10.9179L34.974 10.898L34.9423 10.8346L34.9343 10.8147L34.9026 10.7513L34.8946 10.7314L34.8669 10.6679L34.8589 10.6481L34.8312 10.5846L34.8232 10.5648L34.7955 10.5013L34.7875 10.4815L34.7598 10.418L34.7518 10.3982L34.7241 10.3307L34.7161 10.3109L34.6883 10.2434L34.6804 10.2236L34.6566 10.1562L34.6487 10.1363L34.6249 10.0689L34.6169 10.049L34.5971 9.9816L34.5892 9.96177L34.5654 9.89433L34.5574 9.87449L34.5376 9.80705L34.5336 9.78721L34.5138 9.71977L34.5059 9.69993L34.486 9.63249L34.4781 9.61265L34.4583 9.54521L34.4543 9.52537L34.4344 9.45793L34.4305 9.43809L34.4146 9.36668L34.4106 9.34684L34.3948 9.27543L34.3908 9.2556L34.3749 9.18419L34.371 9.16435L34.3551 9.09294L34.3511 9.0731L34.3353 9.00169L34.3313 8.98186L34.3194 8.91045L34.3154 8.89061L34.3035 8.8192L34.2996 8.79936L34.2916 8.72795L34.2877 8.70812L34.2797 8.63671L34.2758 8.6129L34.2678 8.54149L34.2639 8.51769L34.2559 8.44628L34.2519 8.42247L34.244 8.35106L34.2401 8.32726L34.2321 8.25585L34.2281 8.23205L34.2242 8.16064L34.2202 8.13683L34.2162 8.06146L34.2123 8.03765L34.2083 7.96227L34.2043 7.93847L34.2004 7.86309L34.1964 7.83929L34.1924 7.76391V7.74011L34.1885 7.66473V7.64093V7.55761V7.53381V7.45843V7.4386L34.1924 7.36322V7.33942L34.1964 7.26404L34.2004 7.24023L34.2043 7.16486L34.2083 7.14105L34.2123 7.06567L34.2162 7.04187L34.2202 6.96649L34.2242 6.94269L34.2281 6.87128L34.2321 6.84748L34.2401 6.77607L34.244 6.75226L34.2519 6.68085L34.2559 6.65705L34.2639 6.58564L34.2678 6.56184L34.2758 6.49042L34.2797 6.46662L34.2877 6.39521L34.2916 6.37537L34.2996 6.30396L34.3035 6.28413L34.3154 6.21271L34.3194 6.19288L34.3313 6.12147L34.3353 6.10163L34.3511 6.03022L34.3551 6.01039L34.371 5.93898L34.3749 5.91914L34.3908 5.84773L34.3948 5.82789L34.4106 5.75648L34.4146 5.73664L34.4305 5.66523L34.4344 5.6454L34.4543 5.57795L34.4583 5.55812L34.4781 5.49068L34.486 5.47084L34.5059 5.4034L34.5138 5.38356L34.5336 5.31612L34.5376 5.29628L34.5574 5.22884L34.5654 5.209L34.5892 5.14156L34.5971 5.12172L34.6169 5.05428L34.6249 5.03444L34.6487 4.967L34.6566 4.94716L34.6804 4.87972L34.6883 4.85988L34.7161 4.79244L34.7241 4.7726L34.7518 4.70516L34.7598 4.68532L34.7875 4.62185L34.7955 4.60201L34.8232 4.53854L34.8312 4.5187L34.8589 4.45522L34.8669 4.43539L34.8946 4.37191L34.9026 4.35208L34.9343 4.2886L34.9423 4.26876L34.974 4.20529L34.9819 4.18545L35.0137 4.12198L35.0216 4.10214L35.0533 4.03866L35.0652 4.01883L35.097 3.95535L35.1089 3.93551L35.1406 3.87601L35.1485 3.85617L35.1843 3.79666L35.1922 3.77682L35.2279 3.71732L35.2358 3.69748L35.2755 3.63797L35.2834 3.61813L35.3231 3.55863L35.331 3.53879L35.3707 3.47928L35.3826 3.46341L35.4223 3.4039L35.4342 3.38803L35.4739 3.32853L35.4858 3.31266L35.5254 3.25315L35.5373 3.23728L35.577 3.18174L35.5889 3.16587L35.6286 3.11033L35.6445 3.09446L35.6841 3.03891L35.696 3.02305L35.7397 2.9675L35.7516 2.95164L35.7952 2.89609L35.8111 2.88022L35.8547 2.82468L35.8666 2.80881L35.9103 2.75327L35.9222 2.7374L35.9658 2.68583L35.9817 2.66996L36.0253 2.61839L36.0412 2.60252L36.0848 2.55094L36.1007 2.53507L36.1443 2.48747L36.1483 2.4835L36.1642 2.46763L36.2118 2.41606L36.2276 2.40019L36.2752 2.34861L36.2911 2.33274L36.3387 2.28117L36.3546 2.2653L36.4062 2.21769L36.422 2.20182L36.4736 2.15422L36.4895 2.13835L36.5411 2.09074L36.5569 2.07487L36.6085 2.02727L36.6244 2.0114L36.6759 1.96379L36.6918 1.94792L36.7434 1.90031L36.7593 1.88841L36.8108 1.8408L36.8267 1.8289L36.8783 1.78526L36.8941 1.77336L36.9457 1.72972L36.9616 1.71782L37.0171 1.67418L37.033 1.66228L37.0885 1.61864L37.1044 1.60674L37.1599 1.5631L37.1758 1.5512L37.2314 1.50756L37.2472 1.49565L37.3028 1.45598L37.3226 1.44408L37.3781 1.40441L37.398 1.39251L37.4535 1.35283L37.4694 1.34093L37.5249 1.30126L37.5408 1.28936L37.6003 1.24968L37.6162 1.23778L37.6757 1.19811L37.6916 1.18621L37.7511 1.1505L37.7669 1.1386L37.8264 1.1029L37.8463 1.09099L37.9058 1.05529L37.9256 1.04339L37.9851 1.00768L38.005 0.99578L38.0645 0.960075L38.0843 0.948173L38.1478 0.912468L38.1676 0.900567L38.2311 0.868828L38.2509 0.856927L38.3144 0.825188L38.3343 0.817254L38.3977 0.785515L38.4176 0.777582L38.481 0.745843L38.5009 0.737909L38.5644 0.70617L38.5842 0.698237L38.6477 0.670465L38.6675 0.662531L38.731 0.63476L38.7508 0.626825L38.8143 0.599055L38.8341 0.59112L38.9016 0.56335L38.9214 0.555415L38.9889 0.527644L39.0087 0.51971L39.0761 0.495906L39.096 0.487971L39.1634 0.464169L39.1832 0.456234L39.2507 0.43243L39.2705 0.424496L39.338 0.400693L39.3578 0.392758L39.4252 0.368954L39.4451 0.36102L39.5125 0.341184L39.5324 0.333249L39.5998 0.313413L39.6196 0.305479L39.6871 0.285643L39.7069 0.277708L39.7744 0.257871L39.7942 0.253904L39.8616 0.234068L39.8815 0.2301L39.9489 0.214231L39.9688 0.210264L40.0362 0.194395L40.056 0.190428L40.1275 0.174559L40.1473 0.170591L40.2187 0.154723L40.2385 0.150755L40.306 0.134886L40.3258 0.130919L40.3972 0.119018L40.4171 0.11505L40.4885 0.103149L40.5083 0.0991813L40.5837 0.08728L40.6035 0.0833125L40.6749 0.07141L40.6948 0.0674438L40.7701 0.0595088L40.79 0.0555413L40.8614 0.0476075L40.8852 0.04364L40.9566 0.035705L40.9764 0.0317375L41.0518 0.0238038H41.0756L41.147 0.0158688H41.1708L41.2462 0.0119013H41.2661L41.3414 0.00793499H41.3613L41.4366 0.00396749H41.4605L41.5358 0H41.5557H41.631H41.6509H41.7263H41.7501L41.8215 0.00396749ZM41.6826 3.49515H41.631H41.5795L41.5279 3.49912L41.4763 3.50308L41.4247 3.50705L41.3732 3.51102L41.3216 3.51498L41.27 3.51895L41.2184 3.52689L41.1669 3.53482L41.1153 3.54276L41.0637 3.55069L41.0121 3.55863L40.9606 3.56656L40.909 3.57449L40.8614 3.5864L40.8098 3.5983L40.7622 3.6102L40.7146 3.6221L40.663 3.634L40.6154 3.64591L40.5678 3.65781L40.5202 3.67367L40.4726 3.68954L40.425 3.70541L40.3814 3.72128L40.3337 3.73715L40.2901 3.75302L40.2425 3.76889L40.1989 3.78873L40.1552 3.80856L40.1116 3.8284L40.0679 3.84823L40.0243 3.86807L39.9807 3.88791L39.937 3.90774L39.8934 3.93155L39.8497 3.95535L39.8061 3.97915L39.7625 4.00296L39.7188 4.02676L39.6752 4.05056L39.6315 4.07437L39.5919 4.09817L39.5482 4.12594L39.5086 4.15371L39.4689 4.18148L39.4292 4.20925L39.3895 4.23702L39.3499 4.2648L39.3102 4.29257L39.2705 4.32034L39.2308 4.35208L39.1912 4.38381L39.1515 4.41555L39.1118 4.44729L39.0761 4.47903L39.0365 4.51077L39.0008 4.5425L38.965 4.57424L38.9293 4.60598L38.8936 4.64168L38.8619 4.67739L38.8262 4.71309L38.7945 4.7488L38.7627 4.7845L38.731 4.82021L38.6992 4.85592L38.6675 4.89162L38.6358 4.92733L38.604 4.96303L38.5723 5.0027L38.5445 5.04238L38.5128 5.08205L38.485 5.12172L38.4533 5.16139L38.4255 5.20107L38.3977 5.24074L38.37 5.28041L38.3422 5.32008L38.3144 5.35976L38.2866 5.39943L38.2628 5.44307L38.2351 5.48671L38.2113 5.53035L38.1875 5.57399L38.1637 5.61763L38.1399 5.66127L38.1161 5.70491L38.0962 5.74855L38.0764 5.79219L38.0565 5.83583L38.0367 5.87947L38.0169 5.92311L37.997 5.96675L37.9772 6.01039L37.9574 6.05799L37.9415 6.1056L37.9256 6.15321L37.9098 6.20081L37.8939 6.24842L37.878 6.29603L37.8621 6.34364L37.8463 6.39124L37.8304 6.43885L37.8145 6.48646L37.8026 6.53406L37.7907 6.58167L37.7788 6.62928L37.7709 6.67688L37.759 6.72449L37.7511 6.7721L37.7431 6.81971L37.7352 6.87128L37.7273 6.92285L37.7193 6.97443L37.7114 7.026L37.7074 7.07758L37.6995 7.12915L37.6955 7.18073L37.6916 7.2323L37.6876 7.28387L37.6836 7.33545L37.6797 7.38702L37.6757 7.4386V7.49017V7.54174V7.59332V7.64489L37.6797 7.69647L37.6836 7.74804L37.6876 7.79962L37.6916 7.85119L37.6955 7.90277L37.6995 7.95434L37.7074 8.00591L37.7114 8.05749L37.7193 8.10906L37.7273 8.16064L37.7352 8.21221L37.7431 8.26378L37.7511 8.31139L37.759 8.359L37.7709 8.40661L37.7788 8.45421L37.7907 8.50182L37.8026 8.54943L37.8145 8.59703L37.8304 8.64464L37.8463 8.69225L37.8621 8.73985L37.878 8.78746L37.8939 8.83507L37.9098 8.88268L37.9256 8.93028L37.9415 8.97789L37.9574 9.0255L37.9772 9.0731L37.997 9.11674L38.0169 9.16038L38.0367 9.20402L38.0565 9.24766L38.0764 9.2913L38.0962 9.33494L38.1161 9.37858L38.1399 9.42222L38.1637 9.46586L38.1875 9.5095L38.2113 9.55314L38.2351 9.59678L38.2628 9.64042L38.2866 9.68406L38.3144 9.72373L38.3422 9.76341L38.37 9.80308L38.3977 9.84275L38.4255 9.88242L38.4533 9.9221L38.485 9.96177L38.5128 10.0014L38.5445 10.0411L38.5723 10.0808L38.604 10.1205L38.6358 10.1562L38.6675 10.1919L38.6992 10.2276L38.731 10.2633L38.7627 10.299L38.7945 10.3347L38.8262 10.3704L38.8619 10.4061L38.8936 10.4418L38.9293 10.4775L38.965 10.5093L39.0008 10.541L39.0365 10.5727L39.0761 10.6045L39.1118 10.6362L39.1515 10.6679L39.1912 10.6997L39.2308 10.7314L39.2705 10.7632L39.3102 10.7909L39.3499 10.8187L39.3895 10.8465L39.4292 10.8742L39.4689 10.902L39.5086 10.9298L39.5482 10.9575L39.5919 10.9853L39.6315 11.0091L39.6752 11.0329L39.7188 11.0567L39.7625 11.0805L39.8061 11.1043L39.8497 11.1281L39.8934 11.1519L39.937 11.1757L39.9807 11.1956L40.0243 11.2154L40.0679 11.2353L40.1116 11.2551L40.1552 11.2749L40.1989 11.2948L40.2425 11.3146L40.2901 11.3305L40.3337 11.3463L40.3814 11.3622L40.425 11.3781L40.4726 11.3939L40.5202 11.4098L40.5678 11.4257L40.6154 11.4376L40.663 11.4495L40.7146 11.4614L40.7622 11.4733L40.8098 11.4852L40.8614 11.4971L40.909 11.509L40.9606 11.5169L41.0121 11.5249L41.0637 11.5328L41.1153 11.5407L41.1669 11.5487L41.2184 11.5566L41.27 11.5645L41.3216 11.5685L41.3732 11.5725L41.4247 11.5764L41.4763 11.5804L41.5279 11.5844L41.5795 11.5883H41.631H41.6826H41.7342H41.7858H41.8373H41.8889L41.9405 11.5844L41.9921 11.5804L42.0436 11.5764L42.0952 11.5725L42.1468 11.5685L42.1984 11.5645L42.2499 11.5566L42.3015 11.5487L42.3531 11.5407L42.4046 11.5328L42.4562 11.5249L42.5078 11.5169L42.5594 11.509L42.607 11.4971L42.6586 11.4852L42.7062 11.4733L42.7577 11.4614L42.8053 11.4495L42.853 11.4376L42.9006 11.4257L42.9482 11.4098L42.9958 11.3939L43.0434 11.3781L43.087 11.3622L43.1346 11.3463L43.1783 11.3305L43.2259 11.3146L43.2695 11.2948L43.3132 11.2749L43.3568 11.2551L43.4004 11.2353L43.4441 11.2154L43.4877 11.1956L43.5314 11.1757L43.575 11.1519L43.6186 11.1281L43.6623 11.1043L43.7019 11.0805L43.7456 11.0567L43.7892 11.0329L43.8329 11.0091L43.8725 10.9853L43.9162 10.9575L43.9558 10.9298L43.9955 10.902L44.0352 10.8742L44.0749 10.8465L44.1145 10.8187L44.1542 10.7909L44.1939 10.7632L44.2336 10.7314L44.2732 10.6997L44.3129 10.6679L44.3526 10.6362L44.3922 10.6045L44.4279 10.5727L44.4637 10.541L44.4994 10.5093L44.5351 10.4775L44.5708 10.4418L44.6025 10.4061L44.6382 10.3704L44.67 10.3347L44.7017 10.299L44.7334 10.2633L44.7652 10.2276L44.7969 10.1919L44.8286 10.1562L44.8604 10.1205L44.8921 10.0808L44.9239 10.0411L44.9516 10.0014L44.9794 9.96177L45.0111 9.9221L45.0389 9.88242L45.0667 9.84275L45.0944 9.80308L45.1222 9.76341L45.15 9.72373L45.1778 9.68406L45.2016 9.64042L45.2095 9.62455L45.2254 9.59678L45.2492 9.55314L45.273 9.5095L45.2968 9.46586L45.3206 9.42222L45.3444 9.37858L45.3642 9.33494L45.3841 9.2913L45.4039 9.24766L45.4237 9.20402L45.4436 9.16038L45.4634 9.11674L45.4832 9.0731L45.5031 9.0255L45.5189 8.97789L45.5348 8.93028L45.5507 8.88268L45.5666 8.83507L45.5824 8.78746L45.5983 8.73985L45.6142 8.69225L45.63 8.64464L45.6459 8.59703L45.6578 8.54943L45.6697 8.50182L45.6816 8.45421L45.6935 8.40661L45.7014 8.359L45.7094 8.31139L45.7173 8.26378L45.7252 8.21221L45.7332 8.16064L45.7411 8.10906L45.749 8.05749L45.753 8.00591L45.7609 7.95434L45.7649 7.90277L45.7689 7.85119L45.7729 7.79962L45.7768 7.74804L45.7808 7.69647L45.7848 7.64489V7.59332V7.54174V7.49017V7.4386L45.7808 7.38702L45.7768 7.33545L45.7729 7.28387L45.7689 7.2323L45.7649 7.18073L45.7609 7.12915L45.753 7.07758L45.749 7.026L45.7411 6.97443L45.7332 6.92285L45.7252 6.87128L45.7173 6.81971L45.7094 6.7721L45.7014 6.72449L45.6935 6.67688L45.6816 6.62928L45.6697 6.58167L45.6578 6.53406L45.6459 6.48646L45.63 6.43885L45.6142 6.39124L45.5983 6.34364L45.5824 6.29603L45.5666 6.24842L45.5507 6.20081L45.5348 6.15321L45.5189 6.1056L45.5031 6.05799L45.4832 6.01039L45.4634 5.96675L45.4436 5.92311L45.4237 5.87947L45.4039 5.83583L45.3841 5.79219L45.3642 5.74855L45.3444 5.70491L45.3206 5.66127L45.2968 5.61763L45.273 5.57399L45.2492 5.53035L45.2254 5.48671L45.1976 5.44307L45.1738 5.39943L45.146 5.35976L45.1183 5.32008L45.0905 5.28041L45.0627 5.24074L45.0349 5.20107L45.0072 5.16139L44.9754 5.12172L44.9477 5.08205L44.9199 5.04238L44.8882 5.0027L44.8564 4.96303L44.8247 4.92733L44.7929 4.89162L44.7612 4.85592L44.7295 4.82021L44.6977 4.7845L44.666 4.7488L44.6343 4.71309L44.5985 4.67739L44.5668 4.64168L44.5311 4.60598L44.4954 4.57424L44.4597 4.5425L44.424 4.51077L44.3883 4.47903L44.3486 4.44729L44.3089 4.41555L44.2693 4.38381L44.2296 4.35208L44.1899 4.32034L44.1502 4.29257L44.1106 4.2648L44.0709 4.23702L44.0312 4.20925L43.9916 4.18148L43.9519 4.15371L43.9122 4.12594L43.8686 4.09817L43.8289 4.07437L43.7853 4.05056L43.7416 4.02676L43.698 4.00296L43.6583 3.97915L43.6147 3.95535L43.571 3.93155L43.5274 3.90774L43.4837 3.88791L43.4401 3.86807L43.3965 3.84823L43.3528 3.8284L43.3092 3.80856L43.2656 3.78873L43.2219 3.76889L43.1743 3.75302L43.1307 3.73715L43.0831 3.72128L43.0394 3.70541L42.9918 3.68954L42.9442 3.67367L42.8966 3.65781L42.849 3.64591L42.8014 3.634L42.7538 3.6221L42.7022 3.6102L42.6546 3.5983L42.603 3.5864L42.5554 3.57449L42.5038 3.56656L42.4523 3.55863L42.4007 3.55069L42.3491 3.54276L42.2975 3.53482L42.246 3.52689L42.1944 3.51895L42.1428 3.51498L42.0912 3.51102L42.0397 3.50705L41.9881 3.50308L41.9365 3.49912L41.8849 3.49515H41.8334H41.7818H41.7302H41.6826Z" fill="#4A12C0"/>
</svg>
